<?xml version="1.0" standalone="yes"?>

<svg version="1.1" viewBox="0.0 0.0 460.46456692913387 236.6509186351706" fill="none" stroke="none" stroke-linecap="square" stroke-miterlimit="10" xmlns="http://www.w3.org/2000/svg" xmlns:xlink="http://www.w3.org/1999/xlink"><clipPath id="p.0"><path d="m0 0l460.46457 0l0 236.65092l-460.46457 0l0 -236.65092z" clip-rule="nonzero"></path></clipPath><g clip-path="url(#p.0)"><path fill="#000000" fill-opacity="0.0" d="m0 0l460.46457 0l0 236.65092l-460.46457 0z" fill-rule="evenodd"></path><path fill="#cfe2f3" d="m20.0 31.992346l0 0c0 -6.0709057 4.92144 -10.992346 10.992346 -10.992346l395.0232 0c2.9153442 0 5.7113037 1.1581192 7.772766 3.2195835c2.0614624 2.0614643 3.219574 4.8574104 3.219574 7.7727623l0 43.968063c0 6.0709076 -4.9214478 10.992348 -10.99234 10.992348l-395.0232 0c-6.0709057 0 -10.992346 -4.92144 -10.992346 -10.992348z" fill-rule="evenodd"></path><path stroke="#000000" stroke-width="1.0" stroke-linejoin="round" stroke-linecap="butt" d="m20.0 31.992346l0 0c0 -6.0709057 4.92144 -10.992346 10.992346 -10.992346l395.0232 0c2.9153442 0 5.7113037 1.1581192 7.772766 3.2195835c2.0614624 2.0614643 3.219574 4.8574104 3.219574 7.7727623l0 43.968063c0 6.0709076 -4.9214478 10.992348 -10.99234 10.992348l-395.0232 0c-6.0709057 0 -10.992346 -4.92144 -10.992346 -10.992348z" fill-rule="evenodd"></path><path fill="#000000" d="m207.10912 51.139545l0 -13.59375l2.71875 0l3.21875 9.625q0.4375 1.34375 0.640625 2.015625q0.234375 -0.75 0.734375 -2.1875l3.25 -9.453125l2.421875 0l0 13.59375l-1.734375 0l0 -11.390625l-3.953125 11.390625l-1.625 0l-3.9375 -11.578125l0 11.578125l-1.734375 0zm15.400177 -11.6875l0 -1.90625l1.671875 0l0 1.90625l-1.671875 0zm0 11.6875l0 -9.859375l1.671875 0l0 9.859375l-1.671875 0zm3.0198212 0l3.59375 -5.125l-3.328125 -4.734375l2.09375 0l1.515625 2.3125q0.421875 0.65625 0.671875 1.109375q0.421875 -0.609375 0.765625 -1.09375l1.65625 -2.328125l1.984375 0l-3.390625 4.640625l3.65625 5.21875l-2.046875 0l-2.03125 -3.0625l-0.53125 -0.828125l-2.59375 3.890625l-2.015625 0zm17.1875 -3.171875l1.71875 0.21875q-0.40625 1.5 -1.515625 2.34375q-1.09375 0.828125 -2.8125 0.828125q-2.15625 0 -3.421875 -1.328125q-1.265625 -1.328125 -1.265625 -3.734375q0 -2.484375 1.265625 -3.859375q1.28125 -1.375 3.328125 -1.375q1.984375 0 3.234375 1.34375q1.25 1.34375 1.25 3.796875q0 0.140625 -0.015625 0.4375l-7.34375 0q0.09375 1.625 0.921875 2.484375q0.828125 0.859375 2.0625 0.859375q0.90625 0 1.546875 -0.46875q0.65625 -0.484375 1.046875 -1.546875zm-5.484375 -2.703125l5.5 0q-0.109375 -1.234375 -0.625 -1.859375q-0.796875 -0.96875 -2.078125 -0.96875q-1.140625 0 -1.9375 0.78125q-0.78125 0.765625 -0.859375 2.046875zm9.094467 5.875l0 -9.859375l1.5 0l0 1.5q0.578125 -1.046875 1.0625 -1.375q0.484375 -0.34375 1.078125 -0.34375q0.84375 0 1.71875 0.546875l-0.578125 1.546875q-0.609375 -0.359375 -1.234375 -0.359375q-0.546875 0 -0.984375 0.328125q-0.421875 0.328125 -0.609375 0.90625q-0.28125 0.890625 -0.28125 1.953125l0 5.15625l-1.671875 0z" fill-rule="nonzero"></path><path fill="#fff2cc" d="m122.2126 66.732285l0 137.00787l-30.58268 0l0 -137.00787z" fill-rule="evenodd"></path><path stroke="#000000" stroke-width="1.0" stroke-linejoin="round" stroke-linecap="butt" d="m122.2126 66.732285l0 137.00787l-30.58268 0l0 -137.00787z" fill-rule="evenodd"></path><path fill="#000000" d="m105.329384 122.85037l1.609375 0l0 5.765625l-5.046875 0q-1.0625 -1.328125 -1.59375 -2.75q-0.53125 -1.40625 -0.53125 -2.890625q0 -2.0 0.859375 -3.640625q0.859375 -1.625 2.484375 -2.46875q1.625 -0.828125 3.625 -0.828125q1.984375 0 3.703125 0.828125q1.71875 0.828125 2.546875 2.390625q0.84375 1.5625 0.84375 3.59375q0 1.46875 -0.484375 2.65625q-0.46875 1.203125 -1.328125 1.875q-0.84375 0.671875 -2.21875 1.03125l-0.4375 -1.625q1.03125 -0.3125 1.625 -0.765625q0.59375 -0.453125 0.953125 -1.296875q0.359375 -0.84375 0.359375 -1.875q0 -1.234375 -0.375 -2.140625q-0.375 -0.890625 -1.0 -1.453125q-0.609375 -0.546875 -1.34375 -0.84375q-1.25 -0.53125 -2.734375 -0.53125q-1.8125 0 -3.046875 0.625q-1.21875 0.640625 -1.8125 1.828125q-0.59375 1.203125 -0.59375 2.546875q0 1.171875 0.453125 2.28125q0.453125 1.109375 0.953125 1.6875l2.53125 0l0 -4.0zm-0.5625 17.855179l-0.453125 1.796875q-2.21875 -0.5625 -3.390625 -2.03125q-1.15625 -1.46875 -1.15625 -3.59375q0 -2.203125 0.890625 -3.578125q0.90625 -1.375 2.59375 -2.09375q1.703125 -0.71875 3.65625 -0.71875q2.125 0 3.703125 0.796875q1.578125 0.8125 2.390625 2.3125q0.828125 1.5 0.828125 3.296875q0 2.046875 -1.046875 3.4375q-1.03125 1.390625 -2.90625 1.9375l-0.421875 -1.765625q1.484375 -0.46875 2.15625 -1.375q0.6875 -0.90625 0.6875 -2.265625q0 -1.5625 -0.75 -2.625q-0.75 -1.046875 -2.03125 -1.484375q-1.265625 -0.421875 -2.609375 -0.421875q-1.734375 0 -3.03125 0.5q-1.28125 0.515625 -1.921875 1.578125q-0.640625 1.078125 -0.640625 2.3125q0 1.515625 0.859375 2.5625q0.875 1.046875 2.59375 1.421875zm-4.765625 3.7698212l13.59375 0l0 5.125q0 1.359375 -0.125 2.078125q-0.171875 1.0 -0.640625 1.671875q-0.46875 0.671875 -1.3125 1.078125q-0.84375 0.421875 -1.84375 0.421875q-1.734375 0 -2.9375 -1.109375q-1.203125 -1.09375 -1.203125 -3.984375l0 -3.484375l-5.53125 0l0 -1.796875zm7.140625 1.796875l0 3.515625q0 1.75 0.640625 2.46875q0.65625 0.734375 1.828125 0.734375q0.859375 0 1.46875 -0.4375q0.609375 -0.421875 0.796875 -1.125q0.125 -0.453125 0.125 -1.671875l0 -3.484375l-4.859375 0z" fill-rule="nonzero"></path><path fill="#fff2cc" d="m171.46457 66.49606l0 138.01575l-32.91339 0l0 -138.01575z" fill-rule="evenodd"></path><path stroke="#000000" stroke-width="1.0" stroke-linejoin="round" stroke-linecap="butt" d="m171.46457 66.49606l0 138.01575l-32.91339 0l0 -138.01575z" fill-rule="evenodd"></path><path fill="#000000" d="m148.08788 114.224785l13.59375 5.234375l0 1.9375l-13.59375 5.5625l0 -2.046875l4.125 -1.59375l0 -5.6875l-4.125 -1.484375l0 -1.921875zm5.578125 3.921875l0 4.609375l3.78125 -1.40625q1.703125 -0.65625 2.8125 -0.96875q-1.3125 -0.265625 -2.59375 -0.734375l-4.0 -1.5zm-5.578125 12.39669l13.59375 -3.6093674l0 1.8437424l-8.90625 2.0625q-1.40625 0.34375 -2.78125 0.578125q2.171875 0.515625 2.515625 0.609375l9.171875 2.59375l0 2.171875l-6.875 1.953125q-2.5625 0.734375 -4.8125 1.046875q1.28125 0.265625 2.953125 0.6875l8.734375 2.125l0 1.8125l-13.59375 -3.734375l0 -1.734375l10.359375 -2.859375q1.296875 -0.359375 1.59375 -0.421875q-0.9375 -0.21875 -1.59375 -0.40625l-10.359375 -2.890625l0 -1.828125zm4.375 14.624283l0.140625 1.6875q-1.015625 0.125 -1.671875 0.5625q-0.65625 0.4375 -1.0625 1.359375q-0.40625 0.9375 -0.40625 2.09375q0 1.03125 0.3125 1.8125q0.3125 0.796875 0.84375 1.1875q0.53125 0.390625 1.15625 0.390625q0.640625 0 1.109375 -0.375q0.484375 -0.375 0.8125 -1.234375q0.21875 -0.546875 0.65625 -2.421875q0.453125 -1.875 0.859375 -2.625q0.515625 -0.96875 1.265625 -1.453125q0.75 -0.46875 1.6875 -0.46875q1.03125 0 1.921875 0.578125q0.90625 0.59375 1.359375 1.703125q0.46875 1.125 0.46875 2.5q0 1.515625 -0.484375 2.671875q-0.484375 1.15625 -1.4375 1.765625q-0.9375 0.625 -2.140625 0.671875l-0.125 -1.71875q1.28125 -0.140625 1.9375 -0.953125q0.671875 -0.796875 0.671875 -2.359375q0 -1.625 -0.609375 -2.375q-0.59375 -0.75 -1.4375 -0.75q-0.734375 0 -1.203125 0.53125q-0.46875 0.515625 -0.96875 2.703125q-0.5 2.203125 -0.875 3.015625q-0.546875 1.1875 -1.390625 1.75q-0.828125 0.578125 -1.921875 0.578125q-1.09375 0 -2.0625 -0.625q-0.953125 -0.625 -1.484375 -1.796875q-0.53125 -1.15625 -0.53125 -2.609375q0 -1.84375 0.53125 -3.09375q0.546875 -1.25 1.625 -1.96875q1.078125 -0.703125 2.453125 -0.734375z" fill-rule="nonzero"></path><path fill="#fff2cc" d="m321.58136 66.00787l0 138.99213l-34.015747 0l0 -138.99213z" fill-rule="evenodd"></path><path stroke="#000000" stroke-width="1.0" stroke-linejoin="round" stroke-linecap="butt" d="m321.58136 66.00787l0 138.99213l-34.015747 0l0 -138.99213z" fill-rule="evenodd"></path><path fill="#000000" d="m297.6535 86.67915l13.59375 0l0 5.125q0 1.359375 -0.125 2.078125q-0.171875 1.0 -0.640625 1.671875q-0.46875 0.671875 -1.3125 1.078125q-0.84375 0.421875 -1.84375 0.421875q-1.734375 0 -2.9375 -1.109375q-1.203125 -1.09375 -1.203125 -3.984375l0 -3.484375l-5.53125 0l0 -1.796875zm7.140625 1.796875l0 3.515625q0 1.75 0.640625 2.46875q0.65625 0.734375 1.828125 0.734375q0.859375 0 1.46875 -0.4375q0.609375 -0.421875 0.796875 -1.125q0.125 -0.453125 0.125 -1.671875l0 -3.484375l-4.859375 0zm-7.140625 10.412323l9.859375 0l0 1.5l-1.5 0q1.046875 0.578125 1.375 1.0625q0.34375 0.484375 0.34375 1.078125q0 0.84375 -0.546875 1.71875l-1.546875 -0.578125q0.359375 -0.609375 0.359375 -1.234375q0 -0.546875 -0.328125 -0.984375q-0.328125 -0.421875 -0.90625 -0.609375q-0.890625 -0.28125 -1.953125 -0.28125l-5.15625 0l0 -1.671875zm4.921875 5.603302q2.734375 0 4.0625 1.53125q1.09375 1.265625 1.09375 3.09375q0 2.03125 -1.34375 3.3125q-1.328125 1.296875 -3.671875 1.296875q-1.90625 0 -3.0 -0.578125q-1.078125 -0.5625 -1.6875 -1.65625q-0.59375 -1.078125 -0.59375 -2.375q0 -2.0625 1.328125 -3.34375q1.328125 -1.28125 3.8125 -1.28125zm0 1.71875q-1.890625 0 -2.828125 0.828125q-0.9375 0.828125 -0.9375 2.078125q0 1.25 0.9375 2.0625q0.953125 0.828125 2.890625 0.828125q1.828125 0 2.765625 -0.828125q0.9375 -0.828125 0.9375 -2.0625q0 -1.25 -0.9375 -2.078125q-0.9375 -0.828125 -2.828125 -0.828125zm-4.921875 9.281967l9.859375 0l0 1.5l-1.390625 0q0.71875 0.453125 1.15625 1.21875q0.453125 0.78125 0.453125 1.765625q0 1.09375 -0.453125 1.796875q-0.453125 0.703125 -1.28125 0.984375q1.734375 1.171875 1.734375 3.046875q0 1.46875 -0.8125 2.25q-0.8125 0.796875 -2.5 0.796875l-6.765625 0l0 -1.671875l6.203125 0q1.0 0 1.4375 -0.15625q0.453125 -0.15625 0.71875 -0.59375q0.265625 -0.421875 0.265625 -1.0q0 -1.03125 -0.6875 -1.71875q-0.6875 -0.6875 -2.21875 -0.6875l-5.71875 0l0 -1.671875l6.40625 0q1.109375 0 1.65625 -0.40625q0.5625 -0.40625 0.5625 -1.34375q0 -0.703125 -0.375 -1.3125q-0.359375 -0.59375 -1.078125 -0.859375q-0.71875 -0.265625 -2.0625 -0.265625l-5.109375 0l0 -1.671875zm3.171875 22.290802l-0.21875 1.71875q-1.5 -0.40625 -2.34375 -1.515625q-0.828125 -1.09375 -0.828125 -2.8125q0 -2.15625 1.328125 -3.421875q1.328125 -1.265625 3.734375 -1.265625q2.484375 0 3.859375 1.265625q1.375 1.28125 1.375 3.328125q0 1.984375 -1.34375 3.234375q-1.34375 1.25 -3.796875 1.25q-0.140625 0 -0.4375 -0.015625l0 -7.34375q-1.625 0.09375 -2.484375 0.921875q-0.859375 0.828125 -0.859375 2.0625q0 0.90625 0.46875 1.546875q0.484375 0.65625 1.546875 1.046875zm2.703125 -5.484375l0 5.5q1.234375 -0.109375 1.859375 -0.625q0.96875 -0.796875 0.96875 -2.078125q0 -1.140625 -0.78125 -1.9375q-0.765625 -0.78125 -2.046875 -0.859375zm-4.375 12.766342l-1.484375 0.234375q-0.140625 -0.703125 -0.140625 -1.265625q0 -0.90625 0.28125 -1.40625q0.296875 -0.5 0.75 -0.703125q0.46875 -0.203125 1.984375 -0.203125l5.65625 0l0 -1.234375l1.3125 0l0 1.234375l2.4375 0l1.0 1.65625l-3.4375 0l0 1.6875l-1.3125 0l0 -1.6875l-5.75 0q-0.71875 0 -0.921875 0.078125q-0.203125 0.09375 -0.328125 0.296875q-0.125 0.203125 -0.125 0.578125q0 0.265625 0.078125 0.734375zm-1.5 1.5270538l13.59375 0l0 1.671875l-4.875 0q1.359375 1.171875 1.359375 2.953125q0 1.09375 -0.4375 1.890625q-0.421875 0.8125 -1.1875 1.15625q-0.765625 0.359375 -2.203125 0.359375l-6.25 0l0 -1.671875l6.25 0q1.25 0 1.8125 -0.546875q0.578125 -0.546875 0.578125 -1.53125q0 -0.75 -0.390625 -1.40625q-0.375 -0.640625 -1.046875 -0.921875q-0.65625 -0.28125 -1.8125 -0.28125l-5.390625 0l0 -1.671875zm3.171875 17.125717l-0.21875 1.71875q-1.5 -0.40625 -2.34375 -1.515625q-0.828125 -1.09375 -0.828125 -2.8125q0 -2.15625 1.328125 -3.421875q1.328125 -1.265625 3.734375 -1.265625q2.484375 0 3.859375 1.265625q1.375 1.28125 1.375 3.328125q0 1.984375 -1.34375 3.234375q-1.34375 1.25 -3.796875 1.25q-0.140625 0 -0.4375 -0.015625l0 -7.34375q-1.625 0.09375 -2.484375 0.921875q-0.859375 0.828125 -0.859375 2.0625q0 0.90625 0.46875 1.546875q0.484375 0.65625 1.546875 1.046875zm2.703125 -5.484375l0 5.5q1.234375 -0.109375 1.859375 -0.625q0.96875 -0.796875 0.96875 -2.078125q0 -1.140625 -0.78125 -1.9375q-0.765625 -0.78125 -2.046875 -0.859375zm-5.875 15.563217l1.453125 0q-1.671875 -1.140625 -1.671875 -3.125q0 -0.859375 0.328125 -1.625q0.34375 -0.75 0.84375 -1.125q0.5 -0.359375 1.234375 -0.515625q0.5 -0.09375 1.5625 -0.09375l6.109375 0l0 1.671875l-5.46875 0q-1.3125 0 -1.765625 0.09375q-0.65625 0.15625 -1.03125 0.671875q-0.375 0.515625 -0.375 1.265625q0 0.75 0.375 1.40625q0.390625 0.65625 1.046875 0.921875q0.671875 0.28125 1.9375 0.28125l5.28125 0l0 1.671875l-9.859375 0l0 -1.5zm2.9375 3.2507172l0.265625 1.65625q-1.0 0.140625 -1.53125 0.765625q-0.515625 0.640625 -0.515625 1.78125q0 1.15625 0.46875 1.703125q0.46875 0.5625 1.09375 0.5625q0.5625 0 0.890625 -0.484375q0.21875 -0.34375 0.5625 -1.703125q0.46875 -1.84375 0.796875 -2.5625q0.34375 -0.703125 0.9375 -1.078125q0.609375 -0.359375 1.328125 -0.359375q0.65625 0 1.21875 0.296875q0.5625 0.3125 0.9375 0.828125q0.28125 0.390625 0.484375 1.0625q0.203125 0.671875 0.203125 1.4375q0 1.171875 -0.34375 2.046875q-0.328125 0.875 -0.90625 1.28125q-0.5625 0.421875 -1.515625 0.578125l-0.21875 -1.625q0.75 -0.109375 1.171875 -0.65625q0.4375 -0.53125 0.4375 -1.5q0 -1.15625 -0.390625 -1.640625q-0.375 -0.484375 -0.875 -0.484375q-0.328125 0 -0.59375 0.203125q-0.265625 0.203125 -0.4375 0.640625q-0.09375 0.25 -0.4375 1.46875q-0.46875 1.765625 -0.765625 2.46875q-0.296875 0.703125 -0.875 1.09375q-0.578125 0.40625 -1.4375 0.40625q-0.828125 0 -1.578125 -0.484375q-0.734375 -0.484375 -1.140625 -1.40625q-0.390625 -0.921875 -0.390625 -2.078125q0 -1.921875 0.796875 -2.9375q0.796875 -1.0 2.359375 -1.28125z" fill-rule="nonzero"></path><path fill="#fff2cc" d="m270.8189 66.732285l0 137.5433l-32.661423 0l0 -137.5433z" fill-rule="evenodd"></path><path stroke="#000000" stroke-width="1.0" stroke-linejoin="round" stroke-linecap="butt" d="m270.8189 66.732285l0 137.5433l-32.661423 0l0 -137.5433z" fill-rule="evenodd"></path><path fill="#000000" d="m247.56819 99.1696l13.593765 0l0 1.8125l-5.5781403 0l0 7.0625l5.5781403 0l0 1.796875l-13.593765 0l0 -1.796875l6.40625 0l0 -7.0625l-6.40625 0l0 -1.8125zm3.171875 19.957321l-0.21875 1.71875q-1.5 -0.40625 -2.34375 -1.515625q-0.828125 -1.09375 -0.828125 -2.8125q0 -2.15625 1.328125 -3.421875q1.328125 -1.265625 3.734375 -1.265625q2.484375 0 3.8593903 1.265625q1.375 1.28125 1.375 3.328125q0 1.984375 -1.34375 3.234375q-1.3437653 1.25 -3.7968903 1.25q-0.140625 0 -0.4375 -0.015625l0 -7.34375q-1.625 0.09375 -2.484375 0.921875q-0.859375 0.828125 -0.859375 2.0625q0 0.90625 0.46875 1.546875q0.484375 0.65625 1.546875 1.046875zm2.703125 -5.484375l0 5.5q1.234375 -0.109375 1.859375 -0.625q0.96876526 -0.796875 0.96876526 -2.078125q0 -1.140625 -0.78126526 -1.9375q-0.765625 -0.78125 -2.046875 -0.859375zm-4.65625 15.547592q-0.796875 -0.9375 -1.125 -1.796875q-0.3125 -0.859375 -0.3125 -1.84375q0 -1.609375 0.78125 -2.484375q0.796875 -0.875 2.03125 -0.875q0.734375 0 1.328125 0.328125q0.59375 0.328125 0.953125 0.859375q0.359375 0.53125 0.546875 1.203125q0.140625 0.5 0.25 1.484375q0.25 2.03125 0.578125 2.984375q0.34375 0 0.4375 0q1.015625 0 1.4375 -0.46875q0.56251526 -0.640625 0.56251526 -1.90625q0 -1.171875 -0.40626526 -1.734375q-0.40625 -0.5625 -1.46875 -0.828125l0.234375 -1.640625q1.046875 0.234375 1.6875153 0.734375q0.640625 0.515625 0.984375 1.46875q0.359375 0.96875 0.359375 2.25q0 1.265625 -0.296875 2.046875q-0.296875 0.78125 -0.75 1.15625q-0.453125 0.375 -1.1406403 0.515625q-0.421875 0.09375 -1.53125 0.09375l-2.234375 0q-2.328125 0 -2.953125 0.09375q-0.609375 0.109375 -1.171875 0.4375l0 -1.75q0.515625 -0.265625 1.21875 -0.328125zm3.71875 -0.140625q-0.359375 -0.90625 -0.625 -2.734375q-0.140625 -1.03125 -0.328125 -1.453125q-0.1875 -0.421875 -0.546875 -0.65625q-0.359375 -0.234375 -0.796875 -0.234375q-0.671875 0 -1.125 0.5q-0.4375 0.515625 -0.4375 1.484375q0 0.96875 0.421875 1.71875q0.4375 0.75 1.15625 1.109375q0.578125 0.265625 1.671875 0.265625l0.609375 0zm-8.71875 4.078842l13.64064 0l0 1.53125l-1.28125 0q0.75 0.53125 1.125 1.203125q0.375 0.6875 0.375 1.640625q0 1.265625 -0.65625 2.234375q-0.640625 0.96875 -1.8281403 1.453125q-1.1875 0.5 -2.59375 0.5q-1.515625 0 -2.734375 -0.546875q-1.203125 -0.546875 -1.84375 -1.578125q-0.640625 -1.03125 -0.640625 -2.171875q0 -0.84375 0.34375 -1.515625q0.359375 -0.65625 0.890625 -1.078125l-4.796875 0l0 -1.671875zm8.65625 1.515625q-1.90625 0 -2.8125 0.765625q-0.90625 0.78125 -0.90625 1.875q0 1.109375 0.9375 1.890625q0.9375 0.796875 2.921875 0.796875q1.875 0 2.8125 -0.78125q0.93751526 -0.765625 0.93751526 -1.84375q0 -1.0625 -1.0000153 -1.890625q-1.0 -0.8125 -2.890625 -0.8125zm-1.9375 8.188217l0.265625 1.65625q-1.0 0.140625 -1.53125 0.765625q-0.515625 0.640625 -0.515625 1.78125q0 1.15625 0.46875 1.703125q0.46875 0.5625 1.09375 0.5625q0.5625 0 0.890625 -0.484375q0.21875 -0.34375 0.5625 -1.703125q0.46875 -1.84375 0.796875 -2.5625q0.34375 -0.703125 0.9375 -1.078125q0.609375 -0.359375 1.328125 -0.359375q0.65625 0 1.2187653 0.296875q0.5625 0.3125 0.9375 0.828125q0.28125 0.390625 0.484375 1.0625q0.203125 0.671875 0.203125 1.4375q0 1.171875 -0.34375 2.046875q-0.328125 0.875 -0.90625 1.28125q-0.56251526 0.421875 -1.5156403 0.578125l-0.21875 -1.625q0.75 -0.109375 1.171875 -0.65625q0.43751526 -0.53125 0.43751526 -1.5q0 -1.15625 -0.39064026 -1.640625q-0.375 -0.484375 -0.875 -0.484375q-0.328125 0 -0.59375 0.203125q-0.265625 0.203125 -0.4375 0.640625q-0.09375 0.25 -0.4375 1.46875q-0.46875 1.765625 -0.765625 2.46875q-0.296875 0.703125 -0.875 1.09375q-0.578125 0.40625 -1.4375 0.40625q-0.828125 0 -1.578125 -0.484375q-0.734375 -0.484375 -1.140625 -1.40625q-0.390625 -0.921875 -0.390625 -2.078125q0 -1.921875 0.796875 -2.9375q0.796875 -1.0 2.359375 -1.28125zm-1.4375 13.65625l-1.484375 0.234375q-0.140625 -0.703125 -0.140625 -1.265625q0 -0.90625 0.28125 -1.40625q0.296875 -0.5 0.75 -0.703125q0.46875 -0.203125 1.984375 -0.203125l5.6562653 0l0 -1.234375l1.3125 0l0 1.234375l2.4375 0l1.0 1.65625l-3.4375 0l0 1.6875l-1.3125 0l0 -1.6875l-5.7500153 0q-0.71875 0 -0.921875 0.078125q-0.203125 0.09375 -0.328125 0.296875q-0.125 0.203125 -0.125 0.578125q0 0.265625 0.078125 0.734375zm1.671875 8.277054l-0.21875 1.71875q-1.5 -0.40625 -2.34375 -1.515625q-0.828125 -1.09375 -0.828125 -2.8125q0 -2.15625 1.328125 -3.421875q1.328125 -1.265625 3.734375 -1.265625q2.484375 0 3.8593903 1.265625q1.375 1.28125 1.375 3.328125q0 1.984375 -1.34375 3.234375q-1.3437653 1.25 -3.7968903 1.25q-0.140625 0 -0.4375 -0.015625l0 -7.34375q-1.625 0.09375 -2.484375 0.921875q-0.859375 0.828125 -0.859375 2.0625q0 0.90625 0.46875 1.546875q0.484375 0.65625 1.546875 1.046875zm2.703125 -5.484375l0 5.5q1.234375 -0.109375 1.859375 -0.625q0.96876526 -0.796875 0.96876526 -2.078125q0 -1.140625 -0.78126526 -1.9375q-0.765625 -0.78125 -2.046875 -0.859375zm-5.875 9.094467l9.85939 0l0 1.5l-1.5000153 0q1.0468903 0.578125 1.3750153 1.0625q0.34375 0.484375 0.34375 1.078125q0 0.84375 -0.546875 1.71875l-1.5468903 -0.578125q0.359375 -0.609375 0.359375 -1.234375q0 -0.546875 -0.328125 -0.984375q-0.328125 -0.421875 -0.90625 -0.609375q-0.890625 -0.28125 -1.953125 -0.28125l-5.15625 0l0 -1.671875z" fill-rule="nonzero"></path><path fill="#fff2cc" d="m222.22801 66.00787l0 137.00787l-34.834656 0l0 -137.00787z" fill-rule="evenodd"></path><path stroke="#000000" stroke-width="1.0" stroke-linejoin="round" stroke-linecap="butt" d="m222.22801 66.00787l0 137.00787l-34.834656 0l0 -137.00787z" fill-rule="evenodd"></path><path fill="#000000" d="m197.89069 96.570915l13.59375 0l0 1.84375l-10.671875 7.140625l10.671875 0l0 1.71875l-13.59375 0l0 -1.84375l10.6875 -7.140625l-10.6875 0l0 -1.71875zm3.171875 20.019821l-0.21875 1.71875q-1.5 -0.40625 -2.34375 -1.515625q-0.828125 -1.09375 -0.828125 -2.8125q0 -2.15625 1.328125 -3.421875q1.328125 -1.265625 3.734375 -1.265625q2.484375 0 3.859375 1.265625q1.375 1.28125 1.375 3.328125q0 1.984375 -1.34375 3.234375q-1.34375 1.25 -3.796875 1.25q-0.140625 0 -0.4375 -0.015625l0 -7.34375q-1.625 0.09375 -2.484375 0.921875q-0.859375 0.828125 -0.859375 2.0625q0 0.90625 0.46875 1.546875q0.484375 0.65625 1.546875 1.046875zm2.703125 -5.484375l0 5.5q1.234375 -0.109375 1.859375 -0.625q0.96875 -0.796875 0.96875 -2.078125q0 -1.140625 -0.78125 -1.9375q-0.765625 -0.78125 -2.046875 -0.859375zm-5.875 10.938217l9.859375 -3.015625l0 1.71875l-5.6875 1.5625l-2.125 0.59375q0.15625 0.03125 2.03125 0.5l5.78125 1.578125l0 1.71875l-5.71875 1.4687576l-1.890625 0.484375l1.90625 0.578125l5.703125 1.6875l0 1.625l-9.859375 -3.078125l0 -1.7343826l5.90625 -1.578125l1.671875 -0.375l-7.578125 -2.0l0 -1.734375zm0 11.894829l13.59375 0l0 6.03125q0 1.8125 -0.359375 2.75q-0.359375 0.953125 -1.296875 1.515625q-0.921875 0.5625 -2.046875 0.5625q-1.453125 0 -2.453125 -0.9375q-0.984375 -0.921875 -1.25 -2.890625q-0.34375 0.71875 -0.671875 1.09375q-0.734375 0.78125 -1.8125 1.484375l-3.703125 2.375l0 -2.265625l2.828125 -1.796875q1.21875 -0.796875 1.875 -1.3125q0.65625 -0.5 0.90625 -0.90625q0.265625 -0.40625 0.359375 -0.8125q0.078125 -0.3125 0.078125 -1.015625l0 -2.078125l-6.046875 0l0 -1.796875zm7.59375 1.796875l0 3.859375q0 1.234375 0.25 1.921875q0.265625 0.703125 0.828125 1.0625q0.5625 0.375 1.21875 0.375q0.96875 0 1.578125 -0.703125q0.625 -0.703125 0.625 -2.21875l0 -4.296875l-4.5 0zm-4.421875 18.176071l-0.21875 1.71875q-1.5 -0.40625 -2.34375 -1.515625q-0.828125 -1.09375 -0.828125 -2.8125q0 -2.15625 1.328125 -3.421875q1.328125 -1.265625 3.734375 -1.265625q2.484375 0 3.859375 1.265625q1.375 1.28125 1.375 3.328125q0 1.984375 -1.34375 3.234375q-1.34375 1.25 -3.796875 1.25q-0.140625 0 -0.4375 -0.015625l0 -7.34375q-1.625 0.09375 -2.484375 0.921875q-0.859375 0.828125 -0.859375 2.0625q0 0.90625 0.46875 1.546875q0.484375 0.65625 1.546875 1.046875zm2.703125 -5.484375l0 5.5q1.234375 -0.109375 1.859375 -0.625q0.96875 -0.796875 0.96875 -2.078125q0 -1.140625 -0.78125 -1.9375q-0.765625 -0.78125 -2.046875 -0.859375zm-5.875 9.078842l13.59375 0l0 1.671875l-13.59375 0l0 -1.671875zm11.6875 4.191696l1.90625 0l0 1.671875l-1.90625 0l0 -1.671875zm-11.6875 0l9.859375 0l0 1.671875l-9.859375 0l0 -1.671875zm3.609375 10.566696l-0.21875 1.640625q-1.6875 -0.265625 -2.65625 -1.375q-0.953125 -1.109375 -0.953125 -2.734375q0 -2.015625 1.3125 -3.25q1.328125 -1.21875 3.796875 -1.21875q1.59375 0 2.78125 0.515625q1.203125 0.53125 1.796875 1.609375q0.609375 1.09375 0.609375 2.359375q0 1.609375 -0.8125 2.625q-0.8125 1.015625 -2.3125 1.3125l-0.25 -1.625q1.0 -0.234375 1.5 -0.828125q0.5 -0.59375 0.5 -1.421875q0 -1.265625 -0.90625 -2.0625q-0.90625 -0.78125 -2.859375 -0.78125q-1.984375 0 -2.890625 0.765625q-0.890625 0.765625 -0.890625 1.984375q0 0.984375 0.59375 1.640625q0.609375 0.65625 1.859375 0.84375z" fill-rule="nonzero"></path><path fill="#fff2cc" d="m369.6378 66.732285l0 137.00787l-31.307068 0l0 -137.00787z" fill-rule="evenodd"></path><path stroke="#000000" stroke-width="1.0" stroke-linejoin="round" stroke-linecap="butt" d="m369.6378 66.732285l0 137.00787l-31.307068 0l0 -137.00787z" fill-rule="evenodd"></path><path fill="#000000" d="m347.06424 110.72863l1.671875 0l8.703125 6.96875q0.9375 0.75 1.625 1.421875l0 -7.59375l1.59375 0l0 9.734375l-1.59375 0l-9.4375 -7.625l-0.953125 -0.828125l0 8.6875l-1.609375 0l0 -10.765625zm11.6875 12.286606l1.90625 0l0 1.671875l-1.90625 0l0 -1.671875zm-11.6875 0l9.859375 0l0 1.671875l-9.859375 0l0 -1.671875zm-3.78125 4.129196l13.640625 0l0 1.5312424l-1.28125 0q0.75 0.53125 1.125 1.203125q0.375 0.6875 0.375 1.640625q0 1.265625 -0.65625 2.234375q-0.640625 0.96875 -1.828125 1.453125q-1.1875 0.5 -2.59375 0.5q-1.515625 0 -2.734375 -0.546875q-1.203125 -0.546875 -1.84375 -1.578125q-0.640625 -1.03125 -0.640625 -2.171875q0 -0.84375 0.34375 -1.515625q0.359375 -0.65625 0.890625 -1.078125l-4.796875 0l0 -1.6718674zm8.65625 1.5156174q-1.90625 0 -2.8125 0.765625q-0.90625 0.78125 -0.90625 1.875q0 1.109375 0.9375 1.890625q0.9375 0.796875 2.921875 0.796875q1.875 0 2.8125 -0.78125q0.9375 -0.765625 0.9375 -1.84375q0 -1.0625 -1.0 -1.890625q-1.0 -0.8125 -2.890625 -0.8125zm-4.875 8.875717l13.59375 0l0 1.671875l-7.75 0l4.015625 3.953125l0 2.15625l-3.65625 -3.765625l-6.203125 4.140625l0 -2.0625l5.03125 -3.25l-1.125 -1.171875l-3.90625 0l0 -1.671875zm11.6875 9.328125l1.90625 0l0 1.671875l-1.90625 0l0 -1.671875zm-11.6875 0l9.859375 0l0 1.671875l-9.859375 0l0 -1.671875zm0 4.129196l9.859375 0l0 1.5l-1.40625 0q1.625 1.09375 1.625 3.140625q0 0.890625 -0.328125 1.640625q-0.3125 0.75 -0.84375 1.109375q-0.515625 0.375 -1.21875 0.53125q-0.46875 0.09375 -1.625 0.09375l-6.0625 0l0 -1.671875l6.0 0q1.015625 0 1.515625 -0.203125q0.515625 -0.1875 0.8125 -0.6875q0.296875 -0.5 0.296875 -1.171875q0 -1.0625 -0.671875 -1.84375q-0.671875 -0.765625 -2.578125 -0.765625l-5.375 0l0 -1.671875z" fill-rule="nonzero"></path><path fill="#fff2cc" d="m77.50131 66.00787l0 137.00787l-30.582676 0l0 -137.00787z" fill-rule="evenodd"></path><path stroke="#000000" stroke-width="1.0" stroke-linejoin="round" stroke-linecap="butt" d="m77.50131 66.00787l0 137.00787l-30.582676 0l0 -137.00787z" fill-rule="evenodd"></path><path fill="#000000" d="m55.289978 102.72565l13.59375 0l0 5.109375q0 1.546875 -0.40625 2.484375q-0.40625 0.953125 -1.265625 1.484375q-0.859375 0.53125 -1.796875 0.53125q-0.875 0 -1.65625 -0.46875q-0.765625 -0.46875 -1.234375 -1.4375q-0.359375 1.234375 -1.234375 1.890625q-0.875 0.671875 -2.0625 0.671875q-0.953125 0 -1.78125 -0.40625q-0.8125 -0.390625 -1.265625 -0.984375q-0.4375 -0.59375 -0.671875 -1.5q-0.21875 -0.890625 -0.21875 -2.1875l0 -5.1875zm7.890625 1.796875l0 2.9375q0 1.203125 0.15625 1.71875q0.203125 0.6875 0.671875 1.03125q0.46875 0.359375 1.1875 0.359375q0.671875 0 1.1875 -0.328125q0.515625 -0.328125 0.703125 -0.9375q0.203125 -0.59375 0.203125 -2.0625l0 -2.71875l-4.109375 0zm-6.28125 0l0 3.390625q0 0.875 0.0625 1.21875q0.109375 0.625 0.359375 1.046875q0.265625 0.421875 0.765625 0.6875q0.5 0.265625 1.140625 0.265625q0.765625 0 1.328125 -0.390625q0.5625 -0.390625 0.78125 -1.078125q0.234375 -0.6875 0.234375 -1.984375l0 -3.15625l-4.671875 0zm-1.609375 10.474823l13.59375 0l0 1.671875l-13.59375 0l0 -1.671875zm0 10.629196l1.453125 0q-1.671875 -1.140625 -1.671875 -3.125q0 -0.859375 0.328125 -1.625q0.34375 -0.75 0.84375 -1.125q0.5 -0.359375 1.234375 -0.515625q0.5 -0.09375 1.5625 -0.09375l6.109375 0l0 1.671875l-5.46875 0q-1.3125 0 -1.765625 0.09375q-0.65625 0.15625 -1.03125 0.671875q-0.375 0.515625 -0.375 1.265625q0 0.75 0.375 1.40625q0.390625 0.65625 1.046875 0.921875q0.671875 0.28125 1.9375 0.28125l5.28125 0l0 1.671875l-9.859375 0l0 -1.5zm3.171875 10.672592l-0.21875 1.71875q-1.5 -0.40625 -2.34375 -1.515625q-0.828125 -1.09375 -0.828125 -2.8125q0 -2.15625 1.328125 -3.421875q1.328125 -1.265625 3.734375 -1.265625q2.484375 0 3.859375 1.265625q1.375 1.28125 1.375 3.328125q0 1.984375 -1.34375 3.234375q-1.34375 1.25 -3.796875 1.25q-0.140625 0 -0.4375 -0.015625l0 -7.34375q-1.625 0.09375 -2.484375 0.921875q-0.859375 0.828125 -0.859375 2.0625q0 0.90625 0.46875 1.546875q0.484375 0.65625 1.546875 1.046875zm2.703125 -5.484375l0 5.5q1.234375 -0.109375 1.859375 -0.625q0.96875 -0.796875 0.96875 -2.078125q0 -1.140625 -0.78125 -1.9375q-0.765625 -0.78125 -2.046875 -0.859375zm-5.875 9.110092l9.859375 0l0 1.5l-1.390625 0q0.71875 0.453125 1.15625 1.21875q0.453125 0.78125 0.453125 1.765625q0 1.09375 -0.453125 1.796875q-0.453125 0.703125 -1.28125 0.984375q1.734375 1.171875 1.734375 3.046875q0 1.46875 -0.8125 2.25q-0.8125 0.796875 -2.5 0.796875l-6.765625 0l0 -1.671875l6.203125 0q1.0 0 1.4375 -0.15625q0.453125 -0.15625 0.71875 -0.59375q0.265625 -0.421875 0.265625 -1.0q0 -1.03125 -0.6875 -1.71875q-0.6875 -0.6875 -2.21875 -0.6875l-5.71875 0l0 -1.671875l6.40625 0q1.109375 0 1.65625 -0.40625q0.5625 -0.40625 0.5625 -1.34375q0 -0.703125 -0.375 -1.3125q-0.359375 -0.59375 -1.078125 -0.859375q-0.71875 -0.265625 -2.0625 -0.265625l-5.109375 0l0 -1.671875zm11.6875 15.556427l1.90625 0l0 1.671875l-1.90625 0l0 -1.671875zm-11.6875 0l9.859375 0l0 1.671875l-9.859375 0l0 -1.671875zm0 3.0198212l5.125 3.59375l4.734375 -3.328125l0 2.09375l-2.3125 1.515625q-0.65625 0.421875 -1.109375 0.671875q0.609375 0.421875 1.09375 0.765625l2.328125 1.65625l0 1.984375l-4.640625 -3.390625l-5.21875 3.65625l0 -2.046875l3.0625 -2.03125l0.828125 -0.53125l-3.890625 -2.59375l0 -2.015625z" fill-rule="nonzero"></path></g></svg>

