<?xml version="1.0" standalone="yes"?>

<svg version="1.1" viewBox="0.0 0.0 645.6824146981627 331.09186351706035" fill="none" stroke="none" stroke-linecap="square" stroke-miterlimit="10" xmlns="http://www.w3.org/2000/svg" xmlns:xlink="http://www.w3.org/1999/xlink"><clipPath id="p.0"><path d="m0 0l645.68243 0l0 331.09186l-645.68243 0l0 -331.09186z" clip-rule="nonzero"></path></clipPath><g clip-path="url(#p.0)"><path fill="#000000" fill-opacity="0.0" d="m0 0l645.68243 0l0 331.09186l-645.68243 0z" fill-rule="evenodd"></path><path fill="#c9daf8" d="m237.65755 73.66728l0 0c0 -5.699806 4.6206055 -10.320412 10.320419 -10.320412l102.06781 0c2.737152 0 5.3621826 1.087326 7.297638 3.0227814c1.9354553 1.9354477 3.0227966 4.560486 3.0227966 7.2976303l0 41.280434c0 5.699806 -4.6206055 10.320412 -10.320435 10.320412l-102.06781 0c-5.699814 0 -10.320419 -4.6206055 -10.320419 -10.320412z" fill-rule="evenodd"></path><path stroke="#004065" stroke-width="1.0" stroke-linejoin="round" stroke-linecap="butt" d="m237.65755 73.66728l0 0c0 -5.699806 4.6206055 -10.320412 10.320419 -10.320412l102.06781 0c2.737152 0 5.3621826 1.087326 7.297638 3.0227814c1.9354553 1.9354477 3.0227966 4.560486 3.0227966 7.2976303l0 41.280434c0 5.699806 -4.6206055 10.320412 -10.320435 10.320412l-102.06781 0c-5.699814 0 -10.320419 -4.6206055 -10.320419 -10.320412z" fill-rule="evenodd"></path><path fill="#000000" d="m289.82828 96.987495l0 -5.734375l1.140625 0l1.359375 4.0625q0.1875 0.5625 0.265625 0.84375q0.109375 -0.3125 0.3125 -0.921875l1.375 -3.984375l1.015625 0l0 5.734375l-0.734375 0l0 -4.796875l-1.65625 4.796875l-0.6875 0l-1.65625 -4.875l0 4.875l-0.734375 0zm6.6015625 -4.921875l0 -0.8125l0.703125 0l0 0.8125l-0.703125 0zm0 4.921875l0 -4.15625l0.703125 0l0 4.15625l-0.703125 0zm1.3085938 0l1.515625 -2.15625l-1.40625 -2.0l0.875 0l0.640625 0.984375q0.1875 0.265625 0.296875 0.453125q0.171875 -0.25 0.3125 -0.453125l0.703125 -0.984375l0.828125 0l-1.421875 1.953125l1.53125 2.203125l-0.859375 0l-0.84375 -1.296875l-0.234375 -0.34375l-1.09375 1.640625l-0.84375 0zm7.3125 -1.34375l0.71875 0.09375q-0.171875 0.640625 -0.640625 1.0q-0.453125 0.34375 -1.1875 0.34375q-0.90625 0 -1.4375 -0.5625q-0.53125 -0.5625 -0.53125 -1.578125q0 -1.046875 0.53125 -1.625q0.546875 -0.578125 1.40625 -0.578125q0.828125 0 1.359375 0.578125q0.53125 0.5625 0.53125 1.59375q0 0.0625 -0.015625 0.1875l-3.09375 0q0.046875 0.671875 0.390625 1.046875q0.34375 0.359375 0.875 0.359375q0.375 0 0.640625 -0.203125q0.28125 -0.203125 0.453125 -0.65625zm-2.3125 -1.125l2.3125 0q-0.046875 -0.53125 -0.265625 -0.796875q-0.328125 -0.40625 -0.875 -0.40625q-0.484375 0 -0.8125 0.328125q-0.328125 0.328125 -0.359375 0.875zm3.9023438 2.46875l0 -4.15625l0.640625 0l0 0.640625q0.234375 -0.453125 0.4375 -0.59375q0.21875 -0.140625 0.453125 -0.140625q0.359375 0 0.734375 0.234375l-0.25 0.65625q-0.25 -0.15625 -0.515625 -0.15625q-0.234375 0 -0.421875 0.140625q-0.171875 0.140625 -0.25 0.375q-0.125 0.375 -0.125 0.828125l0 2.171875l-0.703125 0z" fill-rule="nonzero"></path><path fill="#fff2cc" d="m497.6523 56.517265l0 0c0 -5.699806 4.620636 -10.3204155 10.320435 -10.3204155l102.06784 0c2.7371216 0 5.3621826 1.087326 7.2976074 3.0227814c1.9354858 1.9354515 3.022766 4.5604897 3.022766 7.297634l0 41.280426c0 5.699814 -4.6206055 10.320419 -10.320374 10.320419l-102.06784 0c-5.6997986 0 -10.320435 -4.6206055 -10.320435 -10.320419z" fill-rule="evenodd"></path><path stroke="#004065" stroke-width="1.0" stroke-linejoin="round" stroke-linecap="butt" d="m497.6523 56.517265l0 0c0 -5.699806 4.620636 -10.3204155 10.320435 -10.3204155l102.06784 0c2.7371216 0 5.3621826 1.087326 7.2976074 3.0227814c1.9354858 1.9354515 3.022766 4.5604897 3.022766 7.297634l0 41.280426c0 5.699814 -4.6206055 10.320419 -10.320374 10.320419l-102.06784 0c-5.6997986 0 -10.320435 -4.6206055 -10.320435 -10.320419z" fill-rule="evenodd"></path><path fill="#000000" d="m527.58673 79.83748l0 -5.734375l2.140625 0q0.65625 0 1.046875 0.1875q0.40625 0.171875 0.625 0.53125q0.234375 0.359375 0.234375 0.75q0 0.375 -0.203125 0.703125q-0.203125 0.3125 -0.609375 0.515625q0.53125 0.15625 0.796875 0.53125q0.28125 0.359375 0.28125 0.859375q0 0.390625 -0.171875 0.75q-0.15625 0.34375 -0.40625 0.53125q-0.25 0.1875 -0.640625 0.28125q-0.375 0.09375 -0.921875 0.09375l-2.171875 0zm0.75 -3.328125l1.234375 0q0.515625 0 0.734375 -0.0625q0.28125 -0.078125 0.421875 -0.28125q0.15625 -0.203125 0.15625 -0.5q0 -0.28125 -0.140625 -0.5q-0.140625 -0.21875 -0.390625 -0.296875q-0.25 -0.078125 -0.875 -0.078125l-1.140625 0l0 1.71875zm0 2.65625l1.421875 0q0.375 0 0.515625 -0.03125q0.265625 -0.046875 0.4375 -0.15625q0.1875 -0.109375 0.296875 -0.3125q0.109375 -0.21875 0.109375 -0.484375q0 -0.328125 -0.171875 -0.5625q-0.15625 -0.234375 -0.453125 -0.328125q-0.28125 -0.09375 -0.828125 -0.09375l-1.328125 0l0 1.96875zm7.2265625 0.15625q-0.390625 0.328125 -0.75 0.46875q-0.359375 0.140625 -0.78125 0.140625q-0.671875 0 -1.046875 -0.328125q-0.359375 -0.34375 -0.359375 -0.859375q0 -0.3125 0.125 -0.5625q0.140625 -0.25 0.359375 -0.390625q0.234375 -0.15625 0.515625 -0.234375q0.203125 -0.0625 0.625 -0.109375q0.859375 -0.109375 1.25 -0.25q0.015625 -0.140625 0.015625 -0.171875q0 -0.4375 -0.203125 -0.609375q-0.265625 -0.234375 -0.796875 -0.234375q-0.5 0 -0.734375 0.171875q-0.234375 0.171875 -0.359375 0.609375l-0.6875 -0.09375q0.09375 -0.4375 0.3125 -0.703125q0.21875 -0.28125 0.625 -0.421875q0.40625 -0.15625 0.9375 -0.15625q0.53125 0 0.859375 0.125q0.34375 0.125 0.5 0.328125q0.15625 0.1875 0.21875 0.46875q0.03125 0.1875 0.03125 0.65625l0 0.9375q0 0.96875 0.046875 1.234375q0.046875 0.265625 0.171875 0.5l-0.734375 0q-0.109375 -0.21875 -0.140625 -0.515625zm-0.0625 -1.5625q-0.375 0.15625 -1.140625 0.265625q-0.4375 0.0625 -0.625 0.140625q-0.171875 0.078125 -0.265625 0.234375q-0.09375 0.140625 -0.09375 0.328125q0 0.28125 0.203125 0.46875q0.21875 0.1875 0.625 0.1875q0.40625 0 0.71875 -0.171875q0.328125 -0.1875 0.46875 -0.5q0.109375 -0.234375 0.109375 -0.703125l0 -0.25zm4.5117188 0.5625l0.6875 0.078125q-0.109375 0.71875 -0.578125 1.125q-0.46875 0.40625 -1.140625 0.40625q-0.859375 0 -1.375 -0.546875q-0.515625 -0.5625 -0.515625 -1.609375q0 -0.671875 0.21875 -1.171875q0.234375 -0.5 0.6875 -0.75q0.453125 -0.265625 0.984375 -0.265625q0.671875 0 1.09375 0.34375q0.4375 0.34375 0.5625 0.96875l-0.6875 0.109375q-0.09375 -0.421875 -0.34375 -0.625q-0.25 -0.21875 -0.59375 -0.21875q-0.53125 0 -0.875 0.390625q-0.328125 0.375 -0.328125 1.203125q0 0.828125 0.3125 1.21875q0.328125 0.375 0.84375 0.375q0.421875 0 0.6875 -0.25q0.28125 -0.265625 0.359375 -0.78125zm1.296875 1.515625l0 -5.734375l0.703125 0l0 3.265625l1.671875 -1.6875l0.90625 0l-1.59375 1.546875l1.75 2.609375l-0.859375 0l-1.375 -2.125l-0.5 0.484375l0 1.640625l-0.703125 0zm6.84375 -1.34375l0.71875 0.09375q-0.171875 0.640625 -0.640625 1.0q-0.453125 0.34375 -1.1875 0.34375q-0.90625 0 -1.4375 -0.5625q-0.53125 -0.5625 -0.53125 -1.578125q0 -1.046875 0.53125 -1.625q0.546875 -0.578125 1.40625 -0.578125q0.828125 0 1.359375 0.578125q0.53125 0.5625 0.53125 1.59375q0 0.0625 -0.015625 0.1875l-3.09375 0q0.046875 0.671875 0.390625 1.046875q0.34375 0.359375 0.875 0.359375q0.375 0 0.640625 -0.203125q0.28125 -0.203125 0.453125 -0.65625zm-2.3125 -1.125l2.3125 0q-0.046875 -0.53125 -0.265625 -0.796875q-0.328125 -0.40625 -0.875 -0.40625q-0.484375 0 -0.8125 0.328125q-0.328125 0.328125 -0.359375 0.875zm3.9179688 2.46875l0 -4.15625l0.625 0l0 0.59375q0.46875 -0.6875 1.328125 -0.6875q0.375 0 0.6875 0.140625q0.3125 0.140625 0.46875 0.359375q0.15625 0.21875 0.21875 0.515625q0.046875 0.1875 0.046875 0.6875l0 2.546875l-0.703125 0l0 -2.53125q0 -0.421875 -0.09375 -0.625q-0.078125 -0.21875 -0.296875 -0.34375q-0.203125 -0.140625 -0.484375 -0.140625q-0.4375 0 -0.765625 0.296875q-0.328125 0.28125 -0.328125 1.078125l0 2.265625l-0.703125 0zm7.1367188 0l0 -0.53125q-0.390625 0.625 -1.15625 0.625q-0.5 0 -0.921875 -0.265625q-0.40625 -0.28125 -0.640625 -0.765625q-0.21875 -0.5 -0.21875 -1.140625q0 -0.609375 0.203125 -1.109375q0.203125 -0.515625 0.609375 -0.78125q0.421875 -0.28125 0.9375 -0.28125q0.375 0 0.65625 0.171875q0.296875 0.15625 0.484375 0.40625l0 -2.0625l0.703125 0l0 5.734375l-0.65625 0zm-2.21875 -2.078125q0 0.796875 0.328125 1.203125q0.34375 0.390625 0.796875 0.390625q0.46875 0 0.78125 -0.375q0.328125 -0.375 0.328125 -1.15625q0 -0.84375 -0.328125 -1.234375q-0.328125 -0.40625 -0.8125 -0.40625q-0.46875 0 -0.78125 0.390625q-0.3125 0.375 -0.3125 1.1875zm6.03125 0.234375l0.71875 -0.0625q0.046875 0.4375 0.234375 0.71875q0.1875 0.265625 0.578125 0.4375q0.390625 0.171875 0.875 0.171875q0.4375 0 0.765625 -0.125q0.328125 -0.140625 0.484375 -0.359375q0.171875 -0.234375 0.171875 -0.5q0 -0.265625 -0.15625 -0.46875q-0.15625 -0.203125 -0.515625 -0.328125q-0.234375 -0.09375 -1.03125 -0.28125q-0.78125 -0.1875 -1.09375 -0.359375q-0.40625 -0.21875 -0.609375 -0.53125q-0.203125 -0.328125 -0.203125 -0.71875q0 -0.4375 0.25 -0.8125q0.25 -0.375 0.71875 -0.5625q0.46875 -0.203125 1.046875 -0.203125q0.640625 0 1.125 0.203125q0.484375 0.203125 0.75 0.609375q0.265625 0.390625 0.28125 0.90625l-0.734375 0.046875q-0.046875 -0.546875 -0.390625 -0.8125q-0.34375 -0.28125 -1.0 -0.28125q-0.6875 0 -1.0 0.25q-0.3125 0.25 -0.3125 0.609375q0 0.3125 0.21875 0.5q0.21875 0.203125 1.140625 0.421875q0.921875 0.203125 1.265625 0.359375q0.5 0.234375 0.734375 0.59375q0.25 0.34375 0.25 0.796875q0 0.46875 -0.265625 0.875q-0.265625 0.390625 -0.75 0.625q-0.484375 0.21875 -1.109375 0.21875q-0.765625 0 -1.296875 -0.21875q-0.53125 -0.234375 -0.828125 -0.6875q-0.296875 -0.453125 -0.3125 -1.03125zm5.4765625 3.4375l-0.078125 -0.65625q0.234375 0.0625 0.40625 0.0625q0.234375 0 0.375 -0.078125q0.140625 -0.078125 0.21875 -0.21875q0.078125 -0.109375 0.21875 -0.515625q0.015625 -0.0625 0.0625 -0.171875l-1.578125 -4.171875l0.765625 0l0.859375 2.40625q0.171875 0.453125 0.296875 0.96875q0.125 -0.484375 0.296875 -0.953125l0.890625 -2.421875l0.703125 0l-1.578125 4.234375q-0.265625 0.671875 -0.40625 0.9375q-0.1875 0.34375 -0.4375 0.5q-0.234375 0.171875 -0.5625 0.171875q-0.203125 0 -0.453125 -0.09375zm3.75 -2.828125l0.6875 -0.109375q0.0625 0.40625 0.328125 0.640625q0.265625 0.21875 0.75 0.21875q0.484375 0 0.71875 -0.1875q0.234375 -0.203125 0.234375 -0.46875q0 -0.25 -0.203125 -0.375q-0.140625 -0.09375 -0.71875 -0.25q-0.78125 -0.1875 -1.078125 -0.328125q-0.296875 -0.140625 -0.453125 -0.390625q-0.15625 -0.265625 -0.15625 -0.5625q0 -0.28125 0.125 -0.515625q0.140625 -0.234375 0.359375 -0.390625q0.15625 -0.125 0.4375 -0.203125q0.28125 -0.09375 0.609375 -0.09375q0.484375 0 0.859375 0.140625q0.375 0.140625 0.546875 0.390625q0.171875 0.234375 0.234375 0.640625l-0.6875 0.09375q-0.046875 -0.328125 -0.265625 -0.5q-0.21875 -0.1875 -0.640625 -0.1875q-0.484375 0 -0.6875 0.171875q-0.203125 0.15625 -0.203125 0.375q0 0.125 0.078125 0.234375q0.09375 0.125 0.28125 0.1875q0.09375 0.046875 0.609375 0.1875q0.75 0.203125 1.046875 0.328125q0.296875 0.125 0.453125 0.375q0.171875 0.234375 0.171875 0.59375q0 0.34375 -0.203125 0.65625q-0.203125 0.3125 -0.59375 0.484375q-0.375 0.171875 -0.875 0.171875q-0.796875 0 -1.234375 -0.328125q-0.421875 -0.34375 -0.53125 -1.0zm5.8125 0.609375l0.109375 0.609375q-0.296875 0.078125 -0.53125 0.078125q-0.390625 0 -0.609375 -0.125q-0.203125 -0.125 -0.296875 -0.3125q-0.078125 -0.203125 -0.078125 -0.84375l0 -2.390625l-0.515625 0l0 -0.546875l0.515625 0l0 -1.015625l0.703125 -0.421875l0 1.4375l0.703125 0l0 0.546875l-0.703125 0l0 2.4375q0 0.296875 0.03125 0.390625q0.046875 0.078125 0.125 0.125q0.078125 0.046875 0.234375 0.046875q0.125 0 0.3125 -0.015625zm3.5351562 -0.71875l0.71875 0.09375q-0.171875 0.640625 -0.640625 1.0q-0.453125 0.34375 -1.1875 0.34375q-0.90625 0 -1.4375 -0.5625q-0.53125 -0.5625 -0.53125 -1.578125q0 -1.046875 0.53125 -1.625q0.546875 -0.578125 1.40625 -0.578125q0.828125 0 1.359375 0.578125q0.53125 0.5625 0.53125 1.59375q0 0.0625 -0.015625 0.1875l-3.09375 0q0.046875 0.671875 0.390625 1.046875q0.34375 0.359375 0.875 0.359375q0.375 0 0.640625 -0.203125q0.28125 -0.203125 0.453125 -0.65625zm-2.3125 -1.125l2.3125 0q-0.046875 -0.53125 -0.265625 -0.796875q-0.328125 -0.40625 -0.875 -0.40625q-0.484375 0 -0.8125 0.328125q-0.328125 0.328125 -0.359375 0.875zm3.9179688 2.46875l0 -4.15625l0.625 0l0 0.59375q0.203125 -0.3125 0.515625 -0.5q0.328125 -0.1875 0.75 -0.1875q0.453125 0 0.75 0.203125q0.296875 0.1875 0.421875 0.53125q0.484375 -0.734375 1.28125 -0.734375q0.609375 0 0.9375 0.34375q0.34375 0.34375 0.34375 1.0625l0 2.84375l-0.703125 0l0 -2.609375q0 -0.421875 -0.078125 -0.609375q-0.0625 -0.1875 -0.25 -0.296875q-0.171875 -0.125 -0.40625 -0.125q-0.4375 0 -0.734375 0.296875q-0.28125 0.296875 -0.28125 0.9375l0 2.40625l-0.703125 0l0 -2.703125q0 -0.46875 -0.171875 -0.703125q-0.171875 -0.234375 -0.5625 -0.234375q-0.296875 0 -0.5625 0.15625q-0.25 0.15625 -0.359375 0.46875q-0.109375 0.296875 -0.109375 0.859375l0 2.15625l-0.703125 0zm6.3828125 -1.234375l0.6875 -0.109375q0.0625 0.40625 0.328125 0.640625q0.265625 0.21875 0.75 0.21875q0.484375 0 0.71875 -0.1875q0.234375 -0.203125 0.234375 -0.46875q0 -0.25 -0.203125 -0.375q-0.140625 -0.09375 -0.71875 -0.25q-0.78125 -0.1875 -1.078125 -0.328125q-0.296875 -0.140625 -0.453125 -0.390625q-0.15625 -0.265625 -0.15625 -0.5625q0 -0.28125 0.125 -0.515625q0.140625 -0.234375 0.359375 -0.390625q0.15625 -0.125 0.4375 -0.203125q0.28125 -0.09375 0.609375 -0.09375q0.484375 0 0.859375 0.140625q0.375 0.140625 0.546875 0.390625q0.171875 0.234375 0.234375 0.640625l-0.6875 0.09375q-0.046875 -0.328125 -0.265625 -0.5q-0.21875 -0.1875 -0.640625 -0.1875q-0.484375 0 -0.6875 0.171875q-0.203125 0.15625 -0.203125 0.375q0 0.125 0.078125 0.234375q0.09375 0.125 0.28125 0.1875q0.09375 0.046875 0.609375 0.1875q0.75 0.203125 1.046875 0.328125q0.296875 0.125 0.453125 0.375q0.171875 0.234375 0.171875 0.59375q0 0.34375 -0.203125 0.65625q-0.203125 0.3125 -0.59375 0.484375q-0.375 0.171875 -0.875 0.171875q-0.796875 0 -1.234375 -0.328125q-0.421875 -0.34375 -0.53125 -1.0z" fill-rule="nonzero"></path><path fill="#fff2cc" d="m503.16562 62.23394l0 0c0 -5.69981 4.6206055 -10.3204155 10.320404 -10.3204155l102.06787 0c2.7371216 0 5.3621826 1.087326 7.2976074 3.0227776c1.9354858 1.9354553 3.022766 4.5604935 3.022766 7.297638l0 41.280426c0 5.699806 -4.6206055 10.320419 -10.320374 10.320419l-102.06787 0c-5.6997986 0 -10.320404 -4.620613 -10.320404 -10.320419z" fill-rule="evenodd"></path><path stroke="#004065" stroke-width="1.0" stroke-linejoin="round" stroke-linecap="butt" d="m503.16562 62.23394l0 0c0 -5.69981 4.6206055 -10.3204155 10.320404 -10.3204155l102.06787 0c2.7371216 0 5.3621826 1.087326 7.2976074 3.0227776c1.9354858 1.9354553 3.022766 4.5604935 3.022766 7.297638l0 41.280426c0 5.699806 -4.6206055 10.320419 -10.320374 10.320419l-102.06787 0c-5.6997986 0 -10.320404 -4.620613 -10.320404 -10.320419z" fill-rule="evenodd"></path><path fill="#000000" d="m533.10004 85.55415l0 -5.734375l2.140625 0q0.65625 0 1.046875 0.1875q0.40625 0.171875 0.625 0.53125q0.234375 0.359375 0.234375 0.75q0 0.375 -0.203125 0.703125q-0.203125 0.3125 -0.609375 0.515625q0.53125 0.15625 0.796875 0.53125q0.28125 0.359375 0.28125 0.859375q0 0.390625 -0.171875 0.75q-0.15625 0.34375 -0.40625 0.53125q-0.25 0.1875 -0.640625 0.28125q-0.375 0.09375 -0.921875 0.09375l-2.171875 0zm0.75 -3.328125l1.234375 0q0.515625 0 0.734375 -0.0625q0.28125 -0.078125 0.421875 -0.28125q0.15625 -0.203125 0.15625 -0.5q0 -0.28125 -0.140625 -0.5q-0.140625 -0.21875 -0.390625 -0.296875q-0.25 -0.078125 -0.875 -0.078125l-1.140625 0l0 1.71875zm0 2.65625l1.421875 0q0.375 0 0.515625 -0.03125q0.265625 -0.046875 0.4375 -0.15625q0.1875 -0.109375 0.296875 -0.3125q0.109375 -0.21875 0.109375 -0.484375q0 -0.328125 -0.171875 -0.5625q-0.15625 -0.234375 -0.453125 -0.328125q-0.28125 -0.09375 -0.828125 -0.09375l-1.328125 0l0 1.96875zm7.2265625 0.15625q-0.390625 0.328125 -0.75 0.46875q-0.359375 0.140625 -0.78125 0.140625q-0.671875 0 -1.046875 -0.328125q-0.359375 -0.34375 -0.359375 -0.859375q0 -0.3125 0.125 -0.5625q0.140625 -0.25 0.359375 -0.390625q0.234375 -0.15625 0.515625 -0.234375q0.203125 -0.0625 0.625 -0.109375q0.859375 -0.109375 1.25 -0.25q0.015625 -0.140625 0.015625 -0.171875q0 -0.4375 -0.203125 -0.609375q-0.265625 -0.234375 -0.796875 -0.234375q-0.5 0 -0.734375 0.171875q-0.234375 0.171875 -0.359375 0.609375l-0.6875 -0.09375q0.09375 -0.4375 0.3125 -0.703125q0.21875 -0.28125 0.625 -0.421875q0.40625 -0.15625 0.9375 -0.15625q0.53125 0 0.859375 0.125q0.34375 0.125 0.5 0.328125q0.15625 0.1875 0.21875 0.46875q0.03125 0.1875 0.03125 0.65625l0 0.9375q0 0.96875 0.046875 1.234375q0.046875 0.265625 0.171875 0.5l-0.734375 0q-0.109375 -0.21875 -0.140625 -0.515625zm-0.0625 -1.5625q-0.375 0.15625 -1.140625 0.265625q-0.4375 0.0625 -0.625 0.140625q-0.171875 0.078125 -0.265625 0.234375q-0.09375 0.140625 -0.09375 0.328125q0 0.28125 0.203125 0.46875q0.21875 0.1875 0.625 0.1875q0.40625 0 0.71875 -0.171875q0.328125 -0.1875 0.46875 -0.5q0.109375 -0.234375 0.109375 -0.703125l0 -0.25zm4.5117188 0.5625l0.6875 0.078125q-0.109375 0.71875 -0.578125 1.125q-0.46875 0.40625 -1.140625 0.40625q-0.859375 0 -1.375 -0.546875q-0.515625 -0.5625 -0.515625 -1.609375q0 -0.671875 0.21875 -1.171875q0.234375 -0.5 0.6875 -0.75q0.453125 -0.265625 0.984375 -0.265625q0.671875 0 1.09375 0.34375q0.4375 0.34375 0.5625 0.96875l-0.6875 0.109375q-0.09375 -0.421875 -0.34375 -0.625q-0.25 -0.21875 -0.59375 -0.21875q-0.53125 0 -0.875 0.390625q-0.328125 0.375 -0.328125 1.203125q0 0.828125 0.3125 1.21875q0.328125 0.375 0.84375 0.375q0.421875 0 0.6875 -0.25q0.28125 -0.265625 0.359375 -0.78125zm1.296875 1.515625l0 -5.734375l0.703125 0l0 3.265625l1.671875 -1.6875l0.90625 0l-1.59375 1.546875l1.75 2.609375l-0.859375 0l-1.375 -2.125l-0.5 0.484375l0 1.640625l-0.703125 0zm6.84375 -1.34375l0.71875 0.09375q-0.171875 0.640625 -0.640625 1.0q-0.453125 0.34375 -1.1875 0.34375q-0.90625 0 -1.4375 -0.5625q-0.53125 -0.5625 -0.53125 -1.578125q0 -1.046875 0.53125 -1.625q0.546875 -0.578125 1.40625 -0.578125q0.828125 0 1.359375 0.578125q0.53125 0.5625 0.53125 1.59375q0 0.0625 -0.015625 0.1875l-3.09375 0q0.046875 0.671875 0.390625 1.046875q0.34375 0.359375 0.875 0.359375q0.375 0 0.640625 -0.203125q0.28125 -0.203125 0.453125 -0.65625zm-2.3125 -1.125l2.3125 0q-0.046875 -0.53125 -0.265625 -0.796875q-0.328125 -0.40625 -0.875 -0.40625q-0.484375 0 -0.8125 0.328125q-0.328125 0.328125 -0.359375 0.875zm3.9179688 2.46875l0 -4.15625l0.625 0l0 0.59375q0.46875 -0.6875 1.328125 -0.6875q0.375 0 0.6875 0.140625q0.3125 0.140625 0.46875 0.359375q0.15625 0.21875 0.21875 0.515625q0.046875 0.1875 0.046875 0.6875l0 2.546875l-0.703125 0l0 -2.53125q0 -0.421875 -0.09375 -0.625q-0.078125 -0.21875 -0.296875 -0.34375q-0.203125 -0.140625 -0.484375 -0.140625q-0.4375 0 -0.765625 0.296875q-0.328125 0.28125 -0.328125 1.078125l0 2.265625l-0.703125 0zm7.1367188 0l0 -0.53125q-0.390625 0.625 -1.15625 0.625q-0.5 0 -0.921875 -0.265625q-0.40625 -0.28125 -0.640625 -0.765625q-0.21875 -0.5 -0.21875 -1.140625q0 -0.609375 0.203125 -1.109375q0.203125 -0.515625 0.609375 -0.78125q0.421875 -0.28125 0.9375 -0.28125q0.375 0 0.65625 0.171875q0.296875 0.15625 0.484375 0.40625l0 -2.0625l0.703125 0l0 5.734375l-0.65625 0zm-2.21875 -2.078125q0 0.796875 0.328125 1.203125q0.34375 0.390625 0.796875 0.390625q0.46875 0 0.78125 -0.375q0.328125 -0.375 0.328125 -1.15625q0 -0.84375 -0.328125 -1.234375q-0.328125 -0.40625 -0.8125 -0.40625q-0.46875 0 -0.78125 0.390625q-0.3125 0.375 -0.3125 1.1875zm6.03125 0.234375l0.71875 -0.0625q0.046875 0.4375 0.234375 0.71875q0.1875 0.265625 0.578125 0.4375q0.390625 0.171875 0.875 0.171875q0.4375 0 0.765625 -0.125q0.328125 -0.140625 0.484375 -0.359375q0.171875 -0.234375 0.171875 -0.5q0 -0.265625 -0.15625 -0.46875q-0.15625 -0.203125 -0.515625 -0.328125q-0.234375 -0.09375 -1.03125 -0.28125q-0.78125 -0.1875 -1.09375 -0.359375q-0.40625 -0.21875 -0.609375 -0.53125q-0.203125 -0.328125 -0.203125 -0.71875q0 -0.4375 0.25 -0.8125q0.25 -0.375 0.71875 -0.5625q0.46875 -0.203125 1.046875 -0.203125q0.640625 0 1.125 0.203125q0.484375 0.203125 0.75 0.609375q0.265625 0.390625 0.28125 0.90625l-0.734375 0.046875q-0.046875 -0.546875 -0.390625 -0.8125q-0.34375 -0.28125 -1.0 -0.28125q-0.6875 0 -1.0 0.25q-0.3125 0.25 -0.3125 0.609375q0 0.3125 0.21875 0.5q0.21875 0.203125 1.140625 0.421875q0.921875 0.203125 1.265625 0.359375q0.5 0.234375 0.734375 0.59375q0.25 0.34375 0.25 0.796875q0 0.46875 -0.265625 0.875q-0.265625 0.390625 -0.75 0.625q-0.484375 0.21875 -1.109375 0.21875q-0.765625 0 -1.296875 -0.21875q-0.53125 -0.234375 -0.828125 -0.6875q-0.296875 -0.453125 -0.3125 -1.03125zm5.4765625 3.4375l-0.078125 -0.65625q0.234375 0.0625 0.40625 0.0625q0.234375 0 0.375 -0.078125q0.140625 -0.078125 0.21875 -0.21875q0.078125 -0.109375 0.21875 -0.515625q0.015625 -0.0625 0.0625 -0.171875l-1.578125 -4.171875l0.765625 0l0.859375 2.40625q0.171875 0.453125 0.296875 0.96875q0.125 -0.484375 0.296875 -0.953125l0.890625 -2.421875l0.703125 0l-1.578125 4.234375q-0.265625 0.671875 -0.40625 0.9375q-0.1875 0.34375 -0.4375 0.5q-0.234375 0.171875 -0.5625 0.171875q-0.203125 0 -0.453125 -0.09375zm3.75 -2.828125l0.6875 -0.109375q0.0625 0.40625 0.328125 0.640625q0.265625 0.21875 0.75 0.21875q0.484375 0 0.71875 -0.1875q0.234375 -0.203125 0.234375 -0.46875q0 -0.25 -0.203125 -0.375q-0.140625 -0.09375 -0.71875 -0.25q-0.78125 -0.1875 -1.078125 -0.328125q-0.296875 -0.140625 -0.453125 -0.390625q-0.15625 -0.265625 -0.15625 -0.5625q0 -0.28125 0.125 -0.515625q0.140625 -0.234375 0.359375 -0.390625q0.15625 -0.125 0.4375 -0.203125q0.28125 -0.09375 0.609375 -0.09375q0.484375 0 0.859375 0.140625q0.375 0.140625 0.546875 0.390625q0.171875 0.234375 0.234375 0.640625l-0.6875 0.09375q-0.046875 -0.328125 -0.265625 -0.5q-0.21875 -0.1875 -0.640625 -0.1875q-0.484375 0 -0.6875 0.171875q-0.203125 0.15625 -0.203125 0.375q0 0.125 0.078125 0.234375q0.09375 0.125 0.28125 0.1875q0.09375 0.046875 0.609375 0.1875q0.75 0.203125 1.046875 0.328125q0.296875 0.125 0.453125 0.375q0.171875 0.234375 0.171875 0.59375q0 0.34375 -0.203125 0.65625q-0.203125 0.3125 -0.59375 0.484375q-0.375 0.171875 -0.875 0.171875q-0.796875 0 -1.234375 -0.328125q-0.421875 -0.34375 -0.53125 -1.0zm5.8125 0.609375l0.109375 0.609375q-0.296875 0.078125 -0.53125 0.078125q-0.390625 0 -0.609375 -0.125q-0.203125 -0.125 -0.296875 -0.3125q-0.078125 -0.203125 -0.078125 -0.84375l0 -2.390625l-0.515625 0l0 -0.546875l0.515625 0l0 -1.015625l0.703125 -0.421875l0 1.4375l0.703125 0l0 0.546875l-0.703125 0l0 2.4375q0 0.296875 0.03125 0.390625q0.046875 0.078125 0.125 0.125q0.078125 0.046875 0.234375 0.046875q0.125 0 0.3125 -0.015625zm3.5351562 -0.71875l0.71875 0.09375q-0.171875 0.640625 -0.640625 1.0q-0.453125 0.34375 -1.1875 0.34375q-0.90625 0 -1.4375 -0.5625q-0.53125 -0.5625 -0.53125 -1.578125q0 -1.046875 0.53125 -1.625q0.546875 -0.578125 1.40625 -0.578125q0.828125 0 1.359375 0.578125q0.53125 0.5625 0.53125 1.59375q0 0.0625 -0.015625 0.1875l-3.09375 0q0.046875 0.671875 0.390625 1.046875q0.34375 0.359375 0.875 0.359375q0.375 0 0.640625 -0.203125q0.28125 -0.203125 0.453125 -0.65625zm-2.3125 -1.125l2.3125 0q-0.046875 -0.53125 -0.265625 -0.796875q-0.328125 -0.40625 -0.875 -0.40625q-0.484375 0 -0.8125 0.328125q-0.328125 0.328125 -0.359375 0.875zm3.9179688 2.46875l0 -4.15625l0.625 0l0 0.59375q0.203125 -0.3125 0.515625 -0.5q0.328125 -0.1875 0.75 -0.1875q0.453125 0 0.75 0.203125q0.296875 0.1875 0.421875 0.53125q0.484375 -0.734375 1.28125 -0.734375q0.609375 0 0.9375 0.34375q0.34375 0.34375 0.34375 1.0625l0 2.84375l-0.703125 0l0 -2.609375q0 -0.421875 -0.078125 -0.609375q-0.0625 -0.1875 -0.25 -0.296875q-0.171875 -0.125 -0.40625 -0.125q-0.4375 0 -0.734375 0.296875q-0.28125 0.296875 -0.28125 0.9375l0 2.40625l-0.703125 0l0 -2.703125q0 -0.46875 -0.171875 -0.703125q-0.171875 -0.234375 -0.5625 -0.234375q-0.296875 0 -0.5625 0.15625q-0.25 0.15625 -0.359375 0.46875q-0.109375 0.296875 -0.109375 0.859375l0 2.15625l-0.703125 0zm6.3828125 -1.234375l0.6875 -0.109375q0.0625 0.40625 0.328125 0.640625q0.265625 0.21875 0.75 0.21875q0.484375 0 0.71875 -0.1875q0.234375 -0.203125 0.234375 -0.46875q0 -0.25 -0.203125 -0.375q-0.140625 -0.09375 -0.71875 -0.25q-0.78125 -0.1875 -1.078125 -0.328125q-0.296875 -0.140625 -0.453125 -0.390625q-0.15625 -0.265625 -0.15625 -0.5625q0 -0.28125 0.125 -0.515625q0.140625 -0.234375 0.359375 -0.390625q0.15625 -0.125 0.4375 -0.203125q0.28125 -0.09375 0.609375 -0.09375q0.484375 0 0.859375 0.140625q0.375 0.140625 0.546875 0.390625q0.171875 0.234375 0.234375 0.640625l-0.6875 0.09375q-0.046875 -0.328125 -0.265625 -0.5q-0.21875 -0.1875 -0.640625 -0.1875q-0.484375 0 -0.6875 0.171875q-0.203125 0.15625 -0.203125 0.375q0 0.125 0.078125 0.234375q0.09375 0.125 0.28125 0.1875q0.09375 0.046875 0.609375 0.1875q0.75 0.203125 1.046875 0.328125q0.296875 0.125 0.453125 0.375q0.171875 0.234375 0.171875 0.59375q0 0.34375 -0.203125 0.65625q-0.203125 0.3125 -0.59375 0.484375q-0.375 0.171875 -0.875 0.171875q-0.796875 0 -1.234375 -0.328125q-0.421875 -0.34375 -0.53125 -1.0z" fill-rule="nonzero"></path><path fill="#fff2cc" d="m508.67892 67.950615l0 0c0 -5.69981 4.620636 -10.320419 10.320404 -10.320419l102.06787 0c2.7371216 0 5.3621826 1.087326 7.2976074 3.0227814c1.9354248 1.9354515 3.022766 4.5604935 3.022766 7.297638l0 41.280426c0 5.699806 -4.6206055 10.320412 -10.320374 10.320412l-102.06787 0c-5.699768 0 -10.320404 -4.6206055 -10.320404 -10.320412z" fill-rule="evenodd"></path><path stroke="#004065" stroke-width="1.0" stroke-linejoin="round" stroke-linecap="butt" d="m508.67892 67.950615l0 0c0 -5.69981 4.620636 -10.320419 10.320404 -10.320419l102.06787 0c2.7371216 0 5.3621826 1.087326 7.2976074 3.0227814c1.9354248 1.9354515 3.022766 4.5604935 3.022766 7.297638l0 41.280426c0 5.699806 -4.6206055 10.320412 -10.320374 10.320412l-102.06787 0c-5.699768 0 -10.320404 -4.6206055 -10.320404 -10.320412z" fill-rule="evenodd"></path><path fill="#000000" d="m538.61334 91.27083l0 -5.734375l2.140625 0q0.65625 0 1.046875 0.1875q0.40625 0.171875 0.625 0.53125q0.234375 0.359375 0.234375 0.75q0 0.375 -0.203125 0.703125q-0.203125 0.3125 -0.609375 0.515625q0.53125 0.15625 0.796875 0.53125q0.28125 0.359375 0.28125 0.859375q0 0.390625 -0.171875 0.75q-0.15625 0.34375 -0.40625 0.53125q-0.25 0.1875 -0.640625 0.28125q-0.375 0.09375 -0.921875 0.09375l-2.171875 0zm0.75 -3.328125l1.234375 0q0.515625 0 0.734375 -0.0625q0.28125 -0.078125 0.421875 -0.28125q0.15625 -0.203125 0.15625 -0.5q0 -0.28125 -0.140625 -0.5q-0.140625 -0.21875 -0.390625 -0.296875q-0.25 -0.078125 -0.875 -0.078125l-1.140625 0l0 1.71875zm0 2.65625l1.421875 0q0.375 0 0.515625 -0.03125q0.265625 -0.046875 0.4375 -0.15625q0.1875 -0.109375 0.296875 -0.3125q0.109375 -0.21875 0.109375 -0.484375q0 -0.328125 -0.171875 -0.5625q-0.15625 -0.234375 -0.453125 -0.328125q-0.28125 -0.09375 -0.828125 -0.09375l-1.328125 0l0 1.96875zm7.2265625 0.15625q-0.390625 0.328125 -0.75 0.46875q-0.359375 0.140625 -0.78125 0.140625q-0.671875 0 -1.046875 -0.328125q-0.359375 -0.34375 -0.359375 -0.859375q0 -0.3125 0.125 -0.5625q0.140625 -0.25 0.359375 -0.390625q0.234375 -0.15625 0.515625 -0.234375q0.203125 -0.0625 0.625 -0.109375q0.859375 -0.109375 1.25 -0.25q0.015625 -0.140625 0.015625 -0.171875q0 -0.4375 -0.203125 -0.609375q-0.265625 -0.234375 -0.796875 -0.234375q-0.5 0 -0.734375 0.171875q-0.234375 0.171875 -0.359375 0.609375l-0.6875 -0.09375q0.09375 -0.4375 0.3125 -0.703125q0.21875 -0.28125 0.625 -0.421875q0.40625 -0.15625 0.9375 -0.15625q0.53125 0 0.859375 0.125q0.34375 0.125 0.5 0.328125q0.15625 0.1875 0.21875 0.46875q0.03125 0.1875 0.03125 0.65625l0 0.9375q0 0.96875 0.046875 1.234375q0.046875 0.265625 0.171875 0.5l-0.734375 0q-0.109375 -0.21875 -0.140625 -0.515625zm-0.0625 -1.5625q-0.375 0.15625 -1.140625 0.265625q-0.4375 0.0625 -0.625 0.140625q-0.171875 0.078125 -0.265625 0.234375q-0.09375 0.140625 -0.09375 0.328125q0 0.28125 0.203125 0.46875q0.21875 0.1875 0.625 0.1875q0.40625 0 0.71875 -0.171875q0.328125 -0.1875 0.46875 -0.5q0.109375 -0.234375 0.109375 -0.703125l0 -0.25zm4.5117188 0.5625l0.6875 0.078125q-0.109375 0.71875 -0.578125 1.125q-0.46875 0.40625 -1.140625 0.40625q-0.859375 0 -1.375 -0.546875q-0.515625 -0.5625 -0.515625 -1.609375q0 -0.671875 0.21875 -1.171875q0.234375 -0.5 0.6875 -0.75q0.453125 -0.265625 0.984375 -0.265625q0.671875 0 1.09375 0.34375q0.4375 0.34375 0.5625 0.96875l-0.6875 0.109375q-0.09375 -0.421875 -0.34375 -0.625q-0.25 -0.21875 -0.59375 -0.21875q-0.53125 0 -0.875 0.390625q-0.328125 0.375 -0.328125 1.203125q0 0.828125 0.3125 1.21875q0.328125 0.375 0.84375 0.375q0.421875 0 0.6875 -0.25q0.28125 -0.265625 0.359375 -0.78125zm1.296875 1.515625l0 -5.734375l0.703125 0l0 3.265625l1.671875 -1.6875l0.90625 0l-1.59375 1.546875l1.75 2.609375l-0.859375 0l-1.375 -2.125l-0.5 0.484375l0 1.640625l-0.703125 0zm6.84375 -1.34375l0.71875 0.09375q-0.171875 0.640625 -0.640625 1.0q-0.453125 0.34375 -1.1875 0.34375q-0.90625 0 -1.4375 -0.5625q-0.53125 -0.5625 -0.53125 -1.578125q0 -1.046875 0.53125 -1.625q0.546875 -0.578125 1.40625 -0.578125q0.828125 0 1.359375 0.578125q0.53125 0.5625 0.53125 1.59375q0 0.0625 -0.015625 0.1875l-3.09375 0q0.046875 0.671875 0.390625 1.046875q0.34375 0.359375 0.875 0.359375q0.375 0 0.640625 -0.203125q0.28125 -0.203125 0.453125 -0.65625zm-2.3125 -1.125l2.3125 0q-0.046875 -0.53125 -0.265625 -0.796875q-0.328125 -0.40625 -0.875 -0.40625q-0.484375 0 -0.8125 0.328125q-0.328125 0.328125 -0.359375 0.875zm3.9179688 2.46875l0 -4.15625l0.625 0l0 0.59375q0.46875 -0.6875 1.328125 -0.6875q0.375 0 0.6875 0.140625q0.3125 0.140625 0.46875 0.359375q0.15625 0.21875 0.21875 0.515625q0.046875 0.1875 0.046875 0.6875l0 2.546875l-0.703125 0l0 -2.53125q0 -0.421875 -0.09375 -0.625q-0.078125 -0.21875 -0.296875 -0.34375q-0.203125 -0.140625 -0.484375 -0.140625q-0.4375 0 -0.765625 0.296875q-0.328125 0.28125 -0.328125 1.078125l0 2.265625l-0.703125 0zm7.1367188 0l0 -0.53125q-0.390625 0.625 -1.15625 0.625q-0.5 0 -0.921875 -0.265625q-0.40625 -0.28125 -0.640625 -0.765625q-0.21875 -0.5 -0.21875 -1.140625q0 -0.609375 0.203125 -1.109375q0.203125 -0.515625 0.609375 -0.78125q0.421875 -0.28125 0.9375 -0.28125q0.375 0 0.65625 0.171875q0.296875 0.15625 0.484375 0.40625l0 -2.0625l0.703125 0l0 5.734375l-0.65625 0zm-2.21875 -2.078125q0 0.796875 0.328125 1.203125q0.34375 0.390625 0.796875 0.390625q0.46875 0 0.78125 -0.375q0.328125 -0.375 0.328125 -1.15625q0 -0.84375 -0.328125 -1.234375q-0.328125 -0.40625 -0.8125 -0.40625q-0.46875 0 -0.78125 0.390625q-0.3125 0.375 -0.3125 1.1875zm6.03125 0.234375l0.71875 -0.0625q0.046875 0.4375 0.234375 0.71875q0.1875 0.265625 0.578125 0.4375q0.390625 0.171875 0.875 0.171875q0.4375 0 0.765625 -0.125q0.328125 -0.140625 0.484375 -0.359375q0.171875 -0.234375 0.171875 -0.5q0 -0.265625 -0.15625 -0.46875q-0.15625 -0.203125 -0.515625 -0.328125q-0.234375 -0.09375 -1.03125 -0.28125q-0.78125 -0.1875 -1.09375 -0.359375q-0.40625 -0.21875 -0.609375 -0.53125q-0.203125 -0.328125 -0.203125 -0.71875q0 -0.4375 0.25 -0.8125q0.25 -0.375 0.71875 -0.5625q0.46875 -0.203125 1.046875 -0.203125q0.640625 0 1.125 0.203125q0.484375 0.203125 0.75 0.609375q0.265625 0.390625 0.28125 0.90625l-0.734375 0.046875q-0.046875 -0.546875 -0.390625 -0.8125q-0.34375 -0.28125 -1.0 -0.28125q-0.6875 0 -1.0 0.25q-0.3125 0.25 -0.3125 0.609375q0 0.3125 0.21875 0.5q0.21875 0.203125 1.140625 0.421875q0.921875 0.203125 1.265625 0.359375q0.5 0.234375 0.734375 0.59375q0.25 0.34375 0.25 0.796875q0 0.46875 -0.265625 0.875q-0.265625 0.390625 -0.75 0.625q-0.484375 0.21875 -1.109375 0.21875q-0.765625 0 -1.296875 -0.21875q-0.53125 -0.234375 -0.828125 -0.6875q-0.296875 -0.453125 -0.3125 -1.03125zm5.4765625 3.4375l-0.078125 -0.65625q0.234375 0.0625 0.40625 0.0625q0.234375 0 0.375 -0.078125q0.140625 -0.078125 0.21875 -0.21875q0.078125 -0.109375 0.21875 -0.515625q0.015625 -0.0625 0.0625 -0.171875l-1.578125 -4.171875l0.765625 0l0.859375 2.40625q0.171875 0.453125 0.296875 0.96875q0.125 -0.484375 0.296875 -0.953125l0.890625 -2.421875l0.703125 0l-1.578125 4.234375q-0.265625 0.671875 -0.40625 0.9375q-0.1875 0.34375 -0.4375 0.5q-0.234375 0.171875 -0.5625 0.171875q-0.203125 0 -0.453125 -0.09375zm3.75 -2.828125l0.6875 -0.109375q0.0625 0.40625 0.328125 0.640625q0.265625 0.21875 0.75 0.21875q0.484375 0 0.71875 -0.1875q0.234375 -0.203125 0.234375 -0.46875q0 -0.25 -0.203125 -0.375q-0.140625 -0.09375 -0.71875 -0.25q-0.78125 -0.1875 -1.078125 -0.328125q-0.296875 -0.140625 -0.453125 -0.390625q-0.15625 -0.265625 -0.15625 -0.5625q0 -0.28125 0.125 -0.515625q0.140625 -0.234375 0.359375 -0.390625q0.15625 -0.125 0.4375 -0.203125q0.28125 -0.09375 0.609375 -0.09375q0.484375 0 0.859375 0.140625q0.375 0.140625 0.546875 0.390625q0.171875 0.234375 0.234375 0.640625l-0.6875 0.09375q-0.046875 -0.328125 -0.265625 -0.5q-0.21875 -0.1875 -0.640625 -0.1875q-0.484375 0 -0.6875 0.171875q-0.203125 0.15625 -0.203125 0.375q0 0.125 0.078125 0.234375q0.09375 0.125 0.28125 0.1875q0.09375 0.046875 0.609375 0.1875q0.75 0.203125 1.046875 0.328125q0.296875 0.125 0.453125 0.375q0.171875 0.234375 0.171875 0.59375q0 0.34375 -0.203125 0.65625q-0.203125 0.3125 -0.59375 0.484375q-0.375 0.171875 -0.875 0.171875q-0.796875 0 -1.234375 -0.328125q-0.421875 -0.34375 -0.53125 -1.0zm5.8125 0.609375l0.109375 0.609375q-0.296875 0.078125 -0.53125 0.078125q-0.390625 0 -0.609375 -0.125q-0.203125 -0.125 -0.296875 -0.3125q-0.078125 -0.203125 -0.078125 -0.84375l0 -2.390625l-0.515625 0l0 -0.546875l0.515625 0l0 -1.015625l0.703125 -0.421875l0 1.4375l0.703125 0l0 0.546875l-0.703125 0l0 2.4375q0 0.296875 0.03125 0.390625q0.046875 0.078125 0.125 0.125q0.078125 0.046875 0.234375 0.046875q0.125 0 0.3125 -0.015625zm3.5351562 -0.71875l0.71875 0.09375q-0.171875 0.640625 -0.640625 1.0q-0.453125 0.34375 -1.1875 0.34375q-0.90625 0 -1.4375 -0.5625q-0.53125 -0.5625 -0.53125 -1.578125q0 -1.046875 0.53125 -1.625q0.546875 -0.578125 1.40625 -0.578125q0.828125 0 1.359375 0.578125q0.53125 0.5625 0.53125 1.59375q0 0.0625 -0.015625 0.1875l-3.09375 0q0.046875 0.671875 0.390625 1.046875q0.34375 0.359375 0.875 0.359375q0.375 0 0.640625 -0.203125q0.28125 -0.203125 0.453125 -0.65625zm-2.3125 -1.125l2.3125 0q-0.046875 -0.53125 -0.265625 -0.796875q-0.328125 -0.40625 -0.875 -0.40625q-0.484375 0 -0.8125 0.328125q-0.328125 0.328125 -0.359375 0.875zm3.9179688 2.46875l0 -4.15625l0.625 0l0 0.59375q0.203125 -0.3125 0.515625 -0.5q0.328125 -0.1875 0.75 -0.1875q0.453125 0 0.75 0.203125q0.296875 0.1875 0.421875 0.53125q0.484375 -0.734375 1.28125 -0.734375q0.609375 0 0.9375 0.34375q0.34375 0.34375 0.34375 1.0625l0 2.84375l-0.703125 0l0 -2.609375q0 -0.421875 -0.078125 -0.609375q-0.0625 -0.1875 -0.25 -0.296875q-0.171875 -0.125 -0.40625 -0.125q-0.4375 0 -0.734375 0.296875q-0.28125 0.296875 -0.28125 0.9375l0 2.40625l-0.703125 0l0 -2.703125q0 -0.46875 -0.171875 -0.703125q-0.171875 -0.234375 -0.5625 -0.234375q-0.296875 0 -0.5625 0.15625q-0.25 0.15625 -0.359375 0.46875q-0.109375 0.296875 -0.109375 0.859375l0 2.15625l-0.703125 0zm6.3828125 -1.234375l0.6875 -0.109375q0.0625 0.40625 0.328125 0.640625q0.265625 0.21875 0.75 0.21875q0.484375 0 0.71875 -0.1875q0.234375 -0.203125 0.234375 -0.46875q0 -0.25 -0.203125 -0.375q-0.140625 -0.09375 -0.71875 -0.25q-0.78125 -0.1875 -1.078125 -0.328125q-0.296875 -0.140625 -0.453125 -0.390625q-0.15625 -0.265625 -0.15625 -0.5625q0 -0.28125 0.125 -0.515625q0.140625 -0.234375 0.359375 -0.390625q0.15625 -0.125 0.4375 -0.203125q0.28125 -0.09375 0.609375 -0.09375q0.484375 0 0.859375 0.140625q0.375 0.140625 0.546875 0.390625q0.171875 0.234375 0.234375 0.640625l-0.6875 0.09375q-0.046875 -0.328125 -0.265625 -0.5q-0.21875 -0.1875 -0.640625 -0.1875q-0.484375 0 -0.6875 0.171875q-0.203125 0.15625 -0.203125 0.375q0 0.125 0.078125 0.234375q0.09375 0.125 0.28125 0.1875q0.09375 0.046875 0.609375 0.1875q0.75 0.203125 1.046875 0.328125q0.296875 0.125 0.453125 0.375q0.171875 0.234375 0.171875 0.59375q0 0.34375 -0.203125 0.65625q-0.203125 0.3125 -0.59375 0.484375q-0.375 0.171875 -0.875 0.171875q-0.796875 0 -1.234375 -0.328125q-0.421875 -0.34375 -0.53125 -1.0z" fill-rule="nonzero"></path><path fill="#fff2cc" d="m514.1922 73.66728l0 0c0 -5.699806 4.6206055 -10.320412 10.320435 -10.320412l102.06781 0c2.7371826 0 5.3621826 1.087326 7.2976685 3.0227814c1.9354248 1.9354477 3.022766 4.560486 3.022766 7.2976303l0 41.280434c0 5.699806 -4.6206055 10.320412 -10.320435 10.320412l-102.06781 0c-5.699829 0 -10.320435 -4.6206055 -10.320435 -10.320412z" fill-rule="evenodd"></path><path stroke="#004065" stroke-width="1.0" stroke-linejoin="round" stroke-linecap="butt" d="m514.1922 73.66728l0 0c0 -5.699806 4.6206055 -10.320412 10.320435 -10.320412l102.06781 0c2.7371826 0 5.3621826 1.087326 7.2976685 3.0227814c1.9354248 1.9354477 3.022766 4.560486 3.022766 7.2976303l0 41.280434c0 5.699806 -4.6206055 10.320412 -10.320435 10.320412l-102.06781 0c-5.699829 0 -10.320435 -4.6206055 -10.320435 -10.320412z" fill-rule="evenodd"></path><path fill="#000000" d="m544.12665 96.987495l0 -5.734375l2.140625 0q0.65625 0 1.046875 0.1875q0.40625 0.171875 0.625 0.53125q0.234375 0.359375 0.234375 0.75q0 0.375 -0.203125 0.703125q-0.203125 0.3125 -0.609375 0.515625q0.53125 0.15625 0.796875 0.53125q0.28125 0.359375 0.28125 0.859375q0 0.390625 -0.171875 0.75q-0.15625 0.34375 -0.40625 0.53125q-0.25 0.1875 -0.640625 0.28125q-0.375 0.09375 -0.921875 0.09375l-2.171875 0zm0.75 -3.328125l1.234375 0q0.515625 0 0.734375 -0.0625q0.28125 -0.078125 0.421875 -0.28125q0.15625 -0.203125 0.15625 -0.5q0 -0.28125 -0.140625 -0.5q-0.140625 -0.21875 -0.390625 -0.296875q-0.25 -0.078125 -0.875 -0.078125l-1.140625 0l0 1.71875zm0 2.65625l1.421875 0q0.375 0 0.515625 -0.03125q0.265625 -0.046875 0.4375 -0.15625q0.1875 -0.109375 0.296875 -0.3125q0.109375 -0.21875 0.109375 -0.484375q0 -0.328125 -0.171875 -0.5625q-0.15625 -0.234375 -0.453125 -0.328125q-0.28125 -0.09375 -0.828125 -0.09375l-1.328125 0l0 1.96875zm7.2265625 0.15625q-0.390625 0.328125 -0.75 0.46875q-0.359375 0.140625 -0.78125 0.140625q-0.671875 0 -1.046875 -0.328125q-0.359375 -0.34375 -0.359375 -0.859375q0 -0.3125 0.125 -0.5625q0.140625 -0.25 0.359375 -0.390625q0.234375 -0.15625 0.515625 -0.234375q0.203125 -0.0625 0.625 -0.109375q0.859375 -0.109375 1.25 -0.25q0.015625 -0.140625 0.015625 -0.171875q0 -0.4375 -0.203125 -0.609375q-0.265625 -0.234375 -0.796875 -0.234375q-0.5 0 -0.734375 0.171875q-0.234375 0.171875 -0.359375 0.609375l-0.6875 -0.09375q0.09375 -0.4375 0.3125 -0.703125q0.21875 -0.28125 0.625 -0.421875q0.40625 -0.15625 0.9375 -0.15625q0.53125 0 0.859375 0.125q0.34375 0.125 0.5 0.328125q0.15625 0.1875 0.21875 0.46875q0.03125 0.1875 0.03125 0.65625l0 0.9375q0 0.96875 0.046875 1.234375q0.046875 0.265625 0.171875 0.5l-0.734375 0q-0.109375 -0.21875 -0.140625 -0.515625zm-0.0625 -1.5625q-0.375 0.15625 -1.140625 0.265625q-0.4375 0.0625 -0.625 0.140625q-0.171875 0.078125 -0.265625 0.234375q-0.09375 0.140625 -0.09375 0.328125q0 0.28125 0.203125 0.46875q0.21875 0.1875 0.625 0.1875q0.40625 0 0.71875 -0.171875q0.328125 -0.1875 0.46875 -0.5q0.109375 -0.234375 0.109375 -0.703125l0 -0.25zm4.5117188 0.5625l0.6875 0.078125q-0.109375 0.71875 -0.578125 1.125q-0.46875 0.40625 -1.140625 0.40625q-0.859375 0 -1.375 -0.546875q-0.515625 -0.5625 -0.515625 -1.609375q0 -0.671875 0.21875 -1.171875q0.234375 -0.5 0.6875 -0.75q0.453125 -0.265625 0.984375 -0.265625q0.671875 0 1.09375 0.34375q0.4375 0.34375 0.5625 0.96875l-0.6875 0.109375q-0.09375 -0.421875 -0.34375 -0.625q-0.25 -0.21875 -0.59375 -0.21875q-0.53125 0 -0.875 0.390625q-0.328125 0.375 -0.328125 1.203125q0 0.828125 0.3125 1.21875q0.328125 0.375 0.84375 0.375q0.421875 0 0.6875 -0.25q0.28125 -0.265625 0.359375 -0.78125zm1.296875 1.515625l0 -5.734375l0.703125 0l0 3.265625l1.671875 -1.6875l0.90625 0l-1.59375 1.546875l1.75 2.609375l-0.859375 0l-1.375 -2.125l-0.5 0.484375l0 1.640625l-0.703125 0zm6.84375 -1.34375l0.71875 0.09375q-0.171875 0.640625 -0.640625 1.0q-0.453125 0.34375 -1.1875 0.34375q-0.90625 0 -1.4375 -0.5625q-0.53125 -0.5625 -0.53125 -1.578125q0 -1.046875 0.53125 -1.625q0.546875 -0.578125 1.40625 -0.578125q0.828125 0 1.359375 0.578125q0.53125 0.5625 0.53125 1.59375q0 0.0625 -0.015625 0.1875l-3.09375 0q0.046875 0.671875 0.390625 1.046875q0.34375 0.359375 0.875 0.359375q0.375 0 0.640625 -0.203125q0.28125 -0.203125 0.453125 -0.65625zm-2.3125 -1.125l2.3125 0q-0.046875 -0.53125 -0.265625 -0.796875q-0.328125 -0.40625 -0.875 -0.40625q-0.484375 0 -0.8125 0.328125q-0.328125 0.328125 -0.359375 0.875zm3.9179688 2.46875l0 -4.15625l0.625 0l0 0.59375q0.46875 -0.6875 1.328125 -0.6875q0.375 0 0.6875 0.140625q0.3125 0.140625 0.46875 0.359375q0.15625 0.21875 0.21875 0.515625q0.046875 0.1875 0.046875 0.6875l0 2.546875l-0.703125 0l0 -2.53125q0 -0.421875 -0.09375 -0.625q-0.078125 -0.21875 -0.296875 -0.34375q-0.203125 -0.140625 -0.484375 -0.140625q-0.4375 0 -0.765625 0.296875q-0.328125 0.28125 -0.328125 1.078125l0 2.265625l-0.703125 0zm7.1367188 0l0 -0.53125q-0.390625 0.625 -1.15625 0.625q-0.5 0 -0.921875 -0.265625q-0.40625 -0.28125 -0.640625 -0.765625q-0.21875 -0.5 -0.21875 -1.140625q0 -0.609375 0.203125 -1.109375q0.203125 -0.515625 0.609375 -0.78125q0.421875 -0.28125 0.9375 -0.28125q0.375 0 0.65625 0.171875q0.296875 0.15625 0.484375 0.40625l0 -2.0625l0.703125 0l0 5.734375l-0.65625 0zm-2.21875 -2.078125q0 0.796875 0.328125 1.203125q0.34375 0.390625 0.796875 0.390625q0.46875 0 0.78125 -0.375q0.328125 -0.375 0.328125 -1.15625q0 -0.84375 -0.328125 -1.234375q-0.328125 -0.40625 -0.8125 -0.40625q-0.46875 0 -0.78125 0.390625q-0.3125 0.375 -0.3125 1.1875zm6.03125 0.234375l0.71875 -0.0625q0.046875 0.4375 0.234375 0.71875q0.1875 0.265625 0.578125 0.4375q0.390625 0.171875 0.875 0.171875q0.4375 0 0.765625 -0.125q0.328125 -0.140625 0.484375 -0.359375q0.171875 -0.234375 0.171875 -0.5q0 -0.265625 -0.15625 -0.46875q-0.15625 -0.203125 -0.515625 -0.328125q-0.234375 -0.09375 -1.03125 -0.28125q-0.78125 -0.1875 -1.09375 -0.359375q-0.40625 -0.21875 -0.609375 -0.53125q-0.203125 -0.328125 -0.203125 -0.71875q0 -0.4375 0.25 -0.8125q0.25 -0.375 0.71875 -0.5625q0.46875 -0.203125 1.046875 -0.203125q0.640625 0 1.125 0.203125q0.484375 0.203125 0.75 0.609375q0.265625 0.390625 0.28125 0.90625l-0.734375 0.046875q-0.046875 -0.546875 -0.390625 -0.8125q-0.34375 -0.28125 -1.0 -0.28125q-0.6875 0 -1.0 0.25q-0.3125 0.25 -0.3125 0.609375q0 0.3125 0.21875 0.5q0.21875 0.203125 1.140625 0.421875q0.921875 0.203125 1.265625 0.359375q0.5 0.234375 0.734375 0.59375q0.25 0.34375 0.25 0.796875q0 0.46875 -0.265625 0.875q-0.265625 0.390625 -0.75 0.625q-0.484375 0.21875 -1.109375 0.21875q-0.765625 0 -1.296875 -0.21875q-0.53125 -0.234375 -0.828125 -0.6875q-0.296875 -0.453125 -0.3125 -1.03125zm5.4765625 3.4375l-0.078125 -0.65625q0.234375 0.0625 0.40625 0.0625q0.234375 0 0.375 -0.078125q0.140625 -0.078125 0.21875 -0.21875q0.078125 -0.109375 0.21875 -0.515625q0.015625 -0.0625 0.0625 -0.171875l-1.578125 -4.171875l0.765625 0l0.859375 2.40625q0.171875 0.453125 0.296875 0.96875q0.125 -0.484375 0.296875 -0.953125l0.890625 -2.421875l0.703125 0l-1.578125 4.234375q-0.265625 0.671875 -0.40625 0.9375q-0.1875 0.34375 -0.4375 0.5q-0.234375 0.171875 -0.5625 0.171875q-0.203125 0 -0.453125 -0.09375zm3.75 -2.828125l0.6875 -0.109375q0.0625 0.40625 0.328125 0.640625q0.265625 0.21875 0.75 0.21875q0.484375 0 0.71875 -0.1875q0.234375 -0.203125 0.234375 -0.46875q0 -0.25 -0.203125 -0.375q-0.140625 -0.09375 -0.71875 -0.25q-0.78125 -0.1875 -1.078125 -0.328125q-0.296875 -0.140625 -0.453125 -0.390625q-0.15625 -0.265625 -0.15625 -0.5625q0 -0.28125 0.125 -0.515625q0.140625 -0.234375 0.359375 -0.390625q0.15625 -0.125 0.4375 -0.203125q0.28125 -0.09375 0.609375 -0.09375q0.484375 0 0.859375 0.140625q0.375 0.140625 0.546875 0.390625q0.171875 0.234375 0.234375 0.640625l-0.6875 0.09375q-0.046875 -0.328125 -0.265625 -0.5q-0.21875 -0.1875 -0.640625 -0.1875q-0.484375 0 -0.6875 0.171875q-0.203125 0.15625 -0.203125 0.375q0 0.125 0.078125 0.234375q0.09375 0.125 0.28125 0.1875q0.09375 0.046875 0.609375 0.1875q0.75 0.203125 1.046875 0.328125q0.296875 0.125 0.453125 0.375q0.171875 0.234375 0.171875 0.59375q0 0.34375 -0.203125 0.65625q-0.203125 0.3125 -0.59375 0.484375q-0.375 0.171875 -0.875 0.171875q-0.796875 0 -1.234375 -0.328125q-0.421875 -0.34375 -0.53125 -1.0zm5.8125 0.609375l0.109375 0.609375q-0.296875 0.078125 -0.53125 0.078125q-0.390625 0 -0.609375 -0.125q-0.203125 -0.125 -0.296875 -0.3125q-0.078125 -0.203125 -0.078125 -0.84375l0 -2.390625l-0.515625 0l0 -0.546875l0.515625 0l0 -1.015625l0.703125 -0.421875l0 1.4375l0.703125 0l0 0.546875l-0.703125 0l0 2.4375q0 0.296875 0.03125 0.390625q0.046875 0.078125 0.125 0.125q0.078125 0.046875 0.234375 0.046875q0.125 0 0.3125 -0.015625zm3.5351562 -0.71875l0.71875 0.09375q-0.171875 0.640625 -0.640625 1.0q-0.453125 0.34375 -1.1875 0.34375q-0.90625 0 -1.4375 -0.5625q-0.53125 -0.5625 -0.53125 -1.578125q0 -1.046875 0.53125 -1.625q0.546875 -0.578125 1.40625 -0.578125q0.828125 0 1.359375 0.578125q0.53125 0.5625 0.53125 1.59375q0 0.0625 -0.015625 0.1875l-3.09375 0q0.046875 0.671875 0.390625 1.046875q0.34375 0.359375 0.875 0.359375q0.375 0 0.640625 -0.203125q0.28125 -0.203125 0.453125 -0.65625zm-2.3125 -1.125l2.3125 0q-0.046875 -0.53125 -0.265625 -0.796875q-0.328125 -0.40625 -0.875 -0.40625q-0.484375 0 -0.8125 0.328125q-0.328125 0.328125 -0.359375 0.875zm3.9179688 2.46875l0 -4.15625l0.625 0l0 0.59375q0.203125 -0.3125 0.515625 -0.5q0.328125 -0.1875 0.75 -0.1875q0.453125 0 0.75 0.203125q0.296875 0.1875 0.421875 0.53125q0.484375 -0.734375 1.28125 -0.734375q0.609375 0 0.9375 0.34375q0.34375 0.34375 0.34375 1.0625l0 2.84375l-0.703125 0l0 -2.609375q0 -0.421875 -0.078125 -0.609375q-0.0625 -0.1875 -0.25 -0.296875q-0.171875 -0.125 -0.40625 -0.125q-0.4375 0 -0.734375 0.296875q-0.28125 0.296875 -0.28125 0.9375l0 2.40625l-0.703125 0l0 -2.703125q0 -0.46875 -0.171875 -0.703125q-0.171875 -0.234375 -0.5625 -0.234375q-0.296875 0 -0.5625 0.15625q-0.25 0.15625 -0.359375 0.46875q-0.109375 0.296875 -0.109375 0.859375l0 2.15625l-0.703125 0zm6.3828125 -1.234375l0.6875 -0.109375q0.0625 0.40625 0.328125 0.640625q0.265625 0.21875 0.75 0.21875q0.484375 0 0.71875 -0.1875q0.234375 -0.203125 0.234375 -0.46875q0 -0.25 -0.203125 -0.375q-0.140625 -0.09375 -0.71875 -0.25q-0.78125 -0.1875 -1.078125 -0.328125q-0.296875 -0.140625 -0.453125 -0.390625q-0.15625 -0.265625 -0.15625 -0.5625q0 -0.28125 0.125 -0.515625q0.140625 -0.234375 0.359375 -0.390625q0.15625 -0.125 0.4375 -0.203125q0.28125 -0.09375 0.609375 -0.09375q0.484375 0 0.859375 0.140625q0.375 0.140625 0.546875 0.390625q0.171875 0.234375 0.234375 0.640625l-0.6875 0.09375q-0.046875 -0.328125 -0.265625 -0.5q-0.21875 -0.1875 -0.640625 -0.1875q-0.484375 0 -0.6875 0.171875q-0.203125 0.15625 -0.203125 0.375q0 0.125 0.078125 0.234375q0.09375 0.125 0.28125 0.1875q0.09375 0.046875 0.609375 0.1875q0.75 0.203125 1.046875 0.328125q0.296875 0.125 0.453125 0.375q0.171875 0.234375 0.171875 0.59375q0 0.34375 -0.203125 0.65625q-0.203125 0.3125 -0.59375 0.484375q-0.375 0.171875 -0.875 0.171875q-0.796875 0 -1.234375 -0.328125q-0.421875 -0.34375 -0.53125 -1.0z" fill-rule="nonzero"></path><path fill="#fff2cc" d="m519.7055 79.38396l0 0c0 -5.699806 4.6206055 -10.320419 10.320435 -10.320419l102.06781 0c2.7371826 0 5.3621826 1.0873337 7.2976685 3.0227814c1.9354248 1.9354553 3.022766 4.5604935 3.022766 7.297638l0 41.280426c0 5.699814 -4.6206055 10.320419 -10.320435 10.320419l-102.06781 0c-5.699829 0 -10.320435 -4.6206055 -10.320435 -10.320419z" fill-rule="evenodd"></path><path stroke="#004065" stroke-width="1.0" stroke-linejoin="round" stroke-linecap="butt" d="m519.7055 79.38396l0 0c0 -5.699806 4.6206055 -10.320419 10.320435 -10.320419l102.06781 0c2.7371826 0 5.3621826 1.0873337 7.2976685 3.0227814c1.9354248 1.9354553 3.022766 4.5604935 3.022766 7.297638l0 41.280426c0 5.699814 -4.6206055 10.320419 -10.320435 10.320419l-102.06781 0c-5.699829 0 -10.320435 -4.6206055 -10.320435 -10.320419z" fill-rule="evenodd"></path><path fill="#000000" d="m573.80597 97.70417l0 -5.734375l0.75 0l0 5.734375l-0.75 0zm2.0039062 0l0 -4.15625l0.625 0l0 0.59375q0.46875 -0.6875 1.328125 -0.6875q0.375 0 0.6875 0.140625q0.3125 0.140625 0.46875 0.359375q0.15625 0.21875 0.21875 0.515625q0.046875 0.1875 0.046875 0.6875l0 2.546875l-0.703125 0l0 -2.53125q0 -0.421875 -0.09375 -0.625q-0.078125 -0.21875 -0.296875 -0.34375q-0.203125 -0.140625 -0.484375 -0.140625q-0.4375 0 -0.765625 0.296875q-0.328125 0.28125 -0.328125 1.078125l0 2.265625l-0.703125 0zm4.6210938 0l0 -3.609375l-0.625 0l0 -0.546875l0.625 0l0 -0.4375q0 -0.421875 0.0625 -0.625q0.109375 -0.265625 0.359375 -0.4375q0.265625 -0.171875 0.71875 -0.171875q0.296875 0 0.65625 0.078125l-0.109375 0.609375q-0.21875 -0.046875 -0.40625 -0.046875q-0.328125 0 -0.46875 0.140625q-0.125 0.140625 -0.125 0.515625l0 0.375l0.8125 0l0 0.546875l-0.8125 0l0 3.609375l-0.6875 0zm2.0351562 0l0 -4.15625l0.640625 0l0 0.640625q0.234375 -0.453125 0.4375 -0.59375q0.21875 -0.140625 0.453125 -0.140625q0.359375 0 0.734375 0.234375l-0.25 0.65625q-0.25 -0.15625 -0.515625 -0.15625q-0.234375 0 -0.421875 0.140625q-0.171875 0.140625 -0.25 0.375q-0.125 0.375 -0.125 0.828125l0 2.171875l-0.703125 0zm5.3828125 -0.515625q-0.390625 0.328125 -0.75 0.46875q-0.359375 0.140625 -0.78125 0.140625q-0.671875 0 -1.046875 -0.328125q-0.359375 -0.34375 -0.359375 -0.859375q0 -0.3125 0.125 -0.5625q0.140625 -0.25 0.359375 -0.390625q0.234375 -0.15625 0.515625 -0.234375q0.203125 -0.0625 0.625 -0.109375q0.859375 -0.109375 1.25 -0.25q0.015625 -0.140625 0.015625 -0.171875q0 -0.4375 -0.203125 -0.609375q-0.265625 -0.234375 -0.796875 -0.234375q-0.5 0 -0.734375 0.171875q-0.234375 0.171875 -0.359375 0.609375l-0.6875 -0.09375q0.09375 -0.4375 0.3125 -0.703125q0.21875 -0.28125 0.625 -0.421875q0.40625 -0.15625 0.9375 -0.15625q0.53125 0 0.859375 0.125q0.34375 0.125 0.5 0.328125q0.15625 0.1875 0.21875 0.46875q0.03125 0.1875 0.03125 0.65625l0 0.9375q0 0.96875 0.046875 1.234375q0.046875 0.265625 0.171875 0.5l-0.734375 0q-0.109375 -0.21875 -0.140625 -0.515625zm-0.0625 -1.5625q-0.375 0.15625 -1.140625 0.265625q-0.4375 0.0625 -0.625 0.140625q-0.171875 0.078125 -0.265625 0.234375q-0.09375 0.140625 -0.09375 0.328125q0 0.28125 0.203125 0.46875q0.21875 0.1875 0.625 0.1875q0.40625 0 0.71875 -0.171875q0.328125 -0.1875 0.46875 -0.5q0.109375 -0.234375 0.109375 -0.703125l0 -0.25z" fill-rule="nonzero"></path><path fill="#000000" d="m564.0872 107.70417l0 -5.734375l2.140625 0q0.65625 0 1.046875 0.1875q0.40625 0.171875 0.625 0.53125q0.234375 0.359375 0.234375 0.75q0 0.375 -0.203125 0.703125q-0.203125 0.3125 -0.609375 0.515625q0.53125 0.15625 0.796875 0.53125q0.28125 0.359375 0.28125 0.859375q0 0.390625 -0.171875 0.75q-0.15625 0.34375 -0.40625 0.53125q-0.25 0.1875 -0.640625 0.28125q-0.375 0.09375 -0.921875 0.09375l-2.171875 0zm0.75 -3.328125l1.234375 0q0.515625 0 0.734375 -0.0625q0.28125 -0.078125 0.421875 -0.28125q0.15625 -0.203125 0.15625 -0.5q0 -0.28125 -0.140625 -0.5q-0.140625 -0.21875 -0.390625 -0.296875q-0.25 -0.078125 -0.875 -0.078125l-1.140625 0l0 1.71875zm0 2.65625l1.421875 0q0.375 0 0.515625 -0.03125q0.265625 -0.046875 0.4375 -0.15625q0.1875 -0.109375 0.296875 -0.3125q0.109375 -0.21875 0.109375 -0.484375q0 -0.328125 -0.171875 -0.5625q-0.15625 -0.234375 -0.453125 -0.328125q-0.28125 -0.09375 -0.828125 -0.09375l-1.328125 0l0 1.96875zm7.2265625 0.15625q-0.390625 0.328125 -0.75 0.46875q-0.359375 0.140625 -0.78125 0.140625q-0.671875 0 -1.046875 -0.328125q-0.359375 -0.34375 -0.359375 -0.859375q0 -0.3125 0.125 -0.5625q0.140625 -0.25 0.359375 -0.390625q0.234375 -0.15625 0.515625 -0.234375q0.203125 -0.0625 0.625 -0.109375q0.859375 -0.109375 1.25 -0.25q0.015625 -0.140625 0.015625 -0.171875q0 -0.4375 -0.203125 -0.609375q-0.265625 -0.234375 -0.796875 -0.234375q-0.5 0 -0.734375 0.171875q-0.234375 0.171875 -0.359375 0.609375l-0.6875 -0.09375q0.09375 -0.4375 0.3125 -0.703125q0.21875 -0.28125 0.625 -0.421875q0.40625 -0.15625 0.9375 -0.15625q0.53125 0 0.859375 0.125q0.34375 0.125 0.5 0.328125q0.15625 0.1875 0.21875 0.46875q0.03125 0.1875 0.03125 0.65625l0 0.9375q0 0.96875 0.046875 1.234375q0.046875 0.265625 0.171875 0.5l-0.734375 0q-0.109375 -0.21875 -0.140625 -0.515625zm-0.0625 -1.5625q-0.375 0.15625 -1.140625 0.265625q-0.4375 0.0625 -0.625 0.140625q-0.171875 0.078125 -0.265625 0.234375q-0.09375 0.140625 -0.09375 0.328125q0 0.28125 0.203125 0.46875q0.21875 0.1875 0.625 0.1875q0.40625 0 0.71875 -0.171875q0.328125 -0.1875 0.46875 -0.5q0.109375 -0.234375 0.109375 -0.703125l0 -0.25zm4.5117188 0.5625l0.6875 0.078125q-0.109375 0.71875 -0.578125 1.125q-0.46875 0.40625 -1.140625 0.40625q-0.859375 0 -1.375 -0.546875q-0.515625 -0.5625 -0.515625 -1.609375q0 -0.671875 0.21875 -1.171875q0.234375 -0.5 0.6875 -0.75q0.453125 -0.265625 0.984375 -0.265625q0.671875 0 1.09375 0.34375q0.4375 0.34375 0.5625 0.96875l-0.6875 0.109375q-0.09375 -0.421875 -0.34375 -0.625q-0.25 -0.21875 -0.59375 -0.21875q-0.53125 0 -0.875 0.390625q-0.328125 0.375 -0.328125 1.203125q0 0.828125 0.3125 1.21875q0.328125 0.375 0.84375 0.375q0.421875 0 0.6875 -0.25q0.28125 -0.265625 0.359375 -0.78125zm1.296875 1.515625l0 -5.734375l0.703125 0l0 3.265625l1.671875 -1.6875l0.90625 0l-1.59375 1.546875l1.75 2.609375l-0.859375 0l-1.375 -2.125l-0.5 0.484375l0 1.640625l-0.703125 0zm6.84375 -1.34375l0.71875 0.09375q-0.171875 0.640625 -0.640625 1.0q-0.453125 0.34375 -1.1875 0.34375q-0.90625 0 -1.4375 -0.5625q-0.53125 -0.5625 -0.53125 -1.578125q0 -1.046875 0.53125 -1.625q0.546875 -0.578125 1.40625 -0.578125q0.828125 0 1.359375 0.578125q0.53125 0.5625 0.53125 1.59375q0 0.0625 -0.015625 0.1875l-3.09375 0q0.046875 0.671875 0.390625 1.046875q0.34375 0.359375 0.875 0.359375q0.375 0 0.640625 -0.203125q0.28125 -0.203125 0.453125 -0.65625zm-2.3125 -1.125l2.3125 0q-0.046875 -0.53125 -0.265625 -0.796875q-0.328125 -0.40625 -0.875 -0.40625q-0.484375 0 -0.8125 0.328125q-0.328125 0.328125 -0.359375 0.875zm3.9179688 2.46875l0 -4.15625l0.625 0l0 0.59375q0.46875 -0.6875 1.328125 -0.6875q0.375 0 0.6875 0.140625q0.3125 0.140625 0.46875 0.359375q0.15625 0.21875 0.21875 0.515625q0.046875 0.1875 0.046875 0.6875l0 2.546875l-0.703125 0l0 -2.53125q0 -0.421875 -0.09375 -0.625q-0.078125 -0.21875 -0.296875 -0.34375q-0.203125 -0.140625 -0.484375 -0.140625q-0.4375 0 -0.765625 0.296875q-0.328125 0.28125 -0.328125 1.078125l0 2.265625l-0.703125 0zm7.1367188 0l0 -0.53125q-0.390625 0.625 -1.15625 0.625q-0.5 0 -0.921875 -0.265625q-0.40625 -0.28125 -0.640625 -0.765625q-0.21875 -0.5 -0.21875 -1.140625q0 -0.609375 0.203125 -1.109375q0.203125 -0.515625 0.609375 -0.78125q0.421875 -0.28125 0.9375 -0.28125q0.375 0 0.65625 0.171875q0.296875 0.15625 0.484375 0.40625l0 -2.0625l0.703125 0l0 5.734375l-0.65625 0zm-2.21875 -2.078125q0 0.796875 0.328125 1.203125q0.34375 0.390625 0.796875 0.390625q0.46875 0 0.78125 -0.375q0.328125 -0.375 0.328125 -1.15625q0 -0.84375 -0.328125 -1.234375q-0.328125 -0.40625 -0.8125 -0.40625q-0.46875 0 -0.78125 0.390625q-0.3125 0.375 -0.3125 1.1875zm3.6992188 0.84375l0.6875 -0.109375q0.0625 0.40625 0.328125 0.640625q0.265625 0.21875 0.75 0.21875q0.484375 0 0.71875 -0.1875q0.234375 -0.203125 0.234375 -0.46875q0 -0.25 -0.203125 -0.375q-0.140625 -0.09375 -0.71875 -0.25q-0.78125 -0.1875 -1.078125 -0.328125q-0.296875 -0.140625 -0.453125 -0.390625q-0.15625 -0.265625 -0.15625 -0.5625q0 -0.28125 0.125 -0.515625q0.140625 -0.234375 0.359375 -0.390625q0.15625 -0.125 0.4375 -0.203125q0.28125 -0.09375 0.609375 -0.09375q0.484375 0 0.859375 0.140625q0.375 0.140625 0.546875 0.390625q0.171875 0.234375 0.234375 0.640625l-0.6875 0.09375q-0.046875 -0.328125 -0.265625 -0.5q-0.21875 -0.1875 -0.640625 -0.1875q-0.484375 0 -0.6875 0.171875q-0.203125 0.15625 -0.203125 0.375q0 0.125 0.078125 0.234375q0.09375 0.125 0.28125 0.1875q0.09375 0.046875 0.609375 0.1875q0.75 0.203125 1.046875 0.328125q0.296875 0.125 0.453125 0.375q0.171875 0.234375 0.171875 0.59375q0 0.34375 -0.203125 0.65625q-0.203125 0.3125 -0.59375 0.484375q-0.375 0.171875 -0.875 0.171875q-0.796875 0 -1.234375 -0.328125q-0.421875 -0.34375 -0.53125 -1.0z" fill-rule="nonzero"></path><path fill="#cfd8dc" d="m392.3561 80.227806l76.92914 0l0 -11.976379l23.952728 23.952759l-23.952728 23.952751l0 -11.976372l-76.92914 0z" fill-rule="evenodd"></path><path stroke="#004065" stroke-width="1.0" stroke-linejoin="round" stroke-linecap="butt" d="m392.3561 80.227806l76.92914 0l0 -11.976379l23.952728 23.952759l-23.952728 23.952751l0 -11.976372l-76.92914 0z" fill-rule="evenodd"></path><path fill="#000000" d="m406.49832 89.884186l0 -5.734375l2.140625 0q0.65625 0 1.046875 0.1875q0.40625 0.171875 0.625 0.53125q0.234375 0.359375 0.234375 0.75q0 0.375 -0.203125 0.703125q-0.203125 0.3125 -0.609375 0.515625q0.53125 0.15625 0.796875 0.53125q0.28125 0.359375 0.28125 0.859375q0 0.390625 -0.171875 0.75q-0.15625 0.34375 -0.40625 0.53125q-0.25 0.1875 -0.640625 0.28125q-0.375 0.09375 -0.921875 0.09375l-2.171875 0zm0.75 -3.328125l1.234375 0q0.515625 0 0.734375 -0.0625q0.28125 -0.078125 0.421875 -0.28125q0.15625 -0.203125 0.15625 -0.5q0 -0.28125 -0.140625 -0.5q-0.140625 -0.21875 -0.390625 -0.296875q-0.25 -0.078125 -0.875 -0.078125l-1.140625 0l0 1.71875zm0 2.65625l1.421875 0q0.375 0 0.515625 -0.03125q0.265625 -0.046875 0.4375 -0.15625q0.1875 -0.109375 0.296875 -0.3125q0.109375 -0.21875 0.109375 -0.484375q0 -0.328125 -0.171875 -0.5625q-0.15625 -0.234375 -0.453125 -0.328125q-0.28125 -0.09375 -0.828125 -0.09375l-1.328125 0l0 1.96875zm7.2265625 0.15625q-0.390625 0.328125 -0.75 0.46875q-0.359375 0.140625 -0.78125 0.140625q-0.671875 0 -1.046875 -0.328125q-0.359375 -0.34375 -0.359375 -0.859375q0 -0.3125 0.125 -0.5625q0.140625 -0.25 0.359375 -0.390625q0.234375 -0.15625 0.515625 -0.234375q0.203125 -0.0625 0.625 -0.109375q0.859375 -0.109375 1.25 -0.25q0.015625 -0.140625 0.015625 -0.171875q0 -0.4375 -0.203125 -0.609375q-0.265625 -0.234375 -0.796875 -0.234375q-0.5 0 -0.734375 0.171875q-0.234375 0.171875 -0.359375 0.609375l-0.6875 -0.09375q0.09375 -0.4375 0.3125 -0.703125q0.21875 -0.28125 0.625 -0.421875q0.40625 -0.15625 0.9375 -0.15625q0.53125 0 0.859375 0.125q0.34375 0.125 0.5 0.328125q0.15625 0.1875 0.21875 0.46875q0.03125 0.1875 0.03125 0.65625l0 0.9375q0 0.96875 0.046875 1.234375q0.046875 0.265625 0.171875 0.5l-0.734375 0q-0.109375 -0.21875 -0.140625 -0.515625zm-0.0625 -1.5625q-0.375 0.15625 -1.140625 0.265625q-0.4375 0.0625 -0.625 0.140625q-0.171875 0.078125 -0.265625 0.234375q-0.09375 0.140625 -0.09375 0.328125q0 0.28125 0.203125 0.46875q0.21875 0.1875 0.625 0.1875q0.40625 0 0.71875 -0.171875q0.328125 -0.1875 0.46875 -0.5q0.109375 -0.234375 0.109375 -0.703125l0 -0.25zm4.5117188 0.5625l0.6875 0.078125q-0.109375 0.71875 -0.578125 1.125q-0.46875 0.40625 -1.140625 0.40625q-0.859375 0 -1.375 -0.546875q-0.515625 -0.5625 -0.515625 -1.609375q0 -0.671875 0.21875 -1.171875q0.234375 -0.5 0.6875 -0.75q0.453125 -0.265625 0.984375 -0.265625q0.671875 0 1.09375 0.34375q0.4375 0.34375 0.5625 0.96875l-0.6875 0.109375q-0.09375 -0.421875 -0.34375 -0.625q-0.25 -0.21875 -0.59375 -0.21875q-0.53125 0 -0.875 0.390625q-0.328125 0.375 -0.328125 1.203125q0 0.828125 0.3125 1.21875q0.328125 0.375 0.84375 0.375q0.421875 0 0.6875 -0.25q0.28125 -0.265625 0.359375 -0.78125zm1.296875 1.515625l0 -5.734375l0.703125 0l0 3.265625l1.671875 -1.6875l0.90625 0l-1.59375 1.546875l1.75 2.609375l-0.859375 0l-1.375 -2.125l-0.5 0.484375l0 1.640625l-0.703125 0zm6.84375 -1.34375l0.71875 0.09375q-0.171875 0.640625 -0.640625 1.0q-0.453125 0.34375 -1.1875 0.34375q-0.90625 0 -1.4375 -0.5625q-0.53125 -0.5625 -0.53125 -1.578125q0 -1.046875 0.53125 -1.625q0.546875 -0.578125 1.40625 -0.578125q0.828125 0 1.359375 0.578125q0.53125 0.5625 0.53125 1.59375q0 0.0625 -0.015625 0.1875l-3.09375 0q0.046875 0.671875 0.390625 1.046875q0.34375 0.359375 0.875 0.359375q0.375 0 0.640625 -0.203125q0.28125 -0.203125 0.453125 -0.65625zm-2.3125 -1.125l2.3125 0q-0.046875 -0.53125 -0.265625 -0.796875q-0.328125 -0.40625 -0.875 -0.40625q-0.484375 0 -0.8125 0.328125q-0.328125 0.328125 -0.359375 0.875zm3.9179688 2.46875l0 -4.15625l0.625 0l0 0.59375q0.46875 -0.6875 1.328125 -0.6875q0.375 0 0.6875 0.140625q0.3125 0.140625 0.46875 0.359375q0.15625 0.21875 0.21875 0.515625q0.046875 0.1875 0.046875 0.6875l0 2.546875l-0.703125 0l0 -2.53125q0 -0.421875 -0.09375 -0.625q-0.078125 -0.21875 -0.296875 -0.34375q-0.203125 -0.140625 -0.484375 -0.140625q-0.4375 0 -0.765625 0.296875q-0.328125 0.28125 -0.328125 1.078125l0 2.265625l-0.703125 0zm7.1367188 0l0 -0.53125q-0.390625 0.625 -1.15625 0.625q-0.5 0 -0.921875 -0.265625q-0.40625 -0.28125 -0.640625 -0.765625q-0.21875 -0.5 -0.21875 -1.140625q0 -0.609375 0.203125 -1.109375q0.203125 -0.515625 0.609375 -0.78125q0.421875 -0.28125 0.9375 -0.28125q0.375 0 0.65625 0.171875q0.296875 0.15625 0.484375 0.40625l0 -2.0625l0.703125 0l0 5.734375l-0.65625 0zm-2.21875 -2.078125q0 0.796875 0.328125 1.203125q0.34375 0.390625 0.796875 0.390625q0.46875 0 0.78125 -0.375q0.328125 -0.375 0.328125 -1.15625q0 -0.84375 -0.328125 -1.234375q-0.328125 -0.40625 -0.8125 -0.40625q-0.46875 0 -0.78125 0.390625q-0.3125 0.375 -0.3125 1.1875zm3.6992188 0.359375l0 -0.703125l2.171875 0l0 0.703125l-2.171875 0zm2.7734375 -0.125l0.71875 -0.0625q0.046875 0.4375 0.234375 0.71875q0.1875 0.265625 0.578125 0.4375q0.390625 0.171875 0.875 0.171875q0.4375 0 0.765625 -0.125q0.328125 -0.140625 0.484375 -0.359375q0.171875 -0.234375 0.171875 -0.5q0 -0.265625 -0.15625 -0.46875q-0.15625 -0.203125 -0.515625 -0.328125q-0.234375 -0.09375 -1.03125 -0.28125q-0.78125 -0.1875 -1.09375 -0.359375q-0.40625 -0.21875 -0.609375 -0.53125q-0.203125 -0.328125 -0.203125 -0.71875q0 -0.4375 0.25 -0.8125q0.25 -0.375 0.71875 -0.5625q0.46875 -0.203125 1.046875 -0.203125q0.640625 0 1.125 0.203125q0.484375 0.203125 0.75 0.609375q0.265625 0.390625 0.28125 0.90625l-0.734375 0.046875q-0.046875 -0.546875 -0.390625 -0.8125q-0.34375 -0.28125 -1.0 -0.28125q-0.6875 0 -1.0 0.25q-0.3125 0.25 -0.3125 0.609375q0 0.3125 0.21875 0.5q0.21875 0.203125 1.140625 0.421875q0.921875 0.203125 1.265625 0.359375q0.5 0.234375 0.734375 0.59375q0.25 0.34375 0.25 0.796875q0 0.46875 -0.265625 0.875q-0.265625 0.390625 -0.75 0.625q-0.484375 0.21875 -1.109375 0.21875q-0.765625 0 -1.296875 -0.21875q-0.53125 -0.234375 -0.828125 -0.6875q-0.296875 -0.453125 -0.3125 -1.03125zm5.5078125 3.4375l0 -5.75l0.640625 0l0 0.546875q0.21875 -0.3125 0.5 -0.46875q0.296875 -0.171875 0.703125 -0.171875q0.53125 0 0.9375 0.28125q0.40625 0.265625 0.609375 0.765625q0.203125 0.5 0.203125 1.09375q0 0.640625 -0.234375 1.15625q-0.21875 0.5 -0.65625 0.78125q-0.4375 0.265625 -0.90625 0.265625q-0.359375 0 -0.640625 -0.140625q-0.28125 -0.15625 -0.453125 -0.390625l0 2.03125l-0.703125 0zm0.640625 -3.640625q0 0.796875 0.3125 1.1875q0.328125 0.375 0.796875 0.375q0.46875 0 0.796875 -0.390625q0.328125 -0.40625 0.328125 -1.234375q0 -0.796875 -0.328125 -1.1875q-0.3125 -0.390625 -0.765625 -0.390625q-0.453125 0 -0.796875 0.421875q-0.34375 0.40625 -0.34375 1.21875zm6.6523438 0.703125l0.71875 0.09375q-0.171875 0.640625 -0.640625 1.0q-0.453125 0.34375 -1.1875 0.34375q-0.90625 0 -1.4375 -0.5625q-0.53125 -0.5625 -0.53125 -1.578125q0 -1.046875 0.53125 -1.625q0.546875 -0.578125 1.40625 -0.578125q0.828125 0 1.359375 0.578125q0.53125 0.5625 0.53125 1.59375q0 0.0625 -0.015625 0.1875l-3.09375 0q0.046875 0.671875 0.390625 1.046875q0.34375 0.359375 0.875 0.359375q0.375 0 0.640625 -0.203125q0.28125 -0.203125 0.453125 -0.65625zm-2.3125 -1.125l2.3125 0q-0.046875 -0.53125 -0.265625 -0.796875q-0.328125 -0.40625 -0.875 -0.40625q-0.484375 0 -0.8125 0.328125q-0.328125 0.328125 -0.359375 0.875zm6.6210938 0.953125l0.6875 0.078125q-0.109375 0.71875 -0.578125 1.125q-0.46875 0.40625 -1.140625 0.40625q-0.859375 0 -1.375 -0.546875q-0.515625 -0.5625 -0.515625 -1.609375q0 -0.671875 0.21875 -1.171875q0.234375 -0.5 0.6875 -0.75q0.453125 -0.265625 0.984375 -0.265625q0.671875 0 1.09375 0.34375q0.4375 0.34375 0.5625 0.96875l-0.6875 0.109375q-0.09375 -0.421875 -0.34375 -0.625q-0.25 -0.21875 -0.59375 -0.21875q-0.53125 0 -0.875 0.390625q-0.328125 0.375 -0.328125 1.203125q0 0.828125 0.3125 1.21875q0.328125 0.375 0.84375 0.375q0.421875 0 0.6875 -0.25q0.28125 -0.265625 0.359375 -0.78125zm1.296875 -3.40625l0 -0.8125l0.703125 0l0 0.8125l-0.703125 0zm0 4.921875l0 -4.15625l0.703125 0l0 4.15625l-0.703125 0zm1.9492188 0l0 -3.609375l-0.625 0l0 -0.546875l0.625 0l0 -0.4375q0 -0.421875 0.0625 -0.625q0.109375 -0.265625 0.359375 -0.4375q0.265625 -0.171875 0.71875 -0.171875q0.296875 0 0.65625 0.078125l-0.109375 0.609375q-0.21875 -0.046875 -0.40625 -0.046875q-0.328125 0 -0.46875 0.140625q-0.125 0.140625 -0.125 0.515625l0 0.375l0.8125 0l0 0.546875l-0.8125 0l0 3.609375l-0.6875 0zm2.0507812 -4.921875l0 -0.8125l0.703125 0l0 0.8125l-0.703125 0zm0 4.921875l0 -4.15625l0.703125 0l0 4.15625l-0.703125 0zm4.4804688 -1.515625l0.6875 0.078125q-0.109375 0.71875 -0.578125 1.125q-0.46875 0.40625 -1.140625 0.40625q-0.859375 0 -1.375 -0.546875q-0.515625 -0.5625 -0.515625 -1.609375q0 -0.671875 0.21875 -1.171875q0.234375 -0.5 0.6875 -0.75q0.453125 -0.265625 0.984375 -0.265625q0.671875 0 1.09375 0.34375q0.4375 0.34375 0.5625 0.96875l-0.6875 0.109375q-0.09375 -0.421875 -0.34375 -0.625q-0.25 -0.21875 -0.59375 -0.21875q-0.53125 0 -0.875 0.390625q-0.328125 0.375 -0.328125 1.203125q0 0.828125 0.3125 1.21875q0.328125 0.375 0.84375 0.375q0.421875 0 0.6875 -0.25q0.28125 -0.265625 0.359375 -0.78125z" fill-rule="nonzero"></path><path fill="#000000" d="m420.76004 99.884186l0 -5.734375l2.15625 0q0.5625 0 0.875 0.0625q0.421875 0.0625 0.703125 0.265625q0.28125 0.203125 0.453125 0.5625q0.171875 0.34375 0.171875 0.765625q0 0.734375 -0.46875 1.25q-0.453125 0.5 -1.671875 0.5l-1.46875 0l0 2.328125l-0.75 0zm0.75 -3.0l1.484375 0q0.734375 0 1.03125 -0.265625q0.3125 -0.28125 0.3125 -0.78125q0 -0.359375 -0.1875 -0.609375q-0.171875 -0.265625 -0.46875 -0.34375q-0.1875 -0.046875 -0.703125 -0.046875l-1.46875 0l0 2.046875zm4.4765625 3.0l0 -4.15625l0.640625 0l0 0.640625q0.234375 -0.453125 0.4375 -0.59375q0.21875 -0.140625 0.453125 -0.140625q0.359375 0 0.734375 0.234375l-0.25 0.65625q-0.25 -0.15625 -0.515625 -0.15625q-0.234375 0 -0.421875 0.140625q-0.171875 0.140625 -0.25 0.375q-0.125 0.375 -0.125 0.828125l0 2.171875l-0.703125 0zm2.4140625 -2.078125q0 -1.15625 0.640625 -1.703125q0.53125 -0.46875 1.3125 -0.46875q0.84375 0 1.390625 0.5625q0.546875 0.5625 0.546875 1.546875q0 0.8125 -0.25 1.265625q-0.234375 0.453125 -0.703125 0.71875q-0.453125 0.25 -0.984375 0.25q-0.875 0 -1.421875 -0.5625q-0.53125 -0.5625 -0.53125 -1.609375zm0.71875 0q0 0.796875 0.34375 1.203125q0.359375 0.390625 0.890625 0.390625q0.515625 0 0.859375 -0.390625q0.359375 -0.40625 0.359375 -1.21875q0 -0.78125 -0.359375 -1.171875q-0.34375 -0.390625 -0.859375 -0.390625q-0.53125 0 -0.890625 0.390625q-0.34375 0.390625 -0.34375 1.1875zm5.5273438 1.453125l0.109375 0.609375q-0.296875 0.078125 -0.53125 0.078125q-0.390625 0 -0.609375 -0.125q-0.203125 -0.125 -0.296875 -0.3125q-0.078125 -0.203125 -0.078125 -0.84375l0 -2.390625l-0.515625 0l0 -0.546875l0.515625 0l0 -1.015625l0.703125 -0.421875l0 1.4375l0.703125 0l0 0.546875l-0.703125 0l0 2.4375q0 0.296875 0.03125 0.390625q0.046875 0.078125 0.125 0.125q0.078125 0.046875 0.234375 0.046875q0.125 0 0.3125 -0.015625zm0.42578125 -1.453125q0 -1.15625 0.640625 -1.703125q0.53125 -0.46875 1.3125 -0.46875q0.84375 0 1.390625 0.5625q0.546875 0.5625 0.546875 1.546875q0 0.8125 -0.25 1.265625q-0.234375 0.453125 -0.703125 0.71875q-0.453125 0.25 -0.984375 0.25q-0.875 0 -1.421875 -0.5625q-0.53125 -0.5625 -0.53125 -1.609375zm0.71875 0q0 0.796875 0.34375 1.203125q0.359375 0.390625 0.890625 0.390625q0.515625 0 0.859375 -0.390625q0.359375 -0.40625 0.359375 -1.21875q0 -0.78125 -0.359375 -1.171875q-0.34375 -0.390625 -0.859375 -0.390625q-0.53125 0 -0.890625 0.390625q-0.34375 0.390625 -0.34375 1.1875zm6.6992188 0.5625l0.6875 0.078125q-0.109375 0.71875 -0.578125 1.125q-0.46875 0.40625 -1.140625 0.40625q-0.859375 0 -1.375 -0.546875q-0.515625 -0.5625 -0.515625 -1.609375q0 -0.671875 0.21875 -1.171875q0.234375 -0.5 0.6875 -0.75q0.453125 -0.265625 0.984375 -0.265625q0.671875 0 1.09375 0.34375q0.4375 0.34375 0.5625 0.96875l-0.6875 0.109375q-0.09375 -0.421875 -0.34375 -0.625q-0.25 -0.21875 -0.59375 -0.21875q-0.53125 0 -0.875 0.390625q-0.328125 0.375 -0.328125 1.203125q0 0.828125 0.3125 1.21875q0.328125 0.375 0.84375 0.375q0.421875 0 0.6875 -0.25q0.28125 -0.265625 0.359375 -0.78125zm1.03125 -0.5625q0 -1.15625 0.640625 -1.703125q0.53125 -0.46875 1.3125 -0.46875q0.84375 0 1.390625 0.5625q0.546875 0.5625 0.546875 1.546875q0 0.8125 -0.25 1.265625q-0.234375 0.453125 -0.703125 0.71875q-0.453125 0.25 -0.984375 0.25q-0.875 0 -1.421875 -0.5625q-0.53125 -0.5625 -0.53125 -1.609375zm0.71875 0q0 0.796875 0.34375 1.203125q0.359375 0.390625 0.890625 0.390625q0.515625 0 0.859375 -0.390625q0.359375 -0.40625 0.359375 -1.21875q0 -0.78125 -0.359375 -1.171875q-0.34375 -0.390625 -0.859375 -0.390625q-0.53125 0 -0.890625 0.390625q-0.34375 0.390625 -0.34375 1.1875zm3.9804688 2.078125l0 -5.734375l0.703125 0l0 5.734375l-0.703125 0zm1.5117188 -1.234375l0.6875 -0.109375q0.0625 0.40625 0.328125 0.640625q0.265625 0.21875 0.75 0.21875q0.484375 0 0.71875 -0.1875q0.234375 -0.203125 0.234375 -0.46875q0 -0.25 -0.203125 -0.375q-0.140625 -0.09375 -0.71875 -0.25q-0.78125 -0.1875 -1.078125 -0.328125q-0.296875 -0.140625 -0.453125 -0.390625q-0.15625 -0.265625 -0.15625 -0.5625q0 -0.28125 0.125 -0.515625q0.140625 -0.234375 0.359375 -0.390625q0.15625 -0.125 0.4375 -0.203125q0.28125 -0.09375 0.609375 -0.09375q0.484375 0 0.859375 0.140625q0.375 0.140625 0.546875 0.390625q0.171875 0.234375 0.234375 0.640625l-0.6875 0.09375q-0.046875 -0.328125 -0.265625 -0.5q-0.21875 -0.1875 -0.640625 -0.1875q-0.484375 0 -0.6875 0.171875q-0.203125 0.15625 -0.203125 0.375q0 0.125 0.078125 0.234375q0.09375 0.125 0.28125 0.1875q0.09375 0.046875 0.609375 0.1875q0.75 0.203125 1.046875 0.328125q0.296875 0.125 0.453125 0.375q0.171875 0.234375 0.171875 0.59375q0 0.34375 -0.203125 0.65625q-0.203125 0.3125 -0.59375 0.484375q-0.375 0.171875 -0.875 0.171875q-0.796875 0 -1.234375 -0.328125q-0.421875 -0.34375 -0.53125 -1.0z" fill-rule="nonzero"></path><path fill="#cfd8dc" d="m136.52673 80.227806l67.29135 0l0 -11.976379l23.952744 23.952759l-23.952744 23.952751l0 -11.976372l-67.29135 0z" fill-rule="evenodd"></path><path stroke="#004065" stroke-width="1.0" stroke-linejoin="round" stroke-linecap="butt" d="m136.52673 80.227806l67.29135 0l0 -11.976379l23.952744 23.952759l-23.952744 23.952751l0 -11.976372l-67.29135 0z" fill-rule="evenodd"></path><path fill="#000000" d="m159.24849 94.884186l2.203125 -5.734375l0.8125 0l2.34375 5.734375l-0.859375 0l-0.671875 -1.734375l-2.390625 0l-0.625 1.734375l-0.8125 0zm1.65625 -2.359375l1.9375 0l-0.59375 -1.578125q-0.265625 -0.71875 -0.40625 -1.1875q-0.109375 0.546875 -0.3125 1.09375l-0.625 1.671875zm5.7578125 1.734375l0.109375 0.609375q-0.296875 0.078125 -0.53125 0.078125q-0.390625 0 -0.609375 -0.125q-0.203125 -0.125 -0.296875 -0.3125q-0.078125 -0.203125 -0.078125 -0.84375l0 -2.390625l-0.515625 0l0 -0.546875l0.515625 0l0 -1.015625l0.703125 -0.421875l0 1.4375l0.703125 0l0 0.546875l-0.703125 0l0 2.4375q0 0.296875 0.03125 0.390625q0.046875 0.078125 0.125 0.125q0.078125 0.046875 0.234375 0.046875q0.125 0 0.3125 -0.015625zm2.2226562 0l0.109375 0.609375q-0.296875 0.078125 -0.53125 0.078125q-0.390625 0 -0.609375 -0.125q-0.203125 -0.125 -0.296875 -0.3125q-0.078125 -0.203125 -0.078125 -0.84375l0 -2.390625l-0.515625 0l0 -0.546875l0.515625 0l0 -1.015625l0.703125 -0.421875l0 1.4375l0.703125 0l0 0.546875l-0.703125 0l0 2.4375q0 0.296875 0.03125 0.390625q0.046875 0.078125 0.125 0.125q0.078125 0.046875 0.234375 0.046875q0.125 0 0.3125 -0.015625zm0.67578125 0.625l0 -4.15625l0.640625 0l0 0.640625q0.234375 -0.453125 0.4375 -0.59375q0.21875 -0.140625 0.453125 -0.140625q0.359375 0 0.734375 0.234375l-0.25 0.65625q-0.25 -0.15625 -0.515625 -0.15625q-0.234375 0 -0.421875 0.140625q-0.171875 0.140625 -0.25 0.375q-0.125 0.375 -0.125 0.828125l0 2.171875l-0.703125 0zm2.6796875 -4.921875l0 -0.8125l0.703125 0l0 0.8125l-0.703125 0zm0 4.921875l0 -4.15625l0.703125 0l0 4.15625l-0.703125 0zm2.4179688 0l-0.640625 0l0 -5.734375l0.703125 0l0 2.046875q0.4375 -0.5625 1.125 -0.5625q0.390625 0 0.734375 0.15625q0.34375 0.15625 0.5625 0.4375q0.21875 0.28125 0.34375 0.671875q0.125 0.390625 0.125 0.84375q0 1.0625 -0.53125 1.65625q-0.53125 0.578125 -1.265625 0.578125q-0.734375 0 -1.15625 -0.609375l0 0.515625zm0 -2.109375q0 0.75 0.203125 1.078125q0.328125 0.546875 0.890625 0.546875q0.46875 0 0.796875 -0.390625q0.34375 -0.40625 0.34375 -1.203125q0 -0.8125 -0.328125 -1.203125q-0.3125 -0.390625 -0.78125 -0.390625q-0.453125 0 -0.796875 0.40625q-0.328125 0.40625 -0.328125 1.15625zm6.5273438 2.109375l0 -0.609375q-0.484375 0.703125 -1.3125 0.703125q-0.375 0 -0.703125 -0.140625q-0.3125 -0.140625 -0.46875 -0.34375q-0.140625 -0.21875 -0.203125 -0.53125q-0.046875 -0.203125 -0.046875 -0.65625l0 -2.578125l0.703125 0l0 2.3125q0 0.546875 0.046875 0.734375q0.0625 0.28125 0.265625 0.4375q0.21875 0.15625 0.546875 0.15625q0.3125 0 0.578125 -0.15625q0.28125 -0.171875 0.390625 -0.4375q0.125 -0.28125 0.125 -0.8125l0 -2.234375l0.703125 0l0 4.15625l-0.625 0zm3.2617188 -0.625l0.109375 0.609375q-0.296875 0.078125 -0.53125 0.078125q-0.390625 0 -0.609375 -0.125q-0.203125 -0.125 -0.296875 -0.3125q-0.078125 -0.203125 -0.078125 -0.84375l0 -2.390625l-0.515625 0l0 -0.546875l0.515625 0l0 -1.015625l0.703125 -0.421875l0 1.4375l0.703125 0l0 0.546875l-0.703125 0l0 2.4375q0 0.296875 0.03125 0.390625q0.046875 0.078125 0.125 0.125q0.078125 0.046875 0.234375 0.046875q0.125 0 0.3125 -0.015625zm3.5351562 -0.71875l0.71875 0.09375q-0.171875 0.640625 -0.640625 1.0q-0.453125 0.34375 -1.1875 0.34375q-0.90625 0 -1.4375 -0.5625q-0.53125 -0.5625 -0.53125 -1.578125q0 -1.046875 0.53125 -1.625q0.546875 -0.578125 1.40625 -0.578125q0.828125 0 1.359375 0.578125q0.53125 0.5625 0.53125 1.59375q0 0.0625 -0.015625 0.1875l-3.09375 0q0.046875 0.671875 0.390625 1.046875q0.34375 0.359375 0.875 0.359375q0.375 0 0.640625 -0.203125q0.28125 -0.203125 0.453125 -0.65625zm-2.3125 -1.125l2.3125 0q-0.046875 -0.53125 -0.265625 -0.796875q-0.328125 -0.40625 -0.875 -0.40625q-0.484375 0 -0.8125 0.328125q-0.328125 0.328125 -0.359375 0.875zm3.6367188 1.234375l0.6875 -0.109375q0.0625 0.40625 0.328125 0.640625q0.265625 0.21875 0.75 0.21875q0.484375 0 0.71875 -0.1875q0.234375 -0.203125 0.234375 -0.46875q0 -0.25 -0.203125 -0.375q-0.140625 -0.09375 -0.71875 -0.25q-0.78125 -0.1875 -1.078125 -0.328125q-0.296875 -0.140625 -0.453125 -0.390625q-0.15625 -0.265625 -0.15625 -0.5625q0 -0.28125 0.125 -0.515625q0.140625 -0.234375 0.359375 -0.390625q0.15625 -0.125 0.4375 -0.203125q0.28125 -0.09375 0.609375 -0.09375q0.484375 0 0.859375 0.140625q0.375 0.140625 0.546875 0.390625q0.171875 0.234375 0.234375 0.640625l-0.6875 0.09375q-0.046875 -0.328125 -0.265625 -0.5q-0.21875 -0.1875 -0.640625 -0.1875q-0.484375 0 -0.6875 0.171875q-0.203125 0.15625 -0.203125 0.375q0 0.125 0.078125 0.234375q0.09375 0.125 0.28125 0.1875q0.09375 0.046875 0.609375 0.1875q0.75 0.203125 1.046875 0.328125q0.296875 0.125 0.453125 0.375q0.171875 0.234375 0.171875 0.59375q0 0.34375 -0.203125 0.65625q-0.203125 0.3125 -0.59375 0.484375q-0.375 0.171875 -0.875 0.171875q-0.796875 0 -1.234375 -0.328125q-0.421875 -0.34375 -0.53125 -1.0z" fill-rule="nonzero"></path><path fill="#c9daf8" d="m3.9027822 71.56104l0 0c0 -5.699806 4.6206074 -10.3204155 10.320416 -10.3204155l102.06783 0c2.7371445 0 5.3621826 1.087326 7.2976303 3.0227776c1.9354553 1.9354553 3.0227814 4.5604935 3.0227814 7.297638l0 41.280426c0 5.699814 -4.6206055 10.320419 -10.320412 10.320419l-102.06783 0c-5.699809 0 -10.320416 -4.6206055 -10.320416 -10.320419z" fill-rule="evenodd"></path><path stroke="#004065" stroke-width="1.0" stroke-linejoin="round" stroke-linecap="butt" d="m3.9027822 71.56104l0 0c0 -5.699806 4.6206074 -10.3204155 10.320416 -10.3204155l102.06783 0c2.7371445 0 5.3621826 1.087326 7.2976303 3.0227776c1.9354553 1.9354553 3.0227814 4.5604935 3.0227814 7.297638l0 41.280426c0 5.699814 -4.6206055 10.320419 -10.320412 10.320419l-102.06783 0c-5.699809 0 -10.320416 -4.6206055 -10.320416 -10.320419z" fill-rule="evenodd"></path><path fill="#000000" d="m55.657505 94.881256l0 -5.734375l2.15625 0q0.5625 0 0.875 0.0625q0.421875 0.0625 0.703125 0.265625q0.28125 0.203125 0.453125 0.5625q0.171875 0.34375 0.171875 0.765625q0 0.734375 -0.46875 1.25q-0.453125 0.5 -1.671875 0.5l-1.46875 0l0 2.328125l-0.75 0zm0.75 -3.0l1.484375 0q0.734375 0 1.03125 -0.265625q0.3125 -0.28125 0.3125 -0.78125q0 -0.359375 -0.1875 -0.609375q-0.171875 -0.265625 -0.46875 -0.34375q-0.1875 -0.046875 -0.703125 -0.046875l-1.46875 0l0 2.046875zm4.4765625 3.0l0 -4.15625l0.640625 0l0 0.640625q0.234375 -0.453125 0.4375 -0.59375q0.21875 -0.140625 0.453125 -0.140625q0.359375 0 0.734375 0.234375l-0.25 0.65625q-0.25 -0.15625 -0.515625 -0.15625q-0.234375 0 -0.421875 0.140625q-0.171875 0.140625 -0.25 0.375q-0.125 0.375 -0.125 0.828125l0 2.171875l-0.703125 0zm2.4140625 -2.078125q0 -1.15625 0.640625 -1.703125q0.5312462 -0.46875 1.3124962 -0.46875q0.84375 0 1.390625 0.5625q0.546875 0.5625 0.546875 1.546875q0 0.8125 -0.25 1.265625q-0.234375 0.453125 -0.703125 0.71875q-0.453125 0.25 -0.984375 0.25q-0.875 0 -1.4218712 -0.5625q-0.53125 -0.5625 -0.53125 -1.609375zm0.7187462 0q0 0.796875 0.34375 1.203125q0.359375 0.390625 0.890625 0.390625q0.515625 0 0.859375 -0.390625q0.359375 -0.40625 0.359375 -1.21875q0 -0.78125 -0.359375 -1.171875q-0.34375 -0.390625 -0.859375 -0.390625q-0.53125 0 -0.890625 0.390625q-0.34375 0.390625 -0.34375 1.1875zm3.5273438 2.078125l1.515625 -2.15625l-1.40625 -2.0l0.875 0l0.640625 0.984375q0.1875 0.265625 0.296875 0.453125q0.171875 -0.25 0.3125 -0.453125l0.703125 -0.984375l0.8281326 0l-1.4218826 1.953125l1.5312576 2.203125l-0.8593826 0l-0.84375 -1.296875l-0.234375 -0.34375l-1.09375 1.640625l-0.84375 0zm4.4375076 1.59375l-0.078125 -0.65625q0.234375 0.0625 0.40625 0.0625q0.234375 0 0.375 -0.078125q0.140625 -0.078125 0.21875 -0.21875q0.078125 -0.109375 0.21875 -0.515625q0.015625 -0.0625 0.0625 -0.171875l-1.578125 -4.171875l0.765625 0l0.859375 2.40625q0.171875 0.453125 0.296875 0.96875q0.125 -0.484375 0.296875 -0.953125l0.890625 -2.421875l0.703125 0l-1.578125 4.234375q-0.265625 0.671875 -0.40625 0.9375q-0.1875 0.34375 -0.4375 0.5q-0.234375 0.171875 -0.5625 0.171875q-0.203125 0 -0.453125 -0.09375z" fill-rule="nonzero"></path><path fill="#cfd8dc" d="m287.47504 237.8987l0 -71.51181l-11.5512085 0l23.102386 -23.102356l23.102356 23.102356l-11.551178 0l0 71.51181z" fill-rule="evenodd"></path><path stroke="#004065" stroke-width="1.0" stroke-linejoin="round" stroke-linecap="butt" d="m287.47504 237.8987l0 -71.51181l-11.5512085 0l23.102386 -23.102356l23.102356 23.102356l-11.551178 0l0 71.51181z" fill-rule="evenodd"></path><path fill="#000000" d="m299.69058 203.22658l0.203125 -0.765625q0.921875 0.25 1.421875 0.875q0.484375 0.609375 0.484375 1.5q0 0.921875 -0.375 1.515625q-0.375 0.578125 -1.09375 0.875q-0.71875 0.296875 -1.53125 0.296875q-0.890625 0 -1.5625 -0.328125q-0.671875 -0.34375 -1.015625 -0.96875q-0.34375 -0.640625 -0.34375 -1.40625q0 -0.859375 0.4375 -1.4375q0.4375 -0.59375 1.234375 -0.8125l0.171875 0.734375q-0.625 0.203125 -0.90625 0.59375q-0.28125 0.375 -0.28125 0.9375q0 0.671875 0.3125 1.109375q0.3125 0.4375 0.84375 0.625q0.53125 0.171875 1.109375 0.171875q0.71875 0 1.265625 -0.203125q0.546875 -0.21875 0.828125 -0.65625q0.265625 -0.453125 0.265625 -0.984375q0 -0.640625 -0.359375 -1.078125q-0.375 -0.4375 -1.109375 -0.59375zm-0.0625 -1.3398438q-1.15625 0 -1.703125 -0.640625q-0.46875 -0.53125 -0.46875 -1.3125q0 -0.84375 0.5625 -1.390625q0.5625 -0.546875 1.546875 -0.546875q0.8125 0 1.265625 0.25q0.453125 0.234375 0.71875 0.703125q0.25 0.453125 0.25 0.984375q0 0.875 -0.5625 1.421875q-0.5625 0.53125 -1.609375 0.53125zm0 -0.71875q0.796875 0 1.203125 -0.34375q0.390625 -0.359375 0.390625 -0.890625q0 -0.515625 -0.390625 -0.859375q-0.40625 -0.359375 -1.21875 -0.359375q-0.78125 0 -1.171875 0.359375q-0.390625 0.34375 -0.390625 0.859375q0 0.53125 0.390625 0.890625q0.390625 0.34375 1.1875 0.34375zm2.078125 -3.9960938l-4.15625 0l0 -0.625l0.59375 0q-0.6875 -0.46875 -0.6875 -1.328125q0 -0.375 0.140625 -0.6875q0.140625 -0.3125 0.359375 -0.46875q0.21875 -0.15625 0.515625 -0.21875q0.1875 -0.046875 0.6875 -0.046875l2.546875 0l0 0.703125l-2.53125 0q-0.421875 0 -0.625 0.09375q-0.21875 0.078125 -0.34375 0.296875q-0.140625 0.203125 -0.140625 0.484375q0 0.4375 0.296875 0.765625q0.28125 0.328125 1.078125 0.328125l2.265625 0l0 0.703125zm0 -4.6210938l-3.609375 0l0 0.625l-0.546875 0l0 -0.625l-0.4375 0q-0.421875 0 -0.625 -0.0625q-0.265625 -0.109375 -0.4375 -0.359375q-0.171875 -0.265625 -0.171875 -0.71875q0 -0.296875 0.078125 -0.65625l0.609375 0.109375q-0.046875 0.21875 -0.046875 0.40625q0 0.328125 0.140625 0.46875q0.140625 0.125 0.515625 0.125l0.375 0l0 -0.8125l0.546875 0l0 0.8125l3.609375 0l0 0.6875zm-4.921875 -2.0507812l-0.8125 0l0 -0.703125l0.8125 0l0 0.703125zm4.921875 0l-4.15625 0l0 -0.703125l4.15625 0l0 0.703125zm0.34375 -1.6523438l0.109375 -0.671875q0.3125 -0.046875 0.453125 -0.25q0.203125 -0.25 0.203125 -0.703125q0 -0.5 -0.203125 -0.765625q-0.1875 -0.265625 -0.546875 -0.359375q-0.21875 -0.046875 -0.90625 -0.046875q0.546875 0.46875 0.546875 1.15625q0 0.84375 -0.609375 1.3125q-0.625 0.46875 -1.484375 0.46875q-0.59375 0 -1.09375 -0.203125q-0.515625 -0.21875 -0.78125 -0.625q-0.28125 -0.40625 -0.28125 -0.96875q0 -0.734375 0.59375 -1.203125l-0.5 0l0 -0.65625l3.59375 0q0.96875 0 1.375 0.203125q0.40625 0.203125 0.640625 0.625q0.234375 0.421875 0.234375 1.046875q0 0.75 -0.34375 1.203125q-0.328125 0.453125 -1.0 0.4375zm-2.5 -0.578125q0.828125 0 1.203125 -0.3125q0.375 -0.328125 0.375 -0.828125q0 -0.484375 -0.375 -0.8125q-0.375 -0.328125 -1.171875 -0.328125q-0.765625 0 -1.140625 0.34375q-0.390625 0.34375 -0.390625 0.8125q0 0.46875 0.375 0.796875q0.375 0.328125 1.125 0.328125z" fill-rule="nonzero"></path><path fill="#d9ead3" d="m278.4535 274.17557l0 0c0 -13.22876 9.20813 -23.952774 20.566925 -23.952774c11.358795 0 20.566925 10.724014 20.566925 23.952774c0 13.228729 -9.20813 23.952759 -20.566925 23.952759c-11.358795 0 -20.566925 -10.72403 -20.566925 -23.952759z" fill-rule="evenodd"></path><path fill="#adbba8" d="m290.289 267.0119c0 -1.3779907 0.9591675 -2.4950867 2.1423645 -2.4950867c1.1832275 0 2.142395 1.117096 2.142395 2.4950867c0 1.3779907 -0.9591675 2.4950867 -2.142395 2.4950867c-1.183197 0 -2.1423645 -1.117096 -2.1423645 -2.4950867m13.17807 0c0 -1.3779907 0.9591675 -2.4950867 2.1423645 -2.4950867c1.1832275 0 2.142395 1.117096 2.142395 2.4950867c0 1.3779907 -0.9591675 2.4950867 -2.142395 2.4950867c-1.183197 0 -2.1423645 -1.117096 -2.1423645 -2.4950867" fill-rule="evenodd"></path><path fill="#000000" fill-opacity="0.0" d="m287.87302 284.62152q11.1474 8.916168 22.268768 0" fill-rule="evenodd"></path><path fill="#000000" fill-opacity="0.0" d="m278.4535 274.17557l0 0c0 -13.22876 9.20813 -23.952774 20.566925 -23.952774c11.358795 0 20.566925 10.724014 20.566925 23.952774c0 13.228729 -9.20813 23.952759 -20.566925 23.952759c-11.358795 0 -20.566925 -10.72403 -20.566925 -23.952759z" fill-rule="evenodd"></path><path stroke="#004065" stroke-width="1.0" stroke-linejoin="round" stroke-linecap="butt" d="m290.289 267.0119c0 -1.3779907 0.9591675 -2.4950867 2.1423645 -2.4950867c1.1832275 0 2.142395 1.117096 2.142395 2.4950867c0 1.3779907 -0.9591675 2.4950867 -2.142395 2.4950867c-1.183197 0 -2.1423645 -1.117096 -2.1423645 -2.4950867m13.17807 0c0 -1.3779907 0.9591675 -2.4950867 2.1423645 -2.4950867c1.1832275 0 2.142395 1.117096 2.142395 2.4950867c0 1.3779907 -0.9591675 2.4950867 -2.142395 2.4950867c-1.183197 0 -2.1423645 -1.117096 -2.1423645 -2.4950867" fill-rule="evenodd"></path><path stroke="#004065" stroke-width="1.0" stroke-linejoin="round" stroke-linecap="butt" d="m287.87302 284.62152q11.1474 8.916168 22.268768 0" fill-rule="evenodd"></path><path stroke="#004065" stroke-width="1.0" stroke-linejoin="round" stroke-linecap="butt" d="m278.4535 274.17557l0 0c0 -13.22876 9.20813 -23.952774 20.566925 -23.952774c11.358795 0 20.566925 10.724014 20.566925 23.952774c0 13.228729 -9.20813 23.952759 -20.566925 23.952759c-11.358795 0 -20.566925 -10.72403 -20.566925 -23.952759z" fill-rule="evenodd"></path><path fill="#000000" fill-opacity="0.0" d="m321.49255 257.79092l64.346436 0l0 15.118103l-64.346436 0z" fill-rule="evenodd"></path><path fill="#000000" d="m330.88318 268.79214q0 -1.421875 0.765625 -2.21875q0.765625 -0.8125 1.96875 -0.8125q0.796875 0 1.4375 0.375q0.640625 0.375 0.96875 1.0625q0.328125 0.671875 0.328125 1.53125q0 0.875 -0.359375 1.5625q-0.34375 0.6875 -0.984375 1.046875q-0.640625 0.34375 -1.390625 0.34375q-0.8125 0 -1.453125 -0.390625q-0.625 -0.390625 -0.953125 -1.0625q-0.328125 -0.671875 -0.328125 -1.4375zm0.78125 0.015625q0 1.03125 0.546875 1.640625q0.5625 0.59375 1.40625 0.59375q0.859375 0 1.40625 -0.59375q0.546875 -0.609375 0.546875 -1.71875q0 -0.703125 -0.234375 -1.21875q-0.234375 -0.53125 -0.6875 -0.8125q-0.453125 -0.28125 -1.015625 -0.28125q-0.8125 0 -1.390625 0.546875q-0.578125 0.546875 -0.578125 1.84375zm5.5820312 4.375l0 -5.75l0.640625 0l0 0.546875q0.21875 -0.3125 0.5 -0.46875q0.296875 -0.171875 0.703125 -0.171875q0.53125 0 0.9375 0.28125q0.40625 0.265625 0.609375 0.765625q0.203125 0.5 0.203125 1.09375q0 0.640625 -0.234375 1.15625q-0.21875 0.5 -0.65625 0.78125q-0.4375 0.265625 -0.90625 0.265625q-0.359375 0 -0.640625 -0.140625q-0.28125 -0.15625 -0.453125 -0.390625l0 2.03125l-0.703125 0zm0.640625 -3.640625q0 0.796875 0.3125 1.1875q0.328125 0.375 0.796875 0.375q0.46875 0 0.796875 -0.390625q0.328125 -0.40625 0.328125 -1.234375q0 -0.796875 -0.328125 -1.1875q-0.3125 -0.390625 -0.765625 -0.390625q-0.453125 0 -0.796875 0.421875q-0.34375 0.40625 -0.34375 1.21875zm6.6523438 0.703125l0.71875 0.09375q-0.171875 0.640625 -0.640625 1.0q-0.453125 0.34375 -1.1875 0.34375q-0.90625 0 -1.4375 -0.5625q-0.53125 -0.5625 -0.53125 -1.578125q0 -1.046875 0.53125 -1.625q0.546875 -0.578125 1.40625 -0.578125q0.828125 0 1.359375 0.578125q0.53125 0.5625 0.53125 1.59375q0 0.0625 -0.015625 0.1875l-3.09375 0q0.046875 0.671875 0.390625 1.046875q0.34375 0.359375 0.875 0.359375q0.375 0 0.640625 -0.203125q0.28125 -0.203125 0.453125 -0.65625zm-2.3125 -1.125l2.3125 0q-0.046875 -0.53125 -0.265625 -0.796875q-0.328125 -0.40625 -0.875 -0.40625q-0.484375 0 -0.8125 0.328125q-0.328125 0.328125 -0.359375 0.875zm3.9023438 2.46875l0 -4.15625l0.640625 0l0 0.640625q0.234375 -0.453125 0.4375 -0.59375q0.21875 -0.140625 0.453125 -0.140625q0.359375 0 0.734375 0.234375l-0.25 0.65625q-0.25 -0.15625 -0.515625 -0.15625q-0.234375 0 -0.421875 0.140625q-0.171875 0.140625 -0.25 0.375q-0.125 0.375 -0.125 0.828125l0 2.171875l-0.703125 0zm5.3828125 -0.515625q-0.390625 0.328125 -0.75 0.46875q-0.359375 0.140625 -0.78125 0.140625q-0.671875 0 -1.046875 -0.328125q-0.359375 -0.34375 -0.359375 -0.859375q0 -0.3125 0.125 -0.5625q0.140625 -0.25 0.359375 -0.390625q0.234375 -0.15625 0.515625 -0.234375q0.203125 -0.0625 0.625 -0.109375q0.859375 -0.109375 1.25 -0.25q0.015625 -0.140625 0.015625 -0.171875q0 -0.4375 -0.203125 -0.609375q-0.265625 -0.234375 -0.796875 -0.234375q-0.5 0 -0.734375 0.171875q-0.234375 0.171875 -0.359375 0.609375l-0.6875 -0.09375q0.09375 -0.4375 0.3125 -0.703125q0.21875 -0.28125 0.625 -0.421875q0.40625 -0.15625 0.9375 -0.15625q0.53125 0 0.859375 0.125q0.34375 0.125 0.5 0.328125q0.15625 0.1875 0.21875 0.46875q0.03125 0.1875 0.03125 0.65625l0 0.9375q0 0.96875 0.046875 1.234375q0.046875 0.265625 0.171875 0.5l-0.734375 0q-0.109375 -0.21875 -0.140625 -0.515625zm-0.0625 -1.5625q-0.375 0.15625 -1.140625 0.265625q-0.4375 0.0625 -0.625 0.140625q-0.171875 0.078125 -0.265625 0.234375q-0.09375 0.140625 -0.09375 0.328125q0 0.28125 0.203125 0.46875q0.21875 0.1875 0.625 0.1875q0.40625 0 0.71875 -0.171875q0.328125 -0.1875 0.46875 -0.5q0.109375 -0.234375 0.109375 -0.703125l0 -0.25zm3.3398438 1.453125l0.109375 0.609375q-0.296875 0.078125 -0.53125 0.078125q-0.390625 0 -0.609375 -0.125q-0.203125 -0.125 -0.296875 -0.3125q-0.078125 -0.203125 -0.078125 -0.84375l0 -2.390625l-0.515625 0l0 -0.546875l0.515625 0l0 -1.015625l0.703125 -0.421875l0 1.4375l0.703125 0l0 0.546875l-0.703125 0l0 2.4375q0 0.296875 0.03125 0.390625q0.046875 0.078125 0.125 0.125q0.078125 0.046875 0.234375 0.046875q0.125 0 0.3125 -0.015625zm0.42578125 -1.453125q0 -1.15625 0.640625 -1.703125q0.53125 -0.46875 1.3125 -0.46875q0.84375 0 1.390625 0.5625q0.546875 0.5625 0.546875 1.546875q0 0.8125 -0.25 1.265625q-0.234375 0.453125 -0.703125 0.71875q-0.453125 0.25 -0.984375 0.25q-0.875 0 -1.421875 -0.5625q-0.53125 -0.5625 -0.53125 -1.609375zm0.71875 0q0 0.796875 0.34375 1.203125q0.359375 0.390625 0.890625 0.390625q0.515625 0 0.859375 -0.390625q0.359375 -0.40625 0.359375 -1.21875q0 -0.78125 -0.359375 -1.171875q-0.34375 -0.390625 -0.859375 -0.390625q-0.53125 0 -0.890625 0.390625q-0.34375 0.390625 -0.34375 1.1875zm3.9804688 2.078125l0 -4.15625l0.640625 0l0 0.640625q0.234375 -0.453125 0.4375 -0.59375q0.21875 -0.140625 0.453125 -0.140625q0.359375 0 0.734375 0.234375l-0.25 0.65625q-0.25 -0.15625 -0.515625 -0.15625q-0.234375 0 -0.421875 0.140625q-0.171875 0.140625 -0.25 0.375q-0.125 0.375 -0.125 0.828125l0 2.171875l-0.703125 0z" fill-rule="nonzero"></path><path fill="#fff2cc" d="m344.17184 73.6924l30.078735 0l0 9.543304l-30.078735 0z" fill-rule="evenodd"></path><path stroke="#004065" stroke-width="1.0" stroke-linejoin="round" stroke-linecap="butt" d="m344.17184 73.6924l30.078735 0l0 9.543304l-30.078735 0z" fill-rule="evenodd"></path><path fill="#fff2cc" d="m344.17184 90.842415l30.078735 0l0 9.543304l-30.078735 0z" fill-rule="evenodd"></path><path stroke="#004065" stroke-width="1.0" stroke-linejoin="round" stroke-linecap="butt" d="m344.17184 90.842415l30.078735 0l0 9.543304l-30.078735 0z" fill-rule="evenodd"></path><path fill="#fff2cc" d="m344.17184 107.99243l30.078735 0l0 9.543304l-30.078735 0z" fill-rule="evenodd"></path><path stroke="#004065" stroke-width="1.0" stroke-linejoin="round" stroke-linecap="butt" d="m344.17184 107.99243l30.078735 0l0 9.543304l-30.078735 0z" fill-rule="evenodd"></path><path fill="#000000" fill-opacity="0.0" d="m351.9029 22.385826l86.01575 0l0 26.551182l-86.01575 0z" fill-rule="evenodd"></path><path fill="#000000" d="m360.88727 39.065826l2.203125 -5.734375l0.8125 0l2.34375 5.734375l-0.859375 0l-0.671875 -1.734375l-2.390625 0l-0.625 1.734375l-0.8125 0zm1.65625 -2.359375l1.9375 0l-0.59375 -1.578125q-0.265625 -0.71875 -0.40625 -1.1875q-0.109375 0.546875 -0.3125 1.09375l-0.625 1.671875zm6.9140625 2.359375l0 -0.53125q-0.390625 0.625 -1.15625 0.625q-0.5 0 -0.921875 -0.265625q-0.40625 -0.28125 -0.640625 -0.765625q-0.21875 -0.5 -0.21875 -1.140625q0 -0.609375 0.203125 -1.109375q0.203125 -0.515625 0.609375 -0.78125q0.421875 -0.28125 0.9375 -0.28125q0.375 0 0.65625 0.171875q0.296875 0.15625 0.484375 0.40625l0 -2.0625l0.703125 0l0 5.734375l-0.65625 0zm-2.21875 -2.078125q0 0.796875 0.328125 1.203125q0.34375 0.390625 0.796875 0.390625q0.46875 0 0.78125 -0.375q0.328125 -0.375 0.328125 -1.15625q0 -0.84375 -0.328125 -1.234375q-0.328125 -0.40625 -0.8125 -0.40625q-0.46875 0 -0.78125 0.390625q-0.3125 0.375 -0.3125 1.1875zm6.6835938 1.5625q-0.390625 0.328125 -0.75 0.46875q-0.359375 0.140625 -0.78125 0.140625q-0.671875 0 -1.046875 -0.328125q-0.359375 -0.34375 -0.359375 -0.859375q0 -0.3125 0.125 -0.5625q0.140625 -0.25 0.359375 -0.390625q0.234375 -0.15625 0.515625 -0.234375q0.203125 -0.0625 0.625 -0.109375q0.859375 -0.109375 1.25 -0.25q0.015625 -0.140625 0.015625 -0.171875q0 -0.4375 -0.203125 -0.609375q-0.265625 -0.234375 -0.796875 -0.234375q-0.5 0 -0.734375 0.171875q-0.234375 0.171875 -0.359375 0.609375l-0.6875 -0.09375q0.09375 -0.4375 0.3125 -0.703125q0.21875 -0.28125 0.625 -0.421875q0.40625 -0.15625 0.9375 -0.15625q0.53125 0 0.859375 0.125q0.34375 0.125 0.5 0.328125q0.15625 0.1875 0.21875 0.46875q0.03125 0.1875 0.03125 0.65625l0 0.9375q0 0.96875 0.046875 1.234375q0.046875 0.265625 0.171875 0.5l-0.734375 0q-0.109375 -0.21875 -0.140625 -0.515625zm-0.0625 -1.5625q-0.375 0.15625 -1.140625 0.265625q-0.4375 0.0625 -0.625 0.140625q-0.171875 0.078125 -0.265625 0.234375q-0.09375 0.140625 -0.09375 0.328125q0 0.28125 0.203125 0.46875q0.21875 0.1875 0.625 0.1875q0.40625 0 0.71875 -0.171875q0.328125 -0.1875 0.46875 -0.5q0.109375 -0.234375 0.109375 -0.703125l0 -0.25zm1.8085938 3.671875l0 -5.75l0.640625 0l0 0.546875q0.21875 -0.3125 0.5 -0.46875q0.296875 -0.171875 0.703125 -0.171875q0.53125 0 0.9375 0.28125q0.40625 0.265625 0.609375 0.765625q0.203125 0.5 0.203125 1.09375q0 0.640625 -0.234375 1.15625q-0.21875 0.5 -0.65625 0.78125q-0.4375 0.265625 -0.90625 0.265625q-0.359375 0 -0.640625 -0.140625q-0.28125 -0.15625 -0.453125 -0.390625l0 2.03125l-0.703125 0zm0.640625 -3.640625q0 0.796875 0.3125 1.1875q0.328125 0.375 0.796875 0.375q0.46875 0 0.796875 -0.390625q0.328125 -0.40625 0.328125 -1.234375q0 -0.796875 -0.328125 -1.1875q-0.3125 -0.390625 -0.765625 -0.390625q-0.453125 0 -0.796875 0.421875q-0.34375 0.40625 -0.34375 1.21875zm5.3398438 1.421875l0.109375 0.609375q-0.296875 0.078125 -0.53125 0.078125q-0.390625 0 -0.609375 -0.125q-0.203125 -0.125 -0.296875 -0.3125q-0.078125 -0.203125 -0.078125 -0.84375l0 -2.390625l-0.515625 0l0 -0.546875l0.515625 0l0 -1.015625l0.703125 -0.421875l0 1.4375l0.703125 0l0 0.546875l-0.703125 0l0 2.4375q0 0.296875 0.03125 0.390625q0.046875 0.078125 0.125 0.125q0.078125 0.046875 0.234375 0.046875q0.125 0 0.3125 -0.015625zm3.5351562 -0.71875l0.71875 0.09375q-0.171875 0.640625 -0.640625 1.0q-0.453125 0.34375 -1.1875 0.34375q-0.90625 0 -1.4375 -0.5625q-0.53125 -0.5625 -0.53125 -1.578125q0 -1.046875 0.53125 -1.625q0.546875 -0.578125 1.40625 -0.578125q0.828125 0 1.359375 0.578125q0.53125 0.5625 0.53125 1.59375q0 0.0625 -0.015625 0.1875l-3.09375 0q0.046875 0.671875 0.390625 1.046875q0.34375 0.359375 0.875 0.359375q0.375 0 0.640625 -0.203125q0.28125 -0.203125 0.453125 -0.65625zm-2.3125 -1.125l2.3125 0q-0.046875 -0.53125 -0.265625 -0.796875q-0.328125 -0.40625 -0.875 -0.40625q-0.484375 0 -0.8125 0.328125q-0.328125 0.328125 -0.359375 0.875zm3.9023438 2.46875l0 -4.15625l0.640625 0l0 0.640625q0.234375 -0.453125 0.4375 -0.59375q0.21875 -0.140625 0.453125 -0.140625q0.359375 0 0.734375 0.234375l-0.25 0.65625q-0.25 -0.15625 -0.515625 -0.15625q-0.234375 0 -0.421875 0.140625q-0.171875 0.140625 -0.25 0.375q-0.125 0.375 -0.125 0.828125l0 2.171875l-0.703125 0zm2.3984375 -1.234375l0.6875 -0.109375q0.0625 0.40625 0.328125 0.640625q0.265625 0.21875 0.75 0.21875q0.484375 0 0.71875 -0.1875q0.234375 -0.203125 0.234375 -0.46875q0 -0.25 -0.203125 -0.375q-0.140625 -0.09375 -0.71875 -0.25q-0.78125 -0.1875 -1.078125 -0.328125q-0.296875 -0.140625 -0.453125 -0.390625q-0.15625 -0.265625 -0.15625 -0.5625q0 -0.28125 0.125 -0.515625q0.140625 -0.234375 0.359375 -0.390625q0.15625 -0.125 0.4375 -0.203125q0.28125 -0.09375 0.609375 -0.09375q0.484375 0 0.859375 0.140625q0.375 0.140625 0.546875 0.390625q0.171875 0.234375 0.234375 0.640625l-0.6875 0.09375q-0.046875 -0.328125 -0.265625 -0.5q-0.21875 -0.1875 -0.640625 -0.1875q-0.484375 0 -0.6875 0.171875q-0.203125 0.15625 -0.203125 0.375q0 0.125 0.078125 0.234375q0.09375 0.125 0.28125 0.1875q0.09375 0.046875 0.609375 0.1875q0.75 0.203125 1.046875 0.328125q0.296875 0.125 0.453125 0.375q0.171875 0.234375 0.171875 0.59375q0 0.34375 -0.203125 0.65625q-0.203125 0.3125 -0.59375 0.484375q-0.375 0.171875 -0.875 0.171875q-0.796875 0 -1.234375 -0.328125q-0.421875 -0.34375 -0.53125 -1.0z" fill-rule="nonzero"></path><path fill="#000000" fill-opacity="0.0" d="m366.91202 46.11759l0.28344727 27.590553" fill-rule="evenodd"></path><path stroke="#cccccc" stroke-width="1.0" stroke-linejoin="round" stroke-linecap="butt" d="m366.912 46.11759l0.22183228 21.590866" fill-rule="evenodd"></path><path fill="#cccccc" stroke="#cccccc" stroke-width="1.0" stroke-linecap="butt" d="m365.48218 67.725426l1.6982727 4.5208893l1.605011 -4.554825z" fill-rule="evenodd"></path></g></svg>

