<?xml version="1.0" encoding="utf-8"?>
<!-- Generator: Adobe Illustrator 16.0.0, SVG Export Plug-In . SVG Version: 6.00 Build 0)  -->
<!DOCTYPE svg PUBLIC "-//W3C//DTD SVG 1.1//EN" "http://www.w3.org/Graphics/SVG/1.1/DTD/svg11.dtd">
<svg version="1.1" id="Layer_1" xmlns="http://www.w3.org/2000/svg" xmlns:xlink="http://www.w3.org/1999/xlink" x="0px" y="0px"
	 width="18px" height="18px" viewBox="5 5 18 18" enable-background="new 5 5 18 18" xml:space="preserve">
<g>
	<path fill="#27949F" d="M23,5H12.417l3.054,2.928l-4.51,4.509c-0.458,0.458-0.458,1.201,0,1.658l2.901,2.901
		c0.457,0.458,1.199,0.458,1.658,0l4.479-4.604L23,15.391V5z"/>
	<path fill="#27949F" d="M18,16.816v2.517C18,20.252,17.836,21,16.917,21h-8C7.998,21,7,20.252,7,19.333v-8
		C7,10.415,7.998,10,8.917,10h2.01l2-2h-4.01C6.895,8,5,9.312,5,11.333v8C5,21.355,6.895,23,8.917,23h8
		C18.938,23,20,21.355,20,19.333v-4.517L18,16.816z"/>
</g>
</svg>
