<?xml version="1.0" encoding="utf-8"?>
<!-- Generator: Adobe Illustrator 16.0.0, SVG Export Plug-In . SVG Version: 6.00 Build 0)  -->
<!DOCTYPE svg PUBLIC "-//W3C//DTD SVG 1.1//EN" "http://www.w3.org/Graphics/SVG/1.1/DTD/svg11.dtd">
<svg version="1.1" id="Layer_1" xmlns="http://www.w3.org/2000/svg" xmlns:xlink="http://www.w3.org/1999/xlink" x="0px" y="0px"
	 width="53.023px" height="49.805px" viewBox="0 0 53.023 49.805" enable-background="new 0 0 53.023 49.805" xml:space="preserve">
<path fill="#2E2E2E" d="M26.512,9.015c-8.995,0-16.289,7.293-16.289,16.291c0,7.196,4.667,13.302,11.141,15.456
	c0.814,0.149,1.112-0.354,1.112-0.785c0-0.387-0.015-1.411-0.021-2.771c-4.531,0.983-5.487-2.185-5.487-2.185
	c-0.74-1.882-1.809-2.383-1.809-2.383c-1.479-1.011,0.111-0.99,0.111-0.99c1.635,0.115,2.495,1.68,2.495,1.68
	c1.453,2.488,3.812,1.771,4.74,1.354c0.147-1.053,0.569-1.771,1.034-2.178c-3.617-0.411-7.42-1.81-7.42-8.051
	c0-1.778,0.635-3.232,1.677-4.371c-0.167-0.412-0.728-2.068,0.16-4.312c0,0,1.367-0.438,4.479,1.67
	c1.299-0.36,2.692-0.542,4.078-0.548c1.384,0.006,2.776,0.188,4.078,0.548c3.11-2.107,4.476-1.67,4.476-1.67
	c0.89,2.243,0.329,3.899,0.162,4.312c1.043,1.139,1.674,2.593,1.674,4.371c0,6.258-3.809,7.635-7.438,8.038
	c0.585,0.503,1.104,1.496,1.104,3.017c0,2.178-0.02,3.935-0.02,4.469c0,0.437,0.293,0.942,1.12,0.783
	c6.468-2.158,11.13-8.26,11.13-15.454C42.802,16.308,35.509,9.015,26.512,9.015z"/>
</svg>
