<?xml version="1.0" encoding="utf-8"?>
<!-- Generator: Adobe Illustrator 16.0.0, SVG Export Plug-In . SVG Version: 6.00 Build 0)  -->
<!DOCTYPE svg PUBLIC "-//W3C//DTD SVG 1.1//EN" "http://www.w3.org/Graphics/SVG/1.1/DTD/svg11.dtd">
<svg version="1.1" id="Layer_1" xmlns="http://www.w3.org/2000/svg" xmlns:xlink="http://www.w3.org/1999/xlink" x="0px" y="0px"
	 width="54.767px" height="54.765px" viewBox="0 0 54.767 54.765" enable-background="new 0 0 54.767 54.765" xml:space="preserve">
<path fill-rule="evenodd" clip-rule="evenodd" fill="#B8B8B8" d="M27.383,9.883c-9.908,0-17.942,8.033-17.942,17.944
	c0,7.927,5.141,14.652,12.271,17.025c0.897,0.164,1.225-0.39,1.225-0.865c0-0.426-0.016-1.554-0.024-3.052
	c-4.991,1.085-6.044-2.405-6.044-2.405c-0.815-2.073-1.992-2.625-1.992-2.625c-1.629-1.114,0.123-1.091,0.123-1.091
	c1.801,0.127,2.748,1.849,2.748,1.849c1.602,2.742,4.2,1.95,5.223,1.491c0.162-1.16,0.626-1.95,1.139-2.398
	c-3.984-0.453-8.173-1.993-8.173-8.868c0-1.959,0.699-3.561,1.847-4.814c-0.185-0.454-0.8-2.278,0.176-4.749
	c0,0,1.507-0.482,4.935,1.84c1.432-0.398,2.966-0.597,4.492-0.604c1.523,0.007,3.059,0.206,4.492,0.604
	c3.425-2.322,4.929-1.84,4.929-1.84c0.979,2.471,0.363,4.295,0.179,4.749c1.149,1.254,1.844,2.855,1.844,4.814
	c0,6.893-4.194,8.41-8.192,8.854c0.645,0.554,1.219,1.649,1.219,3.323c0,2.398-0.022,4.334-0.022,4.922
	c0,0.479,0.323,1.038,1.234,0.863c7.123-2.378,12.26-9.098,12.26-17.023C45.326,17.916,37.292,9.883,27.383,9.883z"/>
</svg>
