<?xml version="1.0" encoding="UTF-8" standalone="no"?>
<!-- Generator: Adobe Illustrator 19.1.0, SVG Export Plug-In . SVG Version: 6.00 Build 0)  -->

<svg
   xmlns:dc="http://purl.org/dc/elements/1.1/"
   xmlns:cc="http://creativecommons.org/ns#"
   xmlns:rdf="http://www.w3.org/1999/02/22-rdf-syntax-ns#"
   xmlns:svg="http://www.w3.org/2000/svg"
   xmlns="http://www.w3.org/2000/svg"
   xmlns:sodipodi="http://sodipodi.sourceforge.net/DTD/sodipodi-0.dtd"
   xmlns:inkscape="http://www.inkscape.org/namespaces/inkscape"
   version="1.1"
   id="Layer_1"
   x="0px"
   y="0px"
   viewBox="0 0 746.20004 332.70535"
   enable-background="new 0 0 746.1 510.7"
   xml:space="preserve"
   sodipodi:docname="routing.svg"
   width="746.20001"
   height="332.70535"
   inkscape:version="0.92.1 r"><metadata
     id="metadata12729"><rdf:RDF><cc:Work
         rdf:about=""><dc:format>image/svg+xml</dc:format><dc:type
           rdf:resource="http://purl.org/dc/dcmitype/StillImage" /><dc:title></dc:title></cc:Work></rdf:RDF></metadata><defs
     id="defs12727" /><sodipodi:namedview
     pagecolor="#ffffff"
     bordercolor="#666666"
     borderopacity="1"
     objecttolerance="10"
     gridtolerance="10"
     guidetolerance="10"
     inkscape:pageopacity="0"
     inkscape:pageshadow="2"
     inkscape:window-width="1343"
     inkscape:window-height="785"
     id="namedview12725"
     showgrid="false"
     fit-margin-top="0"
     fit-margin-left="0"
     fit-margin-right="0"
     fit-margin-bottom="0"
     inkscape:zoom="1"
     inkscape:cx="357.68762"
     inkscape:cy="79.417908"
     inkscape:window-x="1691"
     inkscape:window-y="216"
     inkscape:window-maximized="0"
     inkscape:current-layer="g12722" /><g
     id="g12722"
     transform="translate(0,-0.09464286)"><g
       id="g12434"><g
         id="g12428"><path
           d="m 737.9,115.8 h -98.6 c -4.6,0 -8.3,-3.7 -8.3,-8.3 V 8.9 c 0,-4.6 3.7,-8.3 8.3,-8.3 h 98.6 c 4.6,0 8.3,3.7 8.3,8.3 v 98.6 c -0.1,4.6 -3.8,8.3 -8.3,8.3 z"
           id="path12426"
           inkscape:connector-curvature="0"
           style="fill:#ffffff" /></g><g
         id="g12432"><path
           d="m 693.1,85.9 c -0.9,0 -1.9,-0.1 -2.8,-0.2 -15.1,-1.6 -25.2,-12.7 -25.2,-27.6 0,-15.2 12.4,-27.6 27.6,-27.6 12.3,0 16.5,6.3 16.9,7 l -6,3.6 0.1,0.1 c -0.1,-0.2 -2.7,-3.7 -11,-3.7 -11.4,0 -20.6,9.2 -20.6,20.6 0,11.3 7.4,19.4 19,20.6 2.1,0.2 9.4,0.5 15.1,-5.1 1.4,-1.4 3.6,-1.4 4.9,0 1.4,1.4 1.4,3.6 0,5 -4.7,4.7 -11.2,7.3 -18,7.3 z"
           id="path12430"
           inkscape:connector-curvature="0"
           style="fill:#452845" /></g></g><g
       id="g12444"><g
         id="g12438"><path
           d="m 492.9,115.8 h -98.6 c -4.6,0 -8.3,-3.7 -8.3,-8.3 V 8.9 c 0,-4.6 3.7,-8.3 8.3,-8.3 h 98.6 c 4.6,0 8.3,3.7 8.3,8.3 v 98.6 c -0.1,4.6 -3.8,8.3 -8.3,8.3 z"
           id="path12436"
           inkscape:connector-curvature="0"
           style="fill:#ffffff" /></g><g
         id="g12442"><path
           d="m 443.8,87.3 c -2.3,0 -4.8,-0.3 -7.2,-0.4 -3.1,-0.1 -6.2,-0.5 -9.6,-0.5 h -3.5 V 49.6 c 0,-11.3 9.1,-20.5 20.3,-20.5 8.6,0 17.3,5.3 17.3,15.6 0,5.4 -1.6,9.6 -4.6,12.4 1.7,1 3.1,2.2 4.3,3.6 3,3.8 3.7,9 2.1,15.5 -2.4,9.5 -10,11.1 -19.1,11.1 z m -13.3,-7.5 c 2.3,0.1 4.4,0.2 6.4,0.2 16.1,0.7 18,-0.9 19.2,-5.6 1.1,-4.2 0.8,-7.4 -0.8,-9.5 -2.1,-2.7 -6.7,-3.5 -10.5,-3.6 -0.4,0 -0.8,0 -1.3,0 h -13 z m 0,-25.4 h 12.4 c 0.6,-0.1 1.2,0 1.8,0 8.2,-0.4 9.4,-4.9 9.4,-9.7 0,-3.9 -2.7,-8.6 -10.3,-8.6 -7.3,0 -13.3,6 -13.3,13.5 z"
           id="path12440"
           inkscape:connector-curvature="0"
           style="fill:#452845" /></g></g><g
       id="g12448"><path
         d="m 737.9,332.8 h -98.6 c -4.6,0 -8.3,-3.7 -8.3,-8.3 v -98.6 c 0,-4.6 3.7,-8.3 8.3,-8.3 h 98.6 c 4.6,0 8.3,3.7 8.3,8.3 v 98.6 c -0.1,4.6 -3.8,8.3 -8.3,8.3 z"
         id="path12446"
         inkscape:connector-curvature="0"
         style="fill:#ffffff" /></g><g
       id="g12458"><g
         id="g12452"><path
           d="m 492.9,332.8 h -98.6 c -4.6,0 -8.3,-3.7 -8.3,-8.3 v -98.6 c 0,-4.6 3.7,-8.3 8.3,-8.3 h 98.6 c 4.6,0 8.3,3.7 8.3,8.3 v 98.6 c -0.1,4.6 -3.8,8.3 -8.3,8.3 z"
           id="path12450"
           inkscape:connector-curvature="0"
           style="fill:#ffffff" /></g><g
         id="g12456"><path
           d="m 443.8,304.3 c -2.3,0 -4.8,-0.3 -7.2,-0.4 -3.1,-0.1 -6.2,-0.5 -9.6,-0.5 h -3.5 v -36.8 c 0,-11.3 9.1,-20.5 20.3,-20.5 8.6,0 17.3,5.3 17.3,15.6 0,5.4 -1.6,9.6 -4.6,12.4 1.7,1 3.1,2.2 4.3,3.6 3,3.8 3.7,9 2.1,15.5 -2.4,9.5 -10,11.1 -19.1,11.1 z m -13.3,-7.5 c 2.3,0.1 4.4,0.2 6.4,0.2 16.1,0.7 18,-0.9 19.2,-5.6 1.1,-4.2 0.8,-7.4 -0.8,-9.5 -2.1,-2.7 -6.7,-3.5 -10.5,-3.6 -0.4,0 -0.8,0 -1.3,0 h -13 z m 0,-25.4 h 12.4 c 0.6,-0.1 1.2,0 1.8,0 8.2,-0.4 9.4,-4.9 9.4,-9.7 0,-3.9 -2.7,-8.6 -10.3,-8.6 -7.3,0 -13.3,6 -13.3,13.5 z"
           id="path12454"
           inkscape:connector-curvature="0"
           style="fill:#452845" /></g></g><g
       id="g12474"><g
         id="g12462"><path
           d="m 247.9,115.8 h -98.6 c -4.6,0 -8.3,-3.7 -8.3,-8.3 V 8.9 c 0,-4.6 3.7,-8.3 8.3,-8.3 h 98.6 c 4.6,0 8.3,3.7 8.3,8.3 v 98.6 c 0,4.6 -3.7,8.3 -8.3,8.3 z"
           id="path12460"
           inkscape:connector-curvature="0"
           style="fill:#ffffff" /></g><g
         id="g12472"><g
           id="g12466"><path
             d="m 215.6,87.8 c -1.9,0 -3.5,-1.6 -3.5,-3.5 V 50.9 c 0,-7.4 -6,-13.5 -13.5,-13.5 -7.5,0 -13.5,6 -13.5,13.5 v 33.4 c 0,1.9 -1.6,3.5 -3.5,3.5 -1.9,0 -3.5,-1.6 -3.5,-3.5 V 50.9 c 0,-11.3 9.2,-20.5 20.5,-20.5 11.3,0 20.5,9.2 20.5,20.5 v 33.4 c 0,1.9 -1.6,3.5 -3.5,3.5 z"
             id="path12464"
             inkscape:connector-curvature="0"
             style="fill:#452845" /></g><g
           id="g12470"><path
             d="m 215.5,62.4 h -30 c -1.9,0 -3.5,-1.6 -3.5,-3.5 0,-1.9 1.6,-3.5 3.5,-3.5 h 30 c 1.9,0 3.5,1.6 3.5,3.5 0,1.9 -1.6,3.5 -3.5,3.5 z"
             id="path12468"
             inkscape:connector-curvature="0"
             style="fill:#452845" /></g></g></g><g
       id="g12478"><path
         d="m 361.8,75.7 c -1,0 -2,-0.4 -2.6,-1.2 -1.3,-1.5 -1.1,-3.7 0.4,-4.9 l 8.9,-7.7 -8.9,-7.7 c -1.5,-1.3 -1.6,-3.5 -0.3,-4.9 1.3,-1.5 3.5,-1.6 4.9,-0.3 l 14.9,13 -15,12.9 c -0.7,0.5 -1.5,0.8 -2.3,0.8 z"
         id="path12476"
         inkscape:connector-curvature="0"
         style="fill:#e95f6a" /></g><g
       id="g12482"><path
         d="m 688.6,146.8 c -1,0 -2,-0.4 -2.7,-1.2 l -7.7,-8.9 -7.7,8.9 c -1.3,1.5 -3.5,1.6 -4.9,0.3 -1.5,-1.3 -1.6,-3.5 -0.3,-4.9 l 13,-14.9 12.9,15 c 1.3,1.5 1.1,3.7 -0.4,4.9 -0.6,0.5 -1.4,0.8 -2.2,0.8 z"
         id="path12480"
         inkscape:connector-curvature="0"
         style="fill:#e95f6a" /></g><g
       id="g12486"><path
         d="m 603.8,319.7 c -1,0 -2,-0.4 -2.7,-1.2 -1.3,-1.5 -1.1,-3.7 0.4,-4.9 l 8.9,-7.7 -8.9,-7.7 c -1.5,-1.3 -1.6,-3.5 -0.3,-4.9 1.3,-1.5 3.5,-1.6 4.9,-0.3 l 14.9,13 -15,12.9 c -0.6,0.5 -1.4,0.8 -2.2,0.8 z"
         id="path12484"
         inkscape:connector-curvature="0"
         style="fill:#e95f6a" /></g><g
       id="g12490"><path
         d="m 306,100.4 h -39.5 c -1.9,0 -3.5,-1.6 -3.5,-3.5 0,-1.9 1.6,-3.5 3.5,-3.5 H 306 c 10.2,0 18.5,-8.3 18.5,-18.5 V 58.4 h 48 c 1.9,0 3.5,1.6 3.5,3.5 0,1.9 -1.6,3.5 -3.5,3.5 h -41 v 9.5 c 0,14.1 -11.4,25.5 -25.5,25.5 z"
         id="path12488"
         inkscape:connector-curvature="0"
         style="fill:#e95f6a" /></g><g
       id="g12494"><path
         d="m 465.4,207.3 c -1.9,0 -3.5,-1.6 -3.5,-3.5 v -32 h 194.4 c 10.2,0 18.5,-8.3 18.5,-18.5 v -13 c 0,-1.9 1.6,-3.5 3.5,-3.5 1.9,0 3.5,1.6 3.5,3.5 v 13 c 0,14.1 -11.4,25.5 -25.5,25.5 H 468.9 v 25 c 0,1.9 -1.6,3.5 -3.5,3.5 z"
         id="path12492"
         inkscape:connector-curvature="0"
         style="fill:#e95f6a" /></g><g
       id="g12498"><path
         d="m 604.8,75.7 c -1,0 -2,-0.4 -2.6,-1.2 -1.3,-1.5 -1.1,-3.7 0.4,-4.9 l 8.9,-7.7 -8.9,-7.7 c -1.5,-1.3 -1.6,-3.5 -0.3,-4.9 1.3,-1.5 3.5,-1.6 4.9,-0.3 l 14.9,13 -15,12.9 c -0.7,0.5 -1.5,0.8 -2.3,0.8 z"
         id="path12496"
         inkscape:connector-curvature="0"
         style="fill:#e95f6a" /></g><g
       id="g12502"><path
         d="m 615.5,65.4 h -99 c -1.9,0 -3.5,-1.6 -3.5,-3.5 0,-1.9 1.6,-3.5 3.5,-3.5 h 99 c 1.9,0 3.5,1.6 3.5,3.5 0,1.9 -1.6,3.5 -3.5,3.5 z"
         id="path12500"
         inkscape:connector-curvature="0"
         style="fill:#e95f6a" /></g><g
       id="g12506"><path
         d="m 683.8,302.8 h -16.2 v -55.2 h 18.5 c 15.1,1.6 25.2,12.7 25.2,27.6 0.1,15.2 -12.2,27.6 -27.5,27.6 z m -9.1,-7 h 9.2 c 11.4,0 20.6,-9.2 20.6,-20.6 0,-11.2 -7.4,-19.3 -18.8,-20.6 h -11 z"
         id="path12504"
         inkscape:connector-curvature="0"
         style="fill:#452845" /></g><g
       id="g12510"><path
         d="m 473,257.9 c -1.9,0 -3.5,-1.6 -3.5,-3.5 0,-2.1 -1.3,-5.6 -2.5,-6.8 -1.4,-1.4 -1.4,-3.6 0,-5 1.4,-1.4 3.6,-1.4 5,0 2.8,2.8 4.5,8.3 4.5,11.7 0,2 -1.6,3.6 -3.5,3.6 z"
         id="path12508"
         inkscape:connector-curvature="0"
         style="fill:#452845" /></g><g
       id="g12532"><g
         id="g12514"><path
           d="m 217,143.9 c -1.9,0 -3.5,-1.6 -3.5,-3.5 v -9 c 0,-1.9 1.6,-3.5 3.5,-3.5 1.9,0 3.5,1.6 3.5,3.5 v 9 c 0,1.9 -1.6,3.5 -3.5,3.5 z"
           id="path12512"
           inkscape:connector-curvature="0"
           style="fill:#e95f6a" /></g><g
         id="g12518"><path
           d="m 217,245.9 c -1.9,0 -3.5,-1.6 -3.5,-3.5 v -17 c 0,-1.9 1.6,-3.5 3.5,-3.5 1.9,0 3.5,1.6 3.5,3.5 v 17 c 0,1.9 -1.6,3.5 -3.5,3.5 z m 0,-34 c -1.9,0 -3.5,-1.6 -3.5,-3.5 v -17 c 0,-1.9 1.6,-3.5 3.5,-3.5 1.9,0 3.5,1.6 3.5,3.5 v 17 c 0,1.9 -1.6,3.5 -3.5,3.5 z m 0,-34 c -1.9,0 -3.5,-1.6 -3.5,-3.5 v -17 c 0,-1.9 1.6,-3.5 3.5,-3.5 1.9,0 3.5,1.6 3.5,3.5 v 17 c 0,1.9 -1.6,3.5 -3.5,3.5 z"
           id="path12516"
           inkscape:connector-curvature="0"
           style="fill:#e95f6a" /></g><g
         id="g12522"><path
           d="m 225.5,271.4 h -12 v -12 c 0,-1.9 1.6,-3.5 3.5,-3.5 1.9,0 3.5,1.6 3.5,3.5 v 5 h 5 c 1.9,0 3.5,1.6 3.5,3.5 0,1.9 -1.6,3.5 -3.5,3.5 z"
           id="path12520"
           inkscape:connector-curvature="0"
           style="fill:#e95f6a" /></g><g
         id="g12526"><path
           d="m 345.5,271.4 h -15 c -1.9,0 -3.5,-1.6 -3.5,-3.5 0,-1.9 1.6,-3.5 3.5,-3.5 h 15 c 1.9,0 3.5,1.6 3.5,3.5 0,1.9 -1.6,3.5 -3.5,3.5 z m -30,0 h -15 c -1.9,0 -3.5,-1.6 -3.5,-3.5 0,-1.9 1.6,-3.5 3.5,-3.5 h 15 c 1.9,0 3.5,1.6 3.5,3.5 0,1.9 -1.6,3.5 -3.5,3.5 z m -30,0 h -15 c -1.9,0 -3.5,-1.6 -3.5,-3.5 0,-1.9 1.6,-3.5 3.5,-3.5 h 15 c 1.9,0 3.5,1.6 3.5,3.5 0,1.9 -1.6,3.5 -3.5,3.5 z m -30,0 h -15 c -1.9,0 -3.5,-1.6 -3.5,-3.5 0,-1.9 1.6,-3.5 3.5,-3.5 h 15 c 1.9,0 3.5,1.6 3.5,3.5 0,1.9 -1.6,3.5 -3.5,3.5 z"
           id="path12524"
           inkscape:connector-curvature="0"
           style="fill:#e95f6a" /></g><g
         id="g12530"><path
           d="m 370.5,271.4 h -9 c -1.9,0 -3.5,-1.6 -3.5,-3.5 0,-1.9 1.6,-3.5 3.5,-3.5 h 9 c 1.9,0 3.5,1.6 3.5,3.5 0,1.9 -1.6,3.5 -3.5,3.5 z"
           id="path12528"
           inkscape:connector-curvature="0"
           style="fill:#e95f6a" /></g></g><g
       id="g12536"><path
         d="m 612.5,279.4 h -14 c -1.9,0 -3.5,-1.6 -3.5,-3.5 0,-1.9 1.6,-3.5 3.5,-3.5 h 14 c 1.9,0 3.5,1.6 3.5,3.5 0,1.9 -1.6,3.5 -3.5,3.5 z m -28,0 h -14 c -1.9,0 -3.5,-1.6 -3.5,-3.5 0,-1.9 1.6,-3.5 3.5,-3.5 h 14 c 1.9,0 3.5,1.6 3.5,3.5 0,1.9 -1.6,3.5 -3.5,3.5 z m -28,0 h -14 c -1.9,0 -3.5,-1.6 -3.5,-3.5 0,-1.9 1.6,-3.5 3.5,-3.5 h 14 c 1.9,0 3.5,1.6 3.5,3.5 0,1.9 -1.6,3.5 -3.5,3.5 z m -28,0 h -14 c -1.9,0 -3.5,-1.6 -3.5,-3.5 0,-1.9 1.6,-3.5 3.5,-3.5 h 14 c 1.9,0 3.5,1.6 3.5,3.5 0,1.9 -1.6,3.5 -3.5,3.5 z"
         id="path12534"
         inkscape:connector-curvature="0"
         style="fill:#e95f6a" /></g><g
       id="g12540"><path
         d="m 613.5,309.4 h -99 c -1.9,0 -3.5,-1.6 -3.5,-3.5 0,-1.9 1.6,-3.5 3.5,-3.5 h 99 c 1.9,0 3.5,1.6 3.5,3.5 0,1.9 -1.6,3.5 -3.5,3.5 z"
         id="path12538"
         inkscape:connector-curvature="0"
         style="fill:#e95f6a" /></g><g
       id="g12572"><g
         id="g12550"><g
           id="g12544"><path
             d="m 92.8,27.7 c -1,0 -2,-0.4 -2.6,-1.2 -1.3,-1.5 -1.1,-3.7 0.4,-4.9 L 99.5,13.9 90.6,6.2 C 89.1,4.9 89,2.7 90.3,1.3 91.6,-0.2 93.8,-0.3 95.2,1 L 110.1,14 95,26.8 c -0.6,0.6 -1.4,0.9 -2.2,0.9 z"
             id="path12542"
             inkscape:connector-curvature="0"
             style="fill:#e95f6a" /></g><g
           id="g12548"><path
             d="M 102.5,17.4 H 3.5 C 1.6,17.4 0,15.8 0,13.9 0,12 1.6,10.4 3.5,10.4 h 99 c 1.9,0 3.5,1.6 3.5,3.5 0,1.9 -1.6,3.5 -3.5,3.5 z"
             id="path12546"
             inkscape:connector-curvature="0"
             style="fill:#e95f6a" /></g></g><g
         id="g12560"><g
           id="g12554"><path
             d="m 92.8,71.7 c -1,0 -2,-0.4 -2.6,-1.2 -1.3,-1.5 -1.1,-3.7 0.4,-4.9 l 8.9,-7.7 -8.9,-7.7 C 89.1,48.9 89,46.7 90.3,45.3 91.6,43.8 93.8,43.7 95.2,45 L 110.1,58 95,70.8 c -0.6,0.6 -1.4,0.9 -2.2,0.9 z"
             id="path12552"
             inkscape:connector-curvature="0"
             style="fill:#e95f6a" /></g><g
           id="g12558"><path
             d="M 102.5,61.4 H 3.5 C 1.6,61.4 0,59.8 0,57.9 0,56 1.6,54.4 3.5,54.4 h 99 c 1.9,0 3.5,1.6 3.5,3.5 0,1.9 -1.6,3.5 -3.5,3.5 z"
             id="path12556"
             inkscape:connector-curvature="0"
             style="fill:#e95f6a" /></g></g><g
         id="g12570"><g
           id="g12564"><path
             d="m 92.8,116.7 c -1,0 -2,-0.4 -2.6,-1.2 -1.3,-1.5 -1.1,-3.7 0.4,-4.9 l 8.9,-7.7 -8.9,-7.7 C 89.1,93.9 89,91.7 90.3,90.3 91.6,88.8 93.8,88.7 95.2,90 l 14.9,13 -15,12.9 c -0.7,0.5 -1.5,0.8 -2.3,0.8 z"
             id="path12562"
             inkscape:connector-curvature="0"
             style="fill:#e95f6a" /></g><g
           id="g12568"><path
             d="M 102.5,106.4 H 3.5 C 1.6,106.4 0,104.8 0,102.9 0,101 1.6,99.4 3.5,99.4 h 99 c 1.9,0 3.5,1.6 3.5,3.5 0,1.9 -1.6,3.5 -3.5,3.5 z"
             id="path12566"
             inkscape:connector-curvature="0"
             style="fill:#e95f6a" /></g></g></g><g
       id="g12606"
       style="fill:#452845;fill-opacity:1;stroke:none;stroke-opacity:1"><g
         id="g12576"
         style="fill:#452845;fill-opacity:1;stroke:none;stroke-opacity:1"><path
           d="m 17.3,139.8 c 0,2 -0.8,3.3 -2.4,3.9 l 3.2,4.5 h -3.5 l -2.8,-4 H 9.9 v 4 H 7 v -12.6 h 4.8 c 2,0 3.4,0.3 4.2,1 0.8,0.7 1.3,1.8 1.3,3.2 z m -3.4,1.5 c 0.3,-0.3 0.5,-0.8 0.5,-1.5 0,-0.7 -0.2,-1.1 -0.5,-1.4 -0.4,-0.3 -1,-0.4 -1.9,-0.4 H 9.9 v 3.7 H 12 c 0.9,0.1 1.5,-0.1 1.9,-0.4 z"
           id="path12574"
           inkscape:connector-curvature="0"
           style="fill:#452845;fill-opacity:1;stroke:none;stroke-opacity:1" /></g><g
         id="g12580"
         style="fill:#452845;fill-opacity:1;stroke:none;stroke-opacity:1"><path
           d="m 28.3,146.8 c -1.1,1 -2.4,1.5 -3.8,1.5 -1.5,0 -2.7,-0.5 -3.6,-1.4 -0.9,-0.9 -1.4,-2.1 -1.4,-3.6 0,-1.5 0.5,-2.7 1.5,-3.6 1,-0.9 2.1,-1.3 3.5,-1.3 1.4,0 2.5,0.4 3.4,1.2 0.9,0.8 1.4,1.9 1.4,3.3 v 1.4 H 22 c 0.1,0.5 0.4,1 0.8,1.3 0.5,0.3 1,0.5 1.6,0.5 0.9,0 1.7,-0.3 2.3,-1 z m -2.6,-5.7 c -0.4,-0.3 -0.8,-0.5 -1.4,-0.5 -0.6,0 -1,0.2 -1.5,0.5 -0.4,0.3 -0.7,0.8 -0.8,1.3 h 4.2 c 0,-0.5 -0.2,-1 -0.5,-1.3 z"
           id="path12578"
           inkscape:connector-curvature="0"
           style="fill:#452845;fill-opacity:1;stroke:none;stroke-opacity:1" /></g><g
         id="g12584"
         style="fill:#452845;fill-opacity:1;stroke:none;stroke-opacity:1"><path
           d="m 31.8,147 c -0.9,-0.9 -1.4,-2.1 -1.4,-3.6 0,-1.5 0.5,-2.7 1.3,-3.6 0.9,-0.9 1.9,-1.4 3,-1.4 1.1,0 2.1,0.4 2.9,1.2 v -1.1 h 2.7 v 13.2 h -2.7 v -4.3 c -0.8,0.6 -1.6,0.9 -2.6,0.9 -1.2,0.1 -2.2,-0.4 -3.2,-1.3 z m 1.4,-3.6 c 0,0.8 0.2,1.4 0.7,1.9 0.5,0.5 1,0.7 1.6,0.7 0.6,0 1.2,-0.2 1.6,-0.7 0.4,-0.5 0.6,-1.1 0.6,-1.9 0,-0.8 -0.2,-1.4 -0.6,-2 -0.4,-0.5 -1,-0.8 -1.6,-0.8 -0.6,0 -1.2,0.3 -1.6,0.8 -0.5,0.6 -0.7,1.2 -0.7,2 z"
           id="path12582"
           inkscape:connector-curvature="0"
           style="fill:#452845;fill-opacity:1;stroke:none;stroke-opacity:1" /></g><g
         id="g12588"
         style="fill:#452845;fill-opacity:1;stroke:none;stroke-opacity:1"><path
           d="m 49.2,143.8 v -5.2 h 2.7 v 9.7 H 49.2 V 147 c -0.7,0.9 -1.5,1.4 -2.6,1.4 -1.1,0 -2,-0.3 -2.7,-1 -0.7,-0.7 -1.1,-1.7 -1.1,-3 v -5.9 h 2.7 v 5.3 c 0,1.5 0.5,2.2 1.6,2.2 0.5,0 1,-0.2 1.4,-0.6 0.5,-0.3 0.7,-0.9 0.7,-1.6 z"
           id="path12586"
           inkscape:connector-curvature="0"
           style="fill:#452845;fill-opacity:1;stroke:none;stroke-opacity:1" /></g><g
         id="g12592"
         style="fill:#452845;fill-opacity:1;stroke:none;stroke-opacity:1"><path
           d="m 62.9,146.8 c -1.1,1 -2.4,1.5 -3.8,1.5 -1.5,0 -2.7,-0.5 -3.6,-1.4 -0.9,-0.9 -1.4,-2.1 -1.4,-3.6 0,-1.5 0.5,-2.7 1.5,-3.6 1,-0.9 2.1,-1.3 3.5,-1.3 1.4,0 2.5,0.4 3.4,1.2 0.9,0.8 1.4,1.9 1.4,3.3 v 1.4 h -7.1 c 0.1,0.5 0.4,1 0.8,1.3 0.5,0.3 1,0.5 1.6,0.5 0.9,0 1.7,-0.3 2.3,-1 z m -2.6,-5.7 c -0.4,-0.3 -0.8,-0.5 -1.4,-0.5 -0.6,0 -1,0.2 -1.5,0.5 -0.4,0.3 -0.7,0.8 -0.8,1.3 h 4.2 c 0.1,-0.5 -0.1,-1 -0.5,-1.3 z"
           id="path12590"
           inkscape:connector-curvature="0"
           style="fill:#452845;fill-opacity:1;stroke:none;stroke-opacity:1" /></g><g
         id="g12596"
         style="fill:#452845;fill-opacity:1;stroke:none;stroke-opacity:1"><path
           d="m 72.9,145.2 c 0,1 -0.4,1.7 -1.1,2.3 -0.7,0.6 -1.6,0.9 -2.7,0.9 -0.7,0 -1.5,-0.1 -2.2,-0.4 -0.7,-0.3 -1.5,-0.6 -2.1,-1.1 l 1.2,-1.7 c 1,0.8 2.1,1.2 3.2,1.2 0.3,0 0.6,-0.1 0.8,-0.2 0.2,-0.1 0.3,-0.3 0.3,-0.5 0,-0.2 -0.1,-0.4 -0.4,-0.6 -0.3,-0.2 -0.7,-0.4 -1.2,-0.5 -0.5,-0.1 -0.9,-0.3 -1.2,-0.4 -0.3,-0.1 -0.6,-0.3 -1,-0.5 -0.7,-0.5 -1.1,-1.1 -1.1,-2 0,-0.9 0.4,-1.6 1.1,-2.2 0.7,-0.6 1.7,-0.8 2.8,-0.8 1.1,0 2.3,0.4 3.4,1.2 l -1,1.8 c -0.8,-0.6 -1.7,-0.9 -2.5,-0.9 -0.8,0 -1.3,0.2 -1.3,0.7 0,0.3 0.1,0.5 0.4,0.6 0.3,0.1 0.7,0.3 1.3,0.5 0.6,0.2 1,0.3 1.3,0.4 0.3,0.1 0.6,0.3 0.9,0.5 0.8,0.1 1.1,0.8 1.1,1.7 z"
           id="path12594"
           inkscape:connector-curvature="0"
           style="fill:#452845;fill-opacity:1;stroke:none;stroke-opacity:1" /></g><g
         id="g12600"
         style="fill:#452845;fill-opacity:1;stroke:none;stroke-opacity:1"><path
           d="m 78.1,140.5 v 4.3 c 0,0.4 0.1,0.7 0.3,0.9 0.2,0.2 0.4,0.3 0.7,0.3 0.5,0 0.9,-0.2 1.3,-0.7 l 1,1.9 c -0.8,0.8 -1.7,1.2 -2.7,1.2 -0.9,0 -1.7,-0.3 -2.4,-0.9 -0.6,-0.6 -1,-1.4 -1,-2.5 v -4.5 h -1.1 v -1.9 h 1.1 v -2.9 H 78 v 2.9 h 2.3 v 1.9 z"
           id="path12598"
           inkscape:connector-curvature="0"
           style="fill:#452845;fill-opacity:1;stroke:none;stroke-opacity:1" /></g><g
         id="g12604"
         style="fill:#452845;fill-opacity:1;stroke:none;stroke-opacity:1"><path
           d="m 90.1,145.2 c 0,1 -0.4,1.7 -1.1,2.3 -0.7,0.6 -1.6,0.9 -2.7,0.9 -0.7,0 -1.5,-0.1 -2.2,-0.4 -0.7,-0.3 -1.5,-0.6 -2.1,-1.1 l 1.2,-1.7 c 1,0.8 2.1,1.2 3.2,1.2 0.3,0 0.6,-0.1 0.8,-0.2 0.2,-0.1 0.3,-0.3 0.3,-0.5 0,-0.2 -0.1,-0.4 -0.4,-0.6 -0.3,-0.2 -0.7,-0.4 -1.2,-0.5 -0.5,-0.1 -0.9,-0.3 -1.2,-0.4 -0.3,-0.1 -0.6,-0.3 -1,-0.5 -0.7,-0.5 -1.1,-1.1 -1.1,-2 0,-0.9 0.4,-1.6 1.1,-2.2 0.7,-0.6 1.7,-0.8 2.8,-0.8 1.1,0 2.3,0.4 3.4,1.2 l -1,1.8 c -0.8,-0.6 -1.7,-0.9 -2.5,-0.9 -0.8,0 -1.3,0.2 -1.3,0.7 0,0.3 0.1,0.5 0.4,0.6 0.3,0.1 0.7,0.3 1.3,0.5 0.6,0.2 1,0.3 1.3,0.4 0.3,0.1 0.6,0.3 0.9,0.5 0.8,0.1 1.1,0.8 1.1,1.7 z"
           id="path12602"
           inkscape:connector-curvature="0"
           style="fill:#452845;fill-opacity:1;stroke:none;stroke-opacity:1" /></g></g><g
       id="g12620"
       style="fill:#452845;fill-opacity:1"><g
         id="g12610"
         style="fill:#452845;fill-opacity:1"><path
           d="m 274.5,74.1 v -4 h 9.1 v 2.1 l -5.1,10.5 h -3.1 l 4.9,-10.2 h -3.2 v 1.6 z"
           id="path12608"
           inkscape:connector-curvature="0"
           style="fill:#452845;fill-opacity:1" /></g><g
         id="g12614"
         style="fill:#452845;fill-opacity:1"><path
           d="m 290.3,82.8 c -1.7,0 -3,-0.6 -3.9,-1.8 -0.9,-1.2 -1.3,-2.8 -1.3,-4.7 0,-2 0.4,-3.6 1.3,-4.7 0.9,-1.2 2.2,-1.8 3.9,-1.8 1.7,0 3,0.6 3.9,1.8 0.9,1.2 1.3,2.8 1.3,4.7 0,2 -0.4,3.6 -1.3,4.7 -0.9,1.1 -2.2,1.8 -3.9,1.8 z m -1.9,-9.5 c -0.4,0.8 -0.6,1.8 -0.6,3 0,1.3 0.2,2.3 0.6,3 0.4,0.8 1,1.2 1.9,1.2 0.9,0 1.5,-0.4 1.9,-1.2 0.4,-0.8 0.6,-1.8 0.6,-3 0,-1.3 -0.2,-2.3 -0.6,-3 -0.4,-0.8 -1,-1.2 -1.9,-1.2 -0.9,0 -1.5,0.4 -1.9,1.2 z"
           id="path12612"
           inkscape:connector-curvature="0"
           style="fill:#452845;fill-opacity:1" /></g><g
         id="g12618"
         style="fill:#452845;fill-opacity:1"><path
           d="m 303,72.9 c 0,0.7 -0.3,1.3 -0.8,1.8 -0.5,0.5 -1.1,0.7 -1.9,0.7 -0.8,0 -1.4,-0.2 -1.9,-0.7 -0.5,-0.5 -0.8,-1.1 -0.8,-1.8 0,-0.7 0.3,-1.3 0.8,-1.8 0.5,-0.5 1.1,-0.7 1.9,-0.7 0.8,0 1.4,0.2 1.9,0.7 0.5,0.5 0.8,1.1 0.8,1.8 z m 6.9,-2.8 -9,12.6 h -3.1 l 9,-12.6 z m -10.1,3.5 c 0.1,0.2 0.3,0.2 0.5,0.2 0.2,0 0.4,-0.1 0.5,-0.2 0.1,-0.2 0.2,-0.4 0.2,-0.6 0,-0.3 -0.1,-0.5 -0.2,-0.7 -0.1,-0.2 -0.3,-0.3 -0.5,-0.3 -0.2,0 -0.4,0.1 -0.5,0.3 -0.1,0.2 -0.2,0.4 -0.2,0.7 0,0.2 0,0.4 0.2,0.6 z m 10.3,6.7 c 0,0.7 -0.3,1.3 -0.8,1.8 -0.5,0.5 -1.1,0.7 -1.9,0.7 -0.8,0 -1.4,-0.2 -1.9,-0.7 -0.5,-0.5 -0.8,-1.1 -0.8,-1.8 0,-0.7 0.3,-1.3 0.8,-1.8 0.5,-0.5 1.1,-0.7 1.9,-0.7 0.8,0 1.4,0.2 1.9,0.7 0.5,0.5 0.8,1.1 0.8,1.8 z m -3.2,0.6 c 0.1,0.2 0.3,0.2 0.5,0.2 0.2,0 0.4,-0.1 0.5,-0.2 0.1,-0.2 0.2,-0.4 0.2,-0.6 0,-0.2 -0.1,-0.5 -0.2,-0.7 -0.1,-0.2 -0.3,-0.3 -0.5,-0.3 -0.2,0 -0.4,0.1 -0.5,0.3 -0.1,0.2 -0.2,0.4 -0.2,0.7 0,0.3 0,0.5 0.2,0.6 z"
           id="path12616"
           inkscape:connector-curvature="0"
           style="fill:#452845;fill-opacity:1" /></g></g><g
       id="g12634"
       style="fill:#452845;fill-opacity:1"><g
         id="g12624"
         style="fill:#452845;fill-opacity:1"><path
           d="m 275,242.3 v -2.4 h 7.7 v 1.9 l -2.6,2.9 c 1,0.2 1.8,0.6 2.3,1.3 0.6,0.7 0.8,1.5 0.8,2.3 0,1.3 -0.4,2.4 -1.3,3.1 -0.9,0.8 -2,1.1 -3.4,1.1 -1.4,0 -2.8,-0.5 -4.2,-1.5 l 1.2,-2.2 c 1.2,0.8 2.2,1.3 3.2,1.3 0.6,0 1,-0.1 1.4,-0.4 0.4,-0.3 0.5,-0.7 0.5,-1.2 0,-0.5 -0.2,-0.9 -0.6,-1.2 -0.4,-0.3 -1,-0.5 -1.7,-0.5 -0.4,0 -1,0.1 -1.7,0.3 V 245 l 2.4,-2.8 h -4 z"
           id="path12622"
           inkscape:connector-curvature="0"
           style="fill:#452845;fill-opacity:1" /></g><g
         id="g12628"
         style="fill:#452845;fill-opacity:1"><path
           d="m 290.5,252.6 c -1.7,0 -3,-0.6 -3.9,-1.8 -0.9,-1.2 -1.3,-2.8 -1.3,-4.7 0,-2 0.4,-3.6 1.3,-4.7 0.9,-1.2 2.2,-1.8 3.9,-1.8 1.7,0 3,0.6 3.9,1.8 0.9,1.2 1.3,2.8 1.3,4.7 0,2 -0.4,3.6 -1.3,4.7 -0.9,1.1 -2.1,1.8 -3.9,1.8 z m -1.8,-9.5 c -0.4,0.8 -0.6,1.8 -0.6,3 0,1.3 0.2,2.3 0.6,3 0.4,0.8 1,1.2 1.9,1.2 0.9,0 1.5,-0.4 1.9,-1.2 0.4,-0.8 0.6,-1.8 0.6,-3 0,-1.3 -0.2,-2.3 -0.6,-3 -0.4,-0.8 -1,-1.2 -1.9,-1.2 -0.9,0 -1.5,0.4 -1.9,1.2 z"
           id="path12626"
           inkscape:connector-curvature="0"
           style="fill:#452845;fill-opacity:1" /></g><g
         id="g12632"
         style="fill:#452845;fill-opacity:1"><path
           d="m 303.2,242.7 c 0,0.7 -0.3,1.3 -0.8,1.8 -0.5,0.5 -1.1,0.7 -1.9,0.7 -0.8,0 -1.4,-0.2 -1.9,-0.7 -0.5,-0.5 -0.8,-1.1 -0.8,-1.8 0,-0.7 0.3,-1.3 0.8,-1.8 0.5,-0.5 1.1,-0.7 1.9,-0.7 0.8,0 1.4,0.2 1.9,0.7 0.5,0.5 0.8,1.1 0.8,1.8 z m 6.9,-2.8 -9,12.6 H 298 l 9,-12.6 z m -10.1,3.5 c 0.1,0.2 0.3,0.2 0.5,0.2 0.2,0 0.4,-0.1 0.5,-0.2 0.1,-0.2 0.2,-0.4 0.2,-0.6 0,-0.3 -0.1,-0.5 -0.2,-0.7 -0.1,-0.2 -0.3,-0.3 -0.5,-0.3 -0.2,0 -0.4,0.1 -0.5,0.3 -0.1,0.2 -0.2,0.4 -0.2,0.7 0,0.2 0.1,0.4 0.2,0.6 z m 10.3,6.7 c 0,0.7 -0.3,1.3 -0.8,1.8 -0.5,0.5 -1.1,0.7 -1.9,0.7 -0.8,0 -1.4,-0.2 -1.9,-0.7 -0.5,-0.5 -0.8,-1.1 -0.8,-1.8 0,-0.7 0.3,-1.3 0.8,-1.8 0.5,-0.5 1.1,-0.7 1.9,-0.7 0.8,0 1.4,0.2 1.9,0.7 0.5,0.5 0.8,1.1 0.8,1.8 z m -3.2,0.6 c 0.1,0.2 0.3,0.2 0.5,0.2 0.2,0 0.4,-0.1 0.5,-0.2 0.1,-0.2 0.2,-0.4 0.2,-0.6 0,-0.2 -0.1,-0.5 -0.2,-0.7 -0.1,-0.2 -0.3,-0.3 -0.5,-0.3 -0.2,0 -0.4,0.1 -0.5,0.3 -0.1,0.2 -0.2,0.4 -0.2,0.7 0,0.3 0,0.5 0.2,0.6 z"
           id="path12630"
           inkscape:connector-curvature="0"
           style="fill:#452845;fill-opacity:1" /></g></g><g
       id="g12642"><path
         d="m 372.5,303.4 h -194 v -172 c 0,-1.9 1.6,-3.5 3.5,-3.5 1.9,0 3.5,1.6 3.5,3.5 v 165 h 187 c 1.9,0 3.5,1.6 3.5,3.5 0,1.9 -1.6,3.5 -3.5,3.5 z"
         id="path12640"
         inkscape:connector-curvature="0"
         style="fill:#e95f6a" /></g><g
       id="g12646"><path
         d="m 364.8,312.7 c -1,0 -2,-0.4 -2.6,-1.2 -1.3,-1.5 -1.1,-3.7 0.4,-4.9 l 8.9,-7.7 -8.9,-7.7 c -1.5,-1.3 -1.6,-3.5 -0.3,-4.9 1.3,-1.5 3.5,-1.6 4.9,-0.3 l 14.9,13 -15,12.9 c -0.7,0.5 -1.5,0.8 -2.3,0.8 z"
         id="path12644"
         inkscape:connector-curvature="0"
         style="fill:#e95f6a" /></g></g></svg>